<svg xmlns="http://www.w3.org/2000/svg" width="2000" height="2000" viewBox="0 0 2000 2000" version="1.1"><path d="M 1280.638 571.500 C 1280.955 572.325, 1281.788 573, 1282.490 573 C 1284.255 573, 1284.931 577.373, 1283.475 579.365 C 1282.818 580.264, 1281.597 581, 1280.762 581 C 1279.928 581, 1278.685 581.675, 1278 582.500 C 1276.984 583.725, 1277.042 584, 1278.319 584 C 1279.178 584, 1280.203 584.520, 1280.596 585.156 C 1281.109 585.986, 1280.296 586.147, 1277.717 585.729 C 1275.282 585.334, 1273.755 585.591, 1272.978 586.527 C 1272.134 587.544, 1269.808 587.816, 1264.166 587.559 C 1248.841 586.861, 1243.802 589.322, 1258.017 590.562 C 1266.547 591.306, 1267.116 591.680, 1264 594.500 C 1262.900 595.495, 1262 597.267, 1262 598.437 C 1262 602.730, 1245.510 604.058, 1192.789 604.013 C 1182.242 604.004, 1177.777 604.354, 1177.013 605.250 C 1168.753 614.939, 1167.802 615.654, 1168.473 611.674 C 1169.328 606.608, 1167.298 603.683, 1165.357 607.182 C 1164.650 608.457, 1164.055 610.775, 1164.035 612.333 C 1163.979 616.845, 1161.568 614.941, 1161 609.936 C 1160.500 605.527, 1160.500 605.527, 1158.398 607.794 C 1155.936 610.447, 1153.330 608.686, 1154.458 605.132 C 1154.801 604.052, 1154.613 602.879, 1154.041 602.525 C 1151.260 600.807, 1152.857 590.190, 1156 589.500 C 1160.760 588.455, 1159.676 586.639, 1154.750 587.406 C 1150.232 588.108, 1147.774 590.246, 1148.702 592.665 C 1149.819 595.576, 1146.916 599.234, 1144.921 597.428 C 1143.334 595.993, 1143.097 596.004, 1142.227 597.559 C 1141.445 598.955, 1141.147 598.596, 1140.580 595.577 C 1139.059 587.467, 1143.681 587.998, 1074.750 588.015 C 1036.261 588.025, 1012.943 588.397, 1012 589.015 C 1009.261 590.813, 1012.752 591.751, 1018.304 590.709 C 1023.656 589.704, 1034.891 589.557, 1035.813 590.480 C 1036.779 591.446, 1035.491 591.860, 1029.986 592.355 C 1026.968 592.626, 1021.529 593.162, 1017.899 593.547 C 1011.719 594.201, 1011.262 594.110, 1010.742 592.123 C 1010.031 589.403, 1008 589.356, 1008 592.059 C 1008 593.275, 1007.559 593.846, 1006.923 593.453 C 1005.844 592.785, 1003.729 594.624, 1000.932 598.662 C 1000.108 599.852, 996.749 603.866, 993.467 607.582 C 977.578 625.575, 977 625.553, 977 606.950 C 977 595.537, 975.312 592.691, 973.091 600.357 C 972.590 602.085, 972.140 602.712, 972.090 601.750 C 972.041 600.788, 971.550 599.944, 971 599.875 C 970.450 599.806, 969.438 599.694, 968.750 599.625 C 967.949 599.545, 967.392 597.436, 967.200 593.750 C 966.857 587.180, 970.825 585.231, 974.326 590.250 C 975.895 592.500, 975.895 592.500, 975.948 589.750 C 976.002 586.909, 953.206 585.240, 951.524 587.962 C 951.197 588.491, 949.933 588.603, 948.715 588.212 C 944.053 586.714, 913.182 588.337, 916.266 589.918 C 918.523 591.075, 919.964 591.121, 924.093 590.168 C 932.035 588.335, 935.573 588.664, 938.409 591.500 C 939.784 592.875, 941.622 594, 942.494 594 C 943.866 594, 943.839 594.249, 942.289 595.864 C 939.320 598.959, 936.420 599.993, 930.316 600.136 C 927.117 600.211, 925.513 600.467, 926.750 600.706 C 933.708 602.046, 925.003 602.541, 889.750 602.810 C 823.009 603.320, 827.609 602.007, 826.036 621 C 824.588 638.472, 823.293 639.337, 813.579 629.329 C 808.523 624.120, 795.932 610.878, 789.250 603.742 C 785.813 600.071, 783 597.503, 783 598.034 C 783 598.565, 782.520 599, 781.933 599 C 781.346 599, 781.122 598.192, 781.435 597.205 C 784.127 588.722, 779.736 588.205, 701.834 587.840 C 629.682 587.502, 622.910 587.717, 633.198 590.020 C 639.422 591.413, 643.726 594.364, 642.293 596.256 C 641.774 596.940, 641.466 598.689, 641.607 600.143 C 641.978 603.963, 639.908 604.078, 575.500 603.810 C 519.500 603.578, 519.500 603.578, 519.233 628.277 C 518.929 656.322, 519.477 654.630, 509.922 657.010 C 499.529 659.600, 499.536 659.579, 499.220 687.654 C 498.917 714.458, 498.776 715.923, 496.689 713.824 C 495.292 712.419, 487.723 696.758, 483 685.500 C 482.538 684.400, 479.006 676.975, 475.149 669 C 471.293 661.025, 467.832 653.258, 467.458 651.741 C 467.084 650.223, 466.378 648.734, 465.889 648.432 C 460.422 645.053, 466.165 636.854, 479.222 629.395 C 486.746 625.097, 486.918 624.913, 485.915 622.242 C 484.138 617.511, 472.537 594.516, 471.750 594.167 C 471.338 593.983, 471 593.304, 471 592.656 C 471 587.475, 466.927 586.301, 450.357 586.710 C 429.260 587.231, 429.463 587.181, 431.603 591.279 C 438.251 604.008, 443.167 603.089, 368.785 603.031 C 306.940 602.983, 306.940 602.983, 297.316 622.741 C 292.023 633.609, 286.241 644.786, 284.467 647.579 C 282.694 650.373, 280.905 653.748, 280.492 655.079 C 280.079 656.411, 278.503 659.750, 276.989 662.500 C 275.476 665.250, 271.550 672.675, 268.266 679 C 261.941 691.179, 258.045 698.273, 254.539 704 C 253.361 705.925, 251.085 710.200, 249.481 713.500 C 246.958 718.694, 235.750 739.615, 226.982 755.500 C 225.464 758.250, 222.301 764.325, 219.953 769 C 217.605 773.675, 213.804 780.650, 211.507 784.500 C 206.601 792.721, 198.358 807.507, 194.923 814.250 C 193.592 816.862, 192.154 819, 191.727 819 C 189.445 819, 189.093 833.100, 188.493 948.411 C 187.827 1076.386, 203.124 1089.086, 336.747 1071.498 C 341.543 1070.867, 342.062 1070.995, 342.800 1072.988 C 344.042 1076.345, 364 1058.593, 364 1054.132 C 364 1042.005, 381.527 1039.682, 393.785 1050.185 C 398.784 1054.469, 399.667 1053.543, 395.130 1048.775 C 389.283 1042.629, 383.927 1042.904, 504.500 1043.154 C 565.550 1043.280, 622.475 1043.071, 631 1042.690 C 639.525 1042.309, 653.861 1041.788, 662.859 1041.531 C 682.879 1040.960, 681.858 1041.665, 682.217 1028.155 C 682.564 1015.102, 683.025 1014.960, 690.681 1025.548 C 698.641 1036.557, 708.157 1047.154, 709.590 1046.604 C 710.355 1046.310, 710.606 1046.919, 710.300 1048.325 C 709.953 1049.918, 710.084 1050.137, 710.788 1049.143 C 711.461 1048.195, 711.956 1048.120, 712.434 1048.893 C 713.254 1050.220, 723 1050.396, 723 1049.083 C 723 1048.579, 722.438 1047.940, 721.750 1047.662 C 721.063 1047.385, 724.626 1047.122, 729.668 1047.079 C 739.768 1046.992, 744.358 1046.055, 740 1044.970 C 736.459 1044.088, 777.175 1043, 819 1042.858 C 867.573 1042.694, 964.254 1044.206, 960.199 1045.067 C 955.797 1046.002, 954.971 1046.997, 958.583 1047.014 C 960.187 1047.021, 962.513 1047.299, 963.750 1047.630 C 965.464 1048.090, 966 1047.811, 966 1046.462 C 966 1044.809, 966.122 1044.801, 967.829 1046.345 C 970.291 1048.573, 972 1048.432, 972 1046 C 972 1044.667, 972.667 1044, 974 1044 C 975.100 1044, 976 1043.602, 976 1043.117 C 976 1042.631, 977.125 1042.018, 978.500 1041.755 C 979.875 1041.492, 981 1041.654, 981 1042.114 C 981 1042.574, 982.013 1042.587, 983.250 1042.142 C 988.496 1040.256, 1000.359 1041.896, 996.971 1044.039 C 995.743 1044.816, 995.794 1044.972, 997.281 1044.985 C 998.261 1044.993, 999.321 1045.672, 999.636 1046.493 C 1000.020 1047.494, 1001.081 1047.821, 1002.854 1047.487 C 1004.309 1047.213, 1004.833 1047.288, 1004.018 1047.655 C 1003.203 1048.021, 1002.006 1048.851, 1001.358 1049.499 C 994.859 1055.998, 712.718 1056.659, 693.754 1050.219 C 689.210 1048.676, 688.946 1048.691, 687.575 1050.554 C 686.229 1052.382, 686.365 1052.515, 689.821 1052.755 C 691.844 1052.896, 698 1053.521, 703.500 1054.145 C 710.050 1054.888, 759.210 1055.564, 846 1056.105 C 1012.580 1057.145, 1020.882 1057.466, 1030.706 1063.256 C 1045.835 1072.173, 1018.668 1086.549, 976.500 1091.940 C 973.002 1092.387, 976.389 1092.741, 987.780 1093.119 C 1008.326 1093.802, 1010.031 1095.070, 999.719 1102 C 984.731 1112.073, 966.640 1131.779, 959.098 1146.248 C 955.940 1152.305, 953.909 1153.254, 946.866 1151.963 C 935.565 1149.890, 921.743 1152.082, 920.452 1156.152 C 919.768 1158.307, 917 1158.662, 917 1156.594 C 917 1153.855, 892.532 1153.355, 887.040 1155.982 C 882.871 1157.975, 874.779 1160, 870.982 1160 C 868.644 1160, 864.952 1160.533, 862.777 1161.185 C 859.729 1162.098, 858.387 1162.098, 856.925 1161.185 C 854.652 1159.766, 847 1159.596, 847 1160.965 C 847 1169.026, 825.627 1158.901, 822.631 1149.420 C 821.702 1146.482, 809.442 1135, 807.234 1135 C 806.225 1135, 804.972 1134.585, 804.450 1134.077 C 803.263 1132.924, 791.184 1129.771, 790.214 1130.361 C 789.821 1130.600, 784.396 1131.332, 778.159 1131.988 C 761.721 1133.718, 749.860 1140.483, 744.824 1151 C 741.974 1156.952, 740 1161.759, 740 1162.747 C 740 1168.088, 736.011 1171.219, 729.311 1171.139 C 726.259 1171.102, 722.277 1171.693, 720.463 1172.451 C 718.648 1173.209, 716.911 1173.578, 716.604 1173.271 C 716.296 1172.963, 714.020 1173.484, 711.546 1174.429 C 706.037 1176.533, 706.021 1176.524, 701.579 1168.443 C 699.599 1164.841, 697.421 1161.213, 696.740 1160.382 C 693.998 1157.038, 685.986 1149, 685.395 1149 C 685.048 1149, 683.226 1147.650, 681.347 1146 C 679.468 1144.350, 677.136 1143, 676.165 1143 C 675.194 1143, 673.973 1142.624, 673.450 1142.165 C 672.407 1141.249, 665.752 1138.869, 659.500 1137.176 C 652.779 1135.357, 635.744 1134.983, 633.524 1136.606 C 632.451 1137.391, 629.256 1138, 626.213 1138 C 614.819 1138, 570.371 1154.270, 568.167 1159.247 C 567.983 1159.661, 567.228 1160, 566.488 1160 C 565.748 1160, 564.548 1160.563, 563.821 1161.250 C 563.095 1161.938, 560.025 1164.382, 557 1166.682 C 551.156 1171.126, 533.516 1188.896, 531 1192.873 C 530.175 1194.178, 529.022 1195.752, 528.437 1196.373 C 521.276 1203.966, 513.761 1221.558, 508.948 1242 C 507.518 1248.073, 507.599 1263.954, 509.067 1265.450 C 509.580 1265.973, 510 1267.277, 510 1268.349 C 510 1269.420, 511.423 1273.268, 513.161 1276.899 C 514.900 1280.529, 516.807 1284.625, 517.400 1286 C 519.314 1290.442, 523.388 1295, 528.250 1298.140 C 533.624 1301.611, 533.900 1302.750, 531.401 1311.135 C 526.805 1326.561, 525 1329.567, 517.126 1334.914 C 486.451 1355.745, 488.360 1399.264, 520.603 1414.184 C 541.648 1423.922, 571.869 1413.755, 599.563 1387.622 C 608.006 1379.654, 608.448 1379.629, 619.278 1386.500 C 624.046 1389.525, 628.261 1392, 628.645 1392 C 629.029 1392, 630.081 1392.668, 630.983 1393.485 C 633.161 1395.456, 653.444 1396.581, 661 1395.151 C 676.582 1392.201, 679.370 1391.482, 694 1386.644 C 703.091 1383.637, 703.853 1383.153, 711.698 1375.394 C 716.206 1370.935, 721.381 1366.719, 723.198 1366.025 C 735.354 1361.383, 741.847 1358.730, 744.154 1357.460 C 745.657 1356.634, 749.431 1356, 752.853 1356 C 756.178 1356, 764.433 1354.875, 771.197 1353.500 C 777.962 1352.125, 784.945 1351, 786.714 1351 C 788.484 1351, 795.459 1349.694, 802.216 1348.098 C 830.838 1341.336, 844.702 1338.916, 857.500 1338.450 C 875.809 1337.784, 885.732 1336.292, 893.500 1333.039 C 910.715 1325.828, 917.243 1321.558, 928.500 1310.143 C 935.447 1303.099, 938.163 1301.707, 939.700 1304.402 C 945.530 1314.624, 954.364 1320.633, 965.865 1322.199 C 975.230 1323.473, 975.230 1323.473, 978.171 1327.748 C 982.242 1333.666, 985.865 1336.818, 989.452 1337.563 C 992.079 1338.108, 999.737 1341.059, 1006.500 1344.132 C 1020.979 1350.711, 1037.570 1345.723, 1053.744 1329.930 C 1062.783 1321.103, 1062.783 1321.103, 1078.142 1320.801 C 1130.378 1319.777, 1251.250 1322.579, 1265 1325.133 C 1268.025 1325.695, 1278.600 1326.554, 1288.500 1327.042 C 1298.400 1327.530, 1311.675 1328.464, 1318 1329.117 C 1324.325 1329.770, 1332.200 1330.226, 1335.500 1330.131 C 1351.968 1329.657, 1357.357 1333.433, 1359.008 1346.604 C 1366.354 1405.210, 1441.505 1417.884, 1479.559 1366.935 C 1485.370 1359.155, 1491.437 1340.835, 1492.707 1327.230 C 1493.296 1320.926, 1493.311 1320.900, 1498.519 1317.444 C 1532.951 1294.589, 1553.775 1254.893, 1541.206 1236.070 C 1536.879 1229.590, 1536.070 1226.330, 1538.250 1224.150 C 1544.233 1218.167, 1538.612 1191.655, 1529.408 1182.452 C 1516.583 1169.627, 1479.996 1164.602, 1446 1170.996 C 1438.036 1172.494, 1435.710 1172.421, 1431.659 1170.544 C 1426.605 1168.203, 1419.890 1166.251, 1414.500 1165.556 C 1411.750 1165.201, 1408.262 1164.426, 1406.749 1163.834 C 1404.738 1163.046, 1403.625 1163.066, 1402.609 1163.909 C 1401.533 1164.802, 1400.380 1164.566, 1397.493 1162.863 C 1393.139 1160.295, 1385.802 1158.694, 1377.864 1158.580 C 1372.331 1158.501, 1368 1156.339, 1368 1153.655 C 1368 1150.319, 1360.795 1138.871, 1355.233 1133.371 C 1333.214 1111.593, 1297.463 1119.400, 1290.404 1147.528 C 1289.317 1151.856, 1287.574 1152.479, 1280.697 1151.002 C 1274.599 1149.691, 1240.409 1148.039, 1210 1147.584 C 1195.281 1147.364, 1172.580 1145.613, 1168.702 1144.398 C 1167.713 1144.088, 1166.313 1144.325, 1165.590 1144.925 C 1164.788 1145.591, 1160.235 1145.932, 1153.888 1145.801 C 1148.175 1145.683, 1142.825 1145.792, 1142 1146.043 C 1139.642 1146.761, 1140.664 1141.250, 1144.400 1133.099 C 1145.005 1131.778, 1145.500 1125.703, 1145.500 1119.599 C 1145.500 1108.429, 1144.972 1106.157, 1140.446 1097.846 C 1137.179 1091.847, 1138.063 1091.008, 1147.750 1090.921 C 1156.500 1090.842, 1156.500 1090.842, 1152.322 1089.362 C 1149.565 1088.385, 1146.854 1086.285, 1144.356 1083.191 C 1142.272 1080.611, 1140.304 1078.275, 1139.981 1078 C 1138.227 1076.505, 1135 1069.933, 1135 1067.854 C 1135 1057.709, 1148.140 1056.216, 1241 1055.810 C 1290.500 1055.593, 1290.500 1055.593, 1241.500 1054.935 C 1182.259 1054.139, 1147.826 1052.978, 1150.803 1051.877 C 1152.200 1051.360, 1152.758 1050.533, 1152.378 1049.543 C 1151.882 1048.250, 1152.511 1048.108, 1156.381 1048.639 C 1159.378 1049.049, 1161.481 1048.846, 1162.438 1048.051 C 1163.244 1047.382, 1164.723 1047.095, 1165.725 1047.413 C 1166.726 1047.731, 1169.028 1047.565, 1170.840 1047.046 C 1172.837 1046.473, 1175.075 1046.458, 1176.520 1047.007 C 1178.478 1047.752, 1178.797 1047.635, 1178.306 1046.356 C 1177.978 1045.499, 1178.297 1044.434, 1179.016 1043.990 C 1180.060 1043.345, 1179.989 1042.846, 1178.662 1041.519 C 1176.275 1039.132, 1176.366 1039.117, 1183.250 1040.754 C 1188.655 1042.039, 1203.898 1042.164, 1296.036 1041.679 C 1354.631 1041.370, 1403.006 1041.429, 1403.536 1041.809 C 1404.066 1042.189, 1406.058 1044.525, 1407.963 1047 C 1409.868 1049.475, 1411.755 1051.642, 1412.157 1051.815 C 1412.559 1051.988, 1412.640 1052.775, 1412.337 1053.565 C 1411.387 1056.040, 1414.459 1055.184, 1423.339 1050.500 C 1433.643 1045.065, 1435.029 1044.986, 1439.226 1049.598 C 1441.027 1051.578, 1443.400 1053.668, 1444.500 1054.244 C 1446.425 1055.252, 1446.434 1055.217, 1444.750 1053.317 C 1439.209 1047.066, 1442.231 1044.279, 1455.250 1043.633 C 1490.220 1041.900, 1751.323 1041.019, 1756.367 1042.617 C 1757.827 1043.080, 1765.297 1036.088, 1790.571 1010.605 C 1808.356 992.672, 1823.604 978, 1824.454 978 C 1826.407 978, 1826.218 985.975, 1826.111 908 C 1826.027 846.492, 1825.713 826.758, 1824.448 803.500 C 1824.209 799.100, 1824 749.639, 1823.985 693.587 C 1823.969 637.535, 1823.689 590.610, 1823.363 589.309 C 1822.547 586.058, 1727.908 586.036, 1725.531 589.287 C 1724.813 590.271, 1723.698 590.946, 1723.054 590.787 C 1721.754 590.468, 1718.774 597.822, 1719.451 599.677 C 1720.597 602.813, 1717.165 603.018, 1667.886 602.760 C 1618.500 602.500, 1618.500 602.500, 1618.500 595 C 1618.500 584.093, 1476.161 582.442, 1467.046 593.244 C 1439.933 625.375, 1441.373 624.397, 1432.882 616.428 C 1426.331 610.280, 1415.397 598.667, 1408.007 590.008 C 1405.227 586.750, 1401.580 586.047, 1400.607 588.582 C 1399.694 590.960, 1399.792 591.029, 1402.565 589.975 C 1406.052 588.649, 1406.197 588.712, 1404.803 590.945 C 1403.761 592.612, 1403.981 593.253, 1406.346 595.445 C 1408.794 597.714, 1408.883 598, 1407.140 598 C 1406.061 598, 1404.013 596.615, 1402.589 594.923 C 1401.093 593.145, 1400 592.454, 1400 593.287 C 1400 594.079, 1401.178 595.905, 1402.617 597.344 C 1407.107 601.835, 1404.179 602.209, 1357 603.172 C 1292.324 604.492, 1296.715 605.039, 1295.381 595.500 C 1294.230 587.270, 1290.692 578.841, 1286.978 575.480 C 1285.890 574.495, 1285 572.860, 1285 571.845 C 1285 570.550, 1284.264 570, 1282.531 570 C 1280.748 570, 1280.223 570.416, 1280.638 571.500 M 1194.310 628.033 C 1191.912 628.973, 1186.898 633.663, 1158.553 661.485 C 1135.296 684.313, 1126.844 939.133, 1148.622 960.894 C 1154.055 966.323, 1165.189 977.555, 1173.365 985.854 C 1188.229 1000.943, 1188.229 1000.943, 1282.365 1000.899 C 1401.490 1000.843, 1391.271 1001.775, 1402.926 989.896 C 1419.043 973.470, 1433.383 958.459, 1436.740 954.500 C 1440.981 949.500, 1440.981 949.500, 1441.046 911.500 C 1441.241 797.921, 1440.806 677.478, 1440.197 676.410 C 1438.899 674.132, 1394.827 629.509, 1392.656 628.273 C 1390.098 626.817, 1198.009 626.585, 1194.310 628.033 M 1534.354 627.875 C 1526.838 628.639, 1529.571 626.341, 1496.757 659.487 C 1470.349 686.161, 1454.732 789.109, 1474.250 807.849 C 1476.588 810.093, 1482.775 816.031, 1488 821.045 C 1493.225 826.059, 1504.373 836.979, 1512.774 845.312 C 1528.048 860.463, 1528.048 860.463, 1606.370 860.155 C 1684.692 859.847, 1684.692 859.847, 1685.340 868.173 C 1686.909 888.328, 1686.548 890.935, 1681.250 897.745 C 1668.778 913.775, 1678.521 912.438, 1570.063 913 C 1455.160 913.595, 1471 906.559, 1471 957 C 1471 1007.452, 1442.379 1001.246, 1667 999.500 C 1695.325 999.280, 1723.717 999.077, 1730.094 999.050 C 1743.545 998.992, 1740.089 1001.427, 1767 973.049 C 1775.525 964.060, 1783.664 955.529, 1785.086 954.093 C 1790.144 948.985, 1790 951.093, 1790 882.388 C 1790 817.645, 1790 817.645, 1782.750 810.541 C 1766.054 794.183, 1741.673 771.452, 1740.145 770.820 C 1739.240 770.446, 1704.714 770.109, 1663.419 770.070 C 1588.338 770, 1588.338 770, 1586.972 767.448 C 1586.221 766.044, 1582.995 762.615, 1579.803 759.828 C 1570.134 751.385, 1570.932 735.333, 1581.554 724.607 C 1589.108 716.979, 1589.108 716.979, 1656.804 717.163 C 1739.414 717.386, 1739.981 717.331, 1734 709.727 C 1732.900 708.329, 1732 706.953, 1732 706.671 C 1732 706.256, 1755.145 676.747, 1758.964 672.292 C 1759.534 671.628, 1760 670.653, 1760 670.126 C 1760 669.598, 1760.356 669.017, 1760.792 668.833 C 1761.228 668.650, 1764.096 665.350, 1767.167 661.500 C 1770.237 657.650, 1775.722 651.516, 1779.354 647.869 C 1787.894 639.295, 1791.032 630.475, 1786.250 628.486 C 1784.095 627.590, 1542.903 627.005, 1534.354 627.875 M 359.777 628.750 C 323.171 629.041, 320 629.757, 320 637.732 C 320 638.429, 319.550 639, 319 639 C 318.450 639, 318 639.466, 318 640.035 C 318 640.604, 316.030 644.541, 313.623 648.785 C 305.902 662.393, 298.279 676.730, 286.124 700.500 C 283.031 706.550, 280.275 711.725, 280 712 C 279.194 712.806, 275.174 720.059, 272.242 726 C 270.749 729.025, 269.241 731.725, 268.890 732 C 268.540 732.275, 266.234 736.325, 263.765 741 C 261.297 745.675, 257.910 752.016, 256.237 755.090 C 254.565 758.165, 250.737 765.365, 247.730 771.090 C 244.723 776.816, 241.243 783.300, 239.995 785.500 C 238.748 787.700, 236.186 792.345, 234.302 795.822 C 232.418 799.299, 228.502 806.274, 225.601 811.322 C 212.265 834.527, 213.500 822.625, 213.500 927.958 C 213.500 1019.947, 234.563 1042.124, 302.250 1021.401 C 303.876 1020.903, 304 1018.212, 304 983.433 C 304 946, 304 946, 362.556 946 C 421.113 946, 421.113 946, 420.806 971.750 C 420.638 985.913, 420.864 998.063, 421.309 998.750 C 422.485 1000.568, 510.844 1000.566, 513.330 998.748 C 518.093 995.265, 514.948 823.151, 509.944 813.389 C 502.415 798.701, 495.934 785.757, 457.682 709 C 414.457 622.264, 418.171 627.923, 404.677 628.237 C 399.080 628.367, 378.875 628.598, 359.777 628.750 M 651.597 628.750 C 527.679 629.059, 544.922 621.418, 545.240 675.881 C 545.500 720.500, 545.500 720.500, 622 721 C 706.618 721.553, 698.975 720.902, 706.771 728.216 C 719.915 740.544, 720.269 741.172, 721.242 753.863 C 723.301 780.730, 722.046 784.383, 705.715 799.080 C 694.692 809, 694.692 809, 619.990 809 C 545.289 809, 545.289 809, 544.652 815.750 C 543.352 829.510, 543.902 997.680, 545.250 998.714 C 547.236 1000.237, 634.717 1000.480, 636.540 998.967 C 637.784 997.935, 638 990.516, 638 948.878 C 638 900, 638 900, 654.500 900 C 663.575 900, 671.297 899.888, 671.660 899.750 C 672.220 899.538, 684.120 921.786, 693.724 941 C 695.236 944.025, 696.708 946.725, 696.996 947 C 697.284 947.275, 701.062 954.475, 705.393 963 C 709.723 971.525, 715.214 982.100, 717.594 986.500 C 719.974 990.900, 722.374 995.400, 722.927 996.500 C 725.375 1001.372, 726.833 1002.427, 729.298 1001.108 C 730.998 1000.198, 735.487 1000.024, 746.060 1000.456 C 774.794 1001.631, 827 999.964, 827 997.872 C 827 996.228, 818.282 977.202, 816.977 976 C 816.679 975.725, 812.124 966.950, 806.856 956.500 C 801.587 946.050, 795.037 933.225, 792.300 928 C 789.563 922.775, 784.261 912.650, 780.518 905.500 C 776.776 898.350, 771.936 889.350, 769.763 885.500 C 763.872 875.062, 763.290 876.376, 782.500 856.758 C 802.225 836.616, 808.907 829.068, 818 816.659 C 835.031 793.418, 816.762 685.456, 791.500 660.055 C 765.368 633.780, 758.582 627.633, 756.382 628.245 C 755.897 628.380, 708.744 628.607, 651.597 628.750 M 883 628.980 C 821.149 629.940, 832.278 999.400, 894.168 999.760 C 949.280 1000.081, 941.986 1007.024, 942.058 954.179 C 942.125 903.986, 942.048 904.709, 947.838 900.293 C 953.275 896.146, 953.277 896.146, 956.751 901.250 C 958.343 903.587, 962.650 909.916, 966.322 915.312 C 969.995 920.709, 973 925.399, 973 925.734 C 973 926.068, 973.745 927.165, 974.655 928.171 C 976.172 929.847, 976.174 930, 974.685 930 C 973.791 930, 972.034 928.203, 970.780 926.008 C 968.437 921.906, 967.562 921.282, 966.518 922.971 C 965.884 923.997, 967.211 926.658, 972.020 934 C 973.641 936.475, 975.282 939.175, 975.667 940 C 976.051 940.825, 977.741 943.300, 979.422 945.500 C 981.104 947.700, 982.621 949.712, 982.794 949.971 C 982.967 950.230, 983.488 949.828, 983.952 949.077 C 985.020 947.349, 983.328 942.340, 981.430 941.612 C 980.644 941.310, 980 940.368, 980 939.518 C 980 937.756, 977.976 933.841, 976.529 932.804 C 975.995 932.422, 975.882 931.784, 976.279 931.388 C 976.676 930.991, 977.125 930.854, 977.277 931.083 C 977.430 931.312, 981.142 936.805, 985.527 943.289 C 997.269 960.651, 999.308 964.027, 998.523 964.801 C 998.133 965.185, 996.308 963.711, 994.467 961.523 C 989.731 955.897, 988.903 957.940, 993.575 963.725 C 995.696 966.351, 997.809 968.766, 998.269 969.092 C 998.729 969.417, 999.029 970.092, 998.934 970.592 C 998.222 974.372, 1000.956 976.845, 1002.428 973.750 C 1002.755 973.063, 1002.838 973.497, 1002.614 974.715 C 1002.333 976.239, 1002.797 977.118, 1004.103 977.533 C 1005.146 977.864, 1006 978.989, 1006 980.032 C 1006 981.076, 1006.935 982.430, 1008.078 983.042 C 1009.267 983.678, 1009.922 984.762, 1009.609 985.577 C 1009.309 986.360, 1009.499 987, 1010.031 987 C 1011.820 987, 1011.022 983.180, 1008.637 980.327 C 1007.337 978.772, 1005.990 976.600, 1005.643 975.500 C 1005.296 974.400, 1003.884 972.193, 1002.506 970.594 C 1001.128 968.996, 1000 967.240, 1000 966.691 C 1000 965.741, 1001.380 967.176, 1005.250 972.156 C 1006.212 973.394, 1007 974.953, 1007 975.620 C 1007 976.287, 1007.349 976.983, 1007.775 977.167 C 1008.201 977.350, 1010.366 980.200, 1012.586 983.500 C 1018.098 991.694, 1018.260 992, 1017.091 992 C 1016.526 992, 1015.358 990.763, 1014.495 989.250 C 1013.054 986.723, 1012.980 986.697, 1013.586 988.923 C 1014.486 992.234, 1017.586 995.479, 1018.474 994.042 C 1019.202 992.864, 1023 996.923, 1023 998.878 C 1023 1001.180, 1128.642 1000.764, 1130.949 998.453 C 1131.870 997.530, 1124.076 983.799, 1120.073 979.292 C 1119.483 978.628, 1119 977.853, 1119 977.570 C 1119 977.287, 1116.352 973.105, 1113.116 968.277 C 1109.881 963.450, 1103.954 954.100, 1099.946 947.500 C 1095.938 940.900, 1092.285 935.350, 1091.829 935.167 C 1091.373 934.983, 1091 934.454, 1091 933.990 C 1091 933.526, 1088.644 929.626, 1085.765 925.323 C 1082.885 921.021, 1080.073 916.722, 1079.515 915.772 C 1075.761 909.378, 1070.491 901.447, 1069.811 901.167 C 1069.365 900.983, 1069 900.349, 1069 899.758 C 1069 898.668, 1062.869 888.886, 1049.095 868 C 1044.923 861.675, 1041.058 855.754, 1040.505 854.842 C 1039.952 853.930, 1037.138 849.368, 1034.250 844.703 C 1027.365 833.581, 1026.593 835.578, 1046.882 812 C 1050.432 807.875, 1055.249 802.250, 1057.587 799.500 C 1062.506 793.714, 1075.989 777.971, 1082.808 770.051 C 1085.389 767.054, 1089.060 762.554, 1090.966 760.051 C 1092.872 757.548, 1095.867 753.925, 1097.622 752 C 1111.150 737.159, 1110.472 740.734, 1110.784 682.611 C 1111.011 640.348, 1110.809 629.496, 1109.784 628.845 C 1109.078 628.397, 1103.382 628.024, 1097.126 628.015 C 1084.279 627.998, 1080.901 630.693, 1053.899 662.500 C 1052.031 664.700, 1050.228 666.725, 1049.891 667 C 1049.554 667.275, 1046.014 671.325, 1042.023 676 C 1038.032 680.675, 1032.436 686.975, 1029.586 690 C 1026.737 693.025, 1020.405 700, 1015.515 705.500 C 1010.625 711, 1005.922 716.206, 1005.062 717.068 C 1004.203 717.930, 1000.800 721.738, 997.500 725.529 C 990.569 733.491, 984.570 740.216, 981 744.023 C 979.625 745.490, 977.586 747.772, 976.469 749.095 C 975.352 750.418, 970.852 755.609, 966.469 760.632 C 962.086 765.654, 957.375 771.228, 956 773.018 C 940.378 793.352, 942.010 800.707, 942.005 709.950 C 941.999 617.877, 943.714 627.918, 928.050 628.230 C 921.697 628.356, 901.425 628.694, 883 628.980 M 1294.507 717.750 C 1239.555 718.136, 1201.748 857.706, 1244.513 902.309 C 1248.631 906.603, 1252 910.541, 1252 911.059 C 1252 911.628, 1265.282 912, 1285.656 912 C 1324.311 912, 1323.274 912.307, 1334.533 897.546 C 1337.851 893.196, 1338.552 716.789, 1335.250 717.238 C 1334.287 717.369, 1315.953 717.599, 1294.507 717.750 M 363.812 748.218 C 361.939 751.673, 358.450 758.550, 356.058 763.500 C 350.486 775.033, 324.438 827.489, 317.916 840.310 C 309.118 857.606, 307.545 856.380, 337.597 855.645 C 351.844 855.296, 376.377 854.723, 392.116 854.371 C 420.732 853.732, 420.732 853.732, 416.482 845.116 C 412.358 836.754, 409.863 831.431, 404.711 820 C 401.616 813.135, 393.455 795.942, 386.435 781.500 C 383.495 775.450, 379.230 766.450, 376.958 761.500 C 374.687 756.550, 372.192 751.306, 371.414 749.846 C 370.636 748.386, 370 746.528, 370 745.718 C 370 740.939, 367.131 742.098, 363.812 748.218 M 1065 1102.619 C 1058.701 1104.266, 1057.993 1104.537, 1048.500 1108.932 C 1042.276 1111.814, 1032.352 1117.510, 1031 1118.977 C 1030.725 1119.275, 1028.700 1120.709, 1026.500 1122.164 C 1024.300 1123.618, 1021.128 1126.089, 1019.452 1127.654 C 1017.776 1129.219, 1015.056 1131.631, 1013.408 1133.013 C 1007.004 1138.381, 994.564 1153.179, 986.939 1164.497 C 980.441 1174.142, 970 1194.740, 970 1197.915 C 970 1198.527, 969.576 1199.809, 969.059 1200.764 C 968.541 1201.719, 967.367 1205.200, 966.449 1208.500 C 965.531 1211.800, 964.197 1216.525, 963.483 1219 C 947.843 1273.228, 988.868 1311.412, 1022.750 1274.163 C 1025.539 1271.096, 1025.571 1272.026, 1022.916 1279.014 C 1021.769 1282.031, 1020.566 1285.388, 1020.241 1286.473 C 1019.916 1287.558, 1019.057 1289.583, 1018.331 1290.973 C 1017.606 1292.363, 1017.010 1294.027, 1017.006 1294.671 C 1017.003 1295.315, 1015.411 1299.590, 1013.470 1304.171 C 1007.078 1319.252, 1018.431 1327.099, 1027.996 1314.211 C 1034.164 1305.901, 1044 1290.642, 1044 1289.385 C 1044 1288.715, 1044.352 1288.017, 1044.782 1287.833 C 1045.818 1287.392, 1051.490 1273.935, 1053.564 1267 C 1054.468 1263.975, 1056.263 1258.575, 1057.552 1255 C 1065.215 1233.749, 1069 1218.397, 1069 1208.569 C 1069 1204.406, 1069.338 1200.999, 1069.750 1200.998 C 1072.692 1200.988, 1080.358 1191.097, 1079.386 1188.564 C 1078.624 1186.577, 1058.774 1187.083, 1056.716 1189.141 C 1055.676 1190.181, 1051.852 1191.197, 1046.287 1191.912 C 1041.454 1192.533, 1036.118 1193.482, 1034.429 1194.021 C 1032.740 1194.559, 1030.478 1195, 1029.402 1195 C 1018.816 1195, 1020.793 1206.324, 1031.500 1207.021 C 1038.736 1207.493, 1039.572 1210, 1032.494 1210 C 1031.737 1210, 1030.840 1210.450, 1030.500 1211 C 1029.662 1212.356, 1024.669 1212.269, 1023.273 1210.873 C 1020.117 1207.717, 1014.704 1213.001, 1015.709 1218.259 C 1017.224 1226.181, 1034.236 1226.906, 1041.773 1219.370 C 1042.526 1218.617, 1043.561 1218, 1044.071 1218 C 1045.308 1218, 1045.259 1219.722, 1044 1220.500 C 1043.450 1220.840, 1043 1222.104, 1042.999 1223.309 C 1042.995 1235.992, 1011.964 1269, 1000.046 1269 C 990.927 1269, 985.408 1240.956, 991.976 1228 C 992.395 1227.175, 993.048 1224.700, 993.429 1222.500 C 994.953 1213.690, 1004.921 1189.960, 1012.332 1177.500 C 1035.496 1138.553, 1073.754 1108.701, 1083.927 1121.635 C 1090.163 1129.562, 1078.945 1153.143, 1064.018 1163.488 C 1053.375 1170.863, 1066.762 1174.165, 1080.384 1167.524 C 1127.346 1144.630, 1114.332 1089.725, 1065 1102.619 M 1323.334 1153.273 C 1311.889 1159.757, 1315.147 1180, 1327.636 1180 C 1338.341 1180, 1344.119 1170.376, 1339.394 1160.417 C 1336.679 1154.697, 1327.795 1150.745, 1323.334 1153.273 M 772.762 1167.702 C 771.806 1168.763, 770.757 1171.177, 770.431 1173.066 C 770.105 1174.955, 769.474 1177.400, 769.029 1178.500 C 768.585 1179.600, 767.452 1183.425, 766.512 1187 C 763.158 1199.760, 758.458 1207, 753.527 1207 C 752.672 1207, 751.191 1207.406, 750.236 1207.902 C 749.281 1208.398, 746.700 1209.185, 744.500 1209.652 C 739.391 1210.735, 738.534 1214.274, 742.482 1217.983 C 745.224 1220.559, 744.840 1220.579, 756.186 1217.289 C 757.750 1216.836, 757.763 1217.188, 756.366 1222.150 C 755.539 1225.093, 754.495 1228.850, 754.048 1230.500 C 753.601 1232.150, 752.225 1237.100, 750.990 1241.500 C 749.756 1245.900, 748.411 1251.075, 748.001 1253 C 746.223 1261.345, 741.601 1273.818, 736.162 1284.945 C 727.795 1302.061, 703.245 1317.371, 697.989 1308.750 C 695.152 1304.097, 695.205 1304.002, 703.847 1298.286 C 740.694 1273.915, 751.792 1225.424, 720.500 1225.526 C 686.703 1225.636, 658.162 1294.468, 679.624 1324.106 C 691.009 1339.829, 720.986 1334.257, 737.053 1313.431 C 742.142 1306.835, 741.755 1306.850, 747.905 1313 C 756.540 1321.635, 770.002 1319.230, 777.298 1307.750 C 779.461 1304.347, 781 1304.218, 781 1307.441 C 781 1310.887, 781.786 1311.105, 791.501 1310.358 C 801.843 1309.563, 802.370 1309.043, 804.022 1298 C 804.639 1293.875, 805.562 1289.719, 806.072 1288.764 C 806.582 1287.809, 807 1286.405, 807 1285.644 C 807 1282.328, 814.030 1262.967, 819.080 1252.377 C 820.686 1249.010, 822 1245.902, 822 1245.472 C 822 1245.041, 823.125 1243.214, 824.500 1241.411 C 825.875 1239.608, 827 1237.741, 827 1237.262 C 827 1236.167, 838.106 1225, 839.196 1225 C 840.950 1225, 840.528 1233.689, 838.274 1244 C 830.149 1281.166, 847.963 1306.676, 875.500 1297.309 C 883.332 1294.645, 898.947 1282.055, 898.988 1278.372 C 898.994 1277.752, 899.669 1276.690, 900.487 1276.011 C 902.615 1274.245, 909.393 1259.730, 911.927 1251.512 C 914.706 1242.500, 916.012 1240.616, 922.304 1236.540 C 927.472 1233.192, 938 1223.675, 938 1222.351 C 938 1221.970, 938.601 1220.947, 939.335 1220.079 C 942.270 1216.609, 943.419 1211.990, 941.760 1210.331 C 939.495 1208.067, 936.817 1209.385, 932.397 1214.938 C 928.522 1219.807, 918.959 1227, 916.361 1227 C 915.401 1227, 915 1225.578, 915 1222.178 C 915 1200.378, 896.236 1185.908, 879.134 1194.520 C 874.086 1197.062, 857 1212.767, 857 1214.866 C 857 1215.368, 855.442 1217.516, 853.539 1219.640 C 850.077 1223.500, 850.077 1223.500, 851.675 1218.500 C 857.641 1199.835, 854.352 1194.702, 842.206 1203.722 C 838.596 1206.403, 829.003 1216.133, 829.001 1217.114 C 829 1217.452, 827.648 1219.252, 825.996 1221.114 C 824.343 1222.977, 821.612 1227.425, 819.927 1231 C 818.241 1234.575, 816.401 1238.350, 815.836 1239.389 C 815.272 1240.427, 814.160 1243.465, 813.366 1246.139 C 811.825 1251.327, 810.549 1252.836, 811.580 1248.250 C 812.573 1243.832, 816.088 1232.652, 817.072 1230.784 C 818.226 1228.590, 820.061 1221.546, 820.694 1216.880 C 821.655 1209.797, 816.234 1204.521, 810.022 1206.493 C 807.552 1207.277, 807.297 1205.492, 809.750 1204.589 C 821.251 1200.357, 824.878 1190.281, 813.915 1193.018 C 811.487 1193.624, 806.800 1194.715, 803.500 1195.442 C 800.200 1196.169, 795.362 1197.448, 792.750 1198.284 C 790.138 1199.120, 788.015 1199.511, 788.033 1199.152 C 788.087 1198.063, 791.495 1188.581, 792.279 1187.335 C 799.499 1175.872, 781.613 1157.881, 772.762 1167.702 M 634 1173.027 C 629.875 1173.445, 624.700 1174.322, 622.500 1174.975 C 615.521 1177.047, 609.565 1179.017, 607.500 1179.935 C 554.133 1203.682, 526.572 1248.503, 551.969 1270.242 C 558.512 1275.842, 569.080 1277.460, 567.452 1272.612 C 557.973 1244.382, 594.406 1199.559, 632.678 1192.365 C 652.227 1188.691, 659.828 1196.344, 657.017 1216.873 C 655.807 1225.711, 654.729 1228.450, 646.366 1243.921 C 638.809 1257.902, 611.947 1281.003, 603.250 1281 C 601.881 1281, 601.556 1278.778, 602.749 1277.584 C 603.161 1277.172, 604.078 1274.509, 604.787 1271.667 C 605.496 1268.825, 606.532 1264.700, 607.090 1262.500 C 609.393 1253.413, 616.433 1235.010, 621.673 1224.379 C 625.983 1215.633, 623.864 1213.530, 613.713 1216.481 C 600.312 1220.377, 587.888 1234.250, 584.138 1249.507 C 583.598 1251.703, 582.255 1256.875, 581.154 1261 C 580.052 1265.125, 578.452 1271.650, 577.599 1275.500 C 576.745 1279.350, 574.686 1288.181, 573.023 1295.124 C 571.361 1302.067, 570 1308.485, 570 1309.387 C 570 1310.289, 569.578 1311.809, 569.063 1312.764 C 568.548 1313.719, 567.165 1318.550, 565.991 1323.500 C 563.701 1333.150, 556.471 1354.529, 555 1356 C 554.725 1356.275, 553.631 1358.208, 552.568 1360.296 C 548.456 1368.374, 543.524 1371.404, 536.091 1370.418 C 532.487 1369.940, 531.111 1370.162, 530.095 1371.386 C 525.411 1377.029, 541.461 1381.540, 551.628 1377.438 C 560.699 1373.777, 562.878 1372.315, 570.010 1365.098 C 579.035 1355.966, 586.594 1341.823, 590.639 1326.500 C 590.929 1325.400, 591.553 1323.600, 592.025 1322.500 C 592.497 1321.400, 593.323 1318.475, 593.861 1316 C 594.399 1313.525, 595.775 1307.759, 596.919 1303.187 C 598.064 1298.614, 599 1294.002, 599 1292.937 C 599 1283.994, 610.044 1299.309, 614.911 1315 C 616.702 1320.775, 618.556 1326.400, 619.030 1327.500 C 619.505 1328.600, 620.903 1331.975, 622.138 1335 C 629.885 1353.978, 644.021 1362.474, 656.500 1355.652 C 658.150 1354.750, 659.859 1354.010, 660.298 1354.006 C 668.222 1353.945, 685.655 1332.798, 681.340 1328.482 C 679.329 1326.472, 679.013 1326.552, 675 1330.093 C 662.346 1341.256, 653.628 1339.468, 646.485 1324.244 C 644.486 1319.985, 642.434 1315.719, 641.925 1314.764 C 641.416 1313.809, 641 1312.617, 641 1312.115 C 641 1311.268, 633.120 1293.803, 630.865 1289.653 C 629.638 1287.394, 628.929 1288.060, 639.287 1281.752 C 650.095 1275.170, 661.323 1265.046, 668.201 1255.678 C 675.518 1245.714, 675.229 1246.214, 681.020 1233.500 C 696.474 1199.573, 672.778 1169.098, 634 1173.027 M 1140.641 1183.101 C 1139.739 1184.390, 1139 1185.965, 1139 1186.600 C 1139 1189.238, 1136.195 1190.193, 1135.466 1187.803 C 1133.634 1181.798, 1128.623 1180.561, 1117.676 1183.412 C 1082.702 1192.522, 1052.722 1261.199, 1075.287 1280.514 C 1084.915 1288.755, 1099.765 1283.315, 1108.547 1268.330 C 1111.822 1262.741, 1112.005 1262.837, 1111.806 1270.050 C 1111.409 1284.446, 1131.340 1288.161, 1144.250 1276.098 C 1147.775 1272.804, 1149.793 1273.350, 1146.450 1276.693 C 1142.500 1280.643, 1146.259 1282.750, 1157.500 1282.885 C 1165.905 1282.986, 1166.503 1282.665, 1168.510 1276.959 C 1177.040 1252.720, 1193.449 1225.481, 1208.847 1210 C 1218.695 1200.098, 1219.698 1200.629, 1213.969 1212.708 C 1208.964 1223.261, 1208.754 1223.731, 1201.069 1241.648 C 1197.731 1249.430, 1195 1256.427, 1195 1257.198 C 1195 1257.969, 1194.579 1259.027, 1194.064 1259.550 C 1192.617 1261.019, 1188.828 1276.665, 1189.183 1279.703 C 1189.489 1282.316, 1189.817 1282.453, 1198.902 1283.751 C 1209.666 1285.290, 1208.774 1285.800, 1212.458 1276 C 1222.594 1249.036, 1236.241 1226.692, 1252.275 1210.807 C 1258.946 1204.198, 1262.867 1203.986, 1257.957 1210.500 C 1255.207 1214.149, 1241.646 1243.008, 1238.221 1252.500 C 1227.319 1282.718, 1246.519 1298.088, 1270.622 1278.437 C 1274.999 1274.868, 1276 1274.913, 1276 1278.681 C 1276 1290.764, 1302.982 1292.185, 1311.235 1280.537 C 1311.740 1279.824, 1311.974 1279.828, 1311.985 1280.550 C 1311.993 1281.127, 1311.515 1282.085, 1310.922 1282.678 C 1306.063 1287.537, 1312.358 1291.266, 1324.618 1290.791 C 1332.139 1290.500, 1332.139 1290.500, 1335.146 1283.500 C 1339.476 1273.421, 1344.379 1263.554, 1345.250 1263.167 C 1345.662 1262.983, 1346 1262.235, 1346 1261.504 C 1346 1256.460, 1378.198 1219.494, 1386.773 1214.693 C 1391.330 1212.142, 1390.897 1213.524, 1383.145 1226.248 C 1362.481 1260.168, 1356.257 1278.788, 1361.905 1289.790 C 1367.365 1300.426, 1384.891 1299.709, 1396.572 1288.373 C 1400.824 1284.245, 1400.824 1284.245, 1401.989 1288.870 C 1406.809 1308.012, 1429.652 1302.870, 1446.934 1278.752 C 1451.864 1271.872, 1451.739 1273.503, 1446.528 1284.052 C 1441.350 1294.532, 1440.739 1295.231, 1429 1304.050 C 1424.325 1307.563, 1420.275 1310.687, 1420 1310.994 C 1419.725 1311.301, 1417.476 1313.115, 1415.003 1315.026 C 1398.226 1327.988, 1392.541 1335.818, 1392.516 1346 C 1392.497 1353.516, 1394.568 1357.324, 1400.768 1361.179 C 1407.645 1365.456, 1432.915 1363.550, 1432.989 1358.750 C 1432.995 1358.338, 1433.523 1358, 1434.162 1358 C 1439.630 1358, 1451.238 1337.700, 1462.032 1309.260 C 1466.695 1296.973, 1464.581 1299.239, 1487.899 1281.524 C 1498.213 1273.687, 1513 1255.236, 1513 1250.203 C 1513 1242.573, 1509.158 1243.795, 1501.792 1253.770 C 1492.573 1266.254, 1480.394 1278.216, 1472.318 1282.716 C 1470.529 1283.713, 1471.194 1281.822, 1476.008 1272.216 C 1481.667 1260.924, 1484.042 1255.800, 1489.089 1244 C 1490.383 1240.975, 1492.936 1235.800, 1494.762 1232.500 C 1500.379 1222.348, 1505 1212.004, 1505 1209.580 C 1505 1205.154, 1487.864 1200.702, 1486.566 1204.791 C 1486.212 1205.907, 1485.286 1207.348, 1484.508 1207.993 C 1483.063 1209.192, 1482.738 1209.039, 1478.422 1205.135 C 1466.991 1194.794, 1435.718 1211.192, 1419.443 1236.058 C 1414.340 1243.856, 1406 1260.219, 1406 1262.434 C 1406 1263.295, 1405.660 1264, 1405.244 1264 C 1404.828 1264, 1403.889 1265.353, 1403.157 1267.007 C 1400.470 1273.078, 1383.578 1285.911, 1381.288 1283.621 C 1379.370 1281.704, 1391.793 1253.984, 1402.629 1236 C 1429.267 1191.791, 1397.574 1182.204, 1362.888 1223.978 C 1358.235 1229.581, 1359.499 1226.730, 1367.566 1213.424 C 1377.067 1197.751, 1377.064 1196.808, 1367.502 1195.658 C 1363.653 1195.195, 1360.278 1194.480, 1360.002 1194.070 C 1359.260 1192.969, 1355.362 1192.148, 1354.312 1192.873 C 1353.812 1193.218, 1348.424 1203.400, 1342.339 1215.500 C 1320.781 1258.365, 1318.882 1261.332, 1306.658 1271.257 C 1299.372 1277.173, 1297.678 1277.380, 1298.539 1272.250 C 1299.526 1266.375, 1303.885 1253.116, 1307.086 1246.250 C 1308.689 1242.813, 1311.390 1236.963, 1313.088 1233.250 C 1314.787 1229.537, 1319.038 1220.772, 1322.535 1213.772 C 1332.398 1194.031, 1332.416 1193.735, 1324 1190.611 C 1311.609 1186.011, 1305.856 1186.584, 1306.604 1192.345 C 1307.062 1195.868, 1306.531 1197.641, 1303.114 1204 C 1297.667 1214.137, 1288.484 1232.731, 1284.095 1242.512 C 1276.700 1258.994, 1265.185 1273, 1259.031 1273 C 1254.544 1273, 1259.389 1257.839, 1271.974 1232.500 C 1287.678 1200.880, 1288.765 1193.982, 1278.843 1188.920 C 1269.120 1183.960, 1262.802 1186.664, 1246.683 1202.687 C 1239.317 1210.009, 1237.371 1211.544, 1239.015 1208.732 C 1248.662 1192.237, 1233.210 1178.354, 1217.183 1189.116 C 1211.046 1193.237, 1195 1209.050, 1195 1210.977 C 1195 1211.539, 1194.546 1212, 1193.991 1212 C 1192.862 1212, 1197.839 1202.602, 1202.172 1196.553 C 1207.617 1188.953, 1205.729 1185.981, 1194.500 1184.474 C 1191.750 1184.105, 1188.675 1183.361, 1187.667 1182.822 C 1185.783 1181.813, 1182 1184.131, 1182 1186.294 C 1182 1186.835, 1180.251 1190.927, 1178.114 1195.389 C 1175.977 1199.850, 1173.040 1206.327, 1171.588 1209.783 C 1170.135 1213.238, 1167.609 1218.987, 1165.974 1222.558 C 1164.338 1226.129, 1163 1229.270, 1163 1229.538 C 1163 1230.409, 1154.410 1247.599, 1151.973 1251.605 C 1146.878 1259.981, 1137.827 1269, 1134.517 1269 C 1132.388 1269, 1139.524 1237.143, 1142.267 1234.400 C 1142.670 1233.997, 1143.003 1232.954, 1143.006 1232.083 C 1143.010 1231.213, 1143.685 1229.211, 1144.506 1227.636 C 1145.328 1226.060, 1146 1224.344, 1146 1223.822 C 1146 1223.299, 1147.125 1220.412, 1148.500 1217.406 C 1149.875 1214.400, 1151 1211.755, 1151 1211.529 C 1151 1211.302, 1153.500 1205.897, 1156.555 1199.518 C 1162.735 1186.614, 1162.808 1184.857, 1157.231 1183.189 C 1148.541 1180.590, 1142.423 1180.557, 1140.641 1183.101 M 1122.216 1199.420 C 1118.050 1202.366, 1107.894 1214.961, 1104.413 1221.500 C 1094.101 1240.867, 1090.963 1249.545, 1090.313 1260.500 C 1089.761 1269.791, 1090.695 1271.097, 1095.354 1267.543 C 1100.276 1263.790, 1113.373 1243.165, 1119.013 1230.287 C 1120.166 1227.654, 1121.511 1224.600, 1122.002 1223.500 C 1123.331 1220.521, 1128.521 1206.958, 1129.699 1203.382 C 1131.729 1197.221, 1128.067 1195.283, 1122.216 1199.420 M 884.216 1210.814 C 862.170 1233.184, 851.838 1276.213, 866.383 1285.082 C 870.290 1287.465, 876.607 1285.002, 874.877 1281.771 C 873.688 1279.549, 880.854 1256.983, 884.420 1251.723 C 893.414 1238.454, 888.597 1263.921, 879.165 1279.500 C 876.743 1283.500, 876.743 1283.500, 879.791 1280.640 C 887.894 1273.037, 898.362 1244, 893 1244 C 891.900 1244, 891 1244.450, 891 1245 C 891 1247.936, 884.349 1245.811, 880.250 1241.566 C 874.961 1236.089, 875.016 1228.449, 880.312 1232.844 C 888.459 1239.606, 892.912 1229.272, 887.927 1215.172 C 885.328 1207.821, 892.270 1203.641, 896.932 1209.750 C 899.031 1212.500, 899.031 1212.500, 898.347 1209.510 C 896.593 1201.846, 892.700 1202.205, 884.216 1210.814 M 797.500 1209.461 C 796.950 1209.628, 793.634 1210.579, 790.131 1211.576 C 782.885 1213.638, 782.635 1214.008, 777.649 1230.075 C 759.188 1289.569, 759.571 1325.828, 778.277 1289.500 C 783.296 1279.753, 785.766 1272.338, 789.518 1255.750 C 790.296 1252.313, 791.655 1246.800, 792.539 1243.500 C 793.422 1240.200, 794.751 1235.025, 795.491 1232 C 796.231 1228.975, 797.774 1222.759, 798.919 1218.187 C 800.063 1213.614, 801 1209.677, 801 1209.437 C 801 1208.962, 799.101 1208.976, 797.500 1209.461 M 1465 1219.761 C 1456.863 1223.750, 1443.963 1239.104, 1434.972 1255.500 C 1433.163 1258.800, 1431.296 1262.175, 1430.824 1263 C 1426.537 1270.491, 1422.920 1285, 1425.340 1285 C 1434.547 1285, 1466.797 1242.858, 1470.504 1225.984 C 1471.343 1222.163, 1473.123 1220, 1475.429 1220 C 1476.293 1220, 1477 1219.550, 1477 1219 C 1477 1217.380, 1468.797 1217.900, 1465 1219.761 M 714.315 1242.250 C 706.556 1250.289, 697.263 1271.693, 695.428 1285.750 C 693.884 1297.576, 705.331 1286.783, 714.784 1267.500 C 716.671 1263.650, 718.610 1259.729, 719.093 1258.787 C 720.487 1256.066, 722.238 1243.085, 721.570 1240.423 C 720.704 1236.971, 718.995 1237.401, 714.315 1242.250" stroke="none" fill="#100914" fill-rule="evenodd"/><path d="M 359.323 554 C 283.846 554.489, 282.086 554.545, 279.440 556.521 C 277.079 558.284, 266.670 574.998, 257.346 592 C 252.238 601.315, 239.645 622.918, 223.538 650 C 221.739 653.025, 219.141 657.525, 217.766 660 C 211.010 672.155, 179.753 726.244, 172.450 738.417 C 167.683 746.362, 166.764 747, 160.077 747 C 152.965 747, 149.456 749.407, 145.828 756.773 C 143.254 761.999, 141.497 1071.703, 143.988 1080.957 C 145.251 1085.644, 287.861 1088.919, 325.853 1085.133 C 338.445 1083.878, 349.118 1071.124, 337 1071.812 C 187.476 1080.301, 187.805 1080.575, 188.493 948.411 C 189.093 833.100, 189.445 819, 191.727 819 C 192.154 819, 193.592 816.862, 194.923 814.250 C 198.358 807.507, 206.601 792.721, 211.507 784.500 C 213.804 780.650, 217.605 773.675, 219.953 769 C 222.301 764.325, 225.464 758.250, 226.982 755.500 C 235.750 739.615, 246.958 718.694, 249.481 713.500 C 251.085 710.200, 253.361 705.925, 254.539 704 C 258.045 698.273, 261.941 691.179, 268.266 679 C 271.550 672.675, 275.476 665.250, 276.989 662.500 C 278.503 659.750, 280.079 656.411, 280.492 655.079 C 280.905 653.748, 282.694 650.373, 284.467 647.579 C 286.241 644.786, 292.023 633.609, 297.316 622.741 C 306.940 602.983, 306.940 602.983, 368.785 603.031 C 438.472 603.085, 437.615 603.173, 434.190 596.313 C 433.693 595.316, 432.529 593.051, 431.603 591.279 C 429.463 587.181, 429.260 587.231, 450.357 586.710 C 466.927 586.301, 471 587.475, 471 592.656 C 471 593.304, 471.337 593.983, 471.750 594.167 C 472.537 594.516, 484.138 617.511, 485.915 622.242 C 486.918 624.913, 486.746 625.097, 479.222 629.395 C 466.165 636.854, 460.422 645.053, 465.889 648.432 C 466.378 648.734, 467.084 650.223, 467.458 651.741 C 467.832 653.258, 471.293 661.025, 475.149 669 C 479.006 676.975, 482.538 684.400, 483 685.500 C 484.138 688.213, 489.623 700.260, 492.789 707 C 498.660 719.499, 498.867 718.875, 499.220 687.654 C 499.536 659.579, 499.529 659.600, 509.922 657.010 C 519.477 654.630, 518.929 656.322, 519.233 628.277 C 519.500 603.578, 519.500 603.578, 575.500 603.810 C 639.908 604.078, 641.978 603.963, 641.607 600.143 C 641.466 598.689, 641.774 596.940, 642.293 596.256 C 643.726 594.364, 639.422 591.413, 633.198 590.020 C 622.910 587.717, 629.682 587.502, 701.834 587.840 C 779.736 588.205, 784.127 588.722, 781.435 597.205 C 781.122 598.192, 781.346 599, 781.933 599 C 782.520 599, 783 598.565, 783 598.034 C 783 597.503, 785.812 600.071, 789.250 603.742 C 792.688 607.413, 798.875 613.958, 803 618.287 C 824.716 641.075, 824.375 641.034, 826.036 621 C 827.609 602.007, 823.009 603.320, 889.750 602.810 C 925.003 602.541, 933.708 602.046, 926.750 600.706 C 925.513 600.467, 927.117 600.211, 930.316 600.136 C 936.420 599.993, 939.320 598.959, 942.289 595.864 C 943.839 594.249, 943.866 594, 942.494 594 C 941.622 594, 939.784 592.875, 938.409 591.500 C 935.573 588.664, 932.035 588.335, 924.093 590.168 C 919.964 591.121, 918.523 591.075, 916.266 589.918 C 913.182 588.337, 944.053 586.714, 948.715 588.212 C 949.933 588.603, 951.197 588.491, 951.524 587.962 C 953.206 585.240, 976.002 586.909, 975.948 589.750 C 975.895 592.500, 975.895 592.500, 974.326 590.250 C 970.825 585.231, 966.857 587.180, 967.200 593.750 C 967.392 597.436, 967.949 599.545, 968.750 599.625 C 969.438 599.694, 970.450 599.806, 971 599.875 C 971.550 599.944, 972.041 600.788, 972.090 601.750 C 972.140 602.712, 972.590 602.085, 973.091 600.357 C 975.312 592.691, 977 595.537, 977 606.950 C 977 625.553, 977.578 625.575, 993.467 607.582 C 996.749 603.866, 1000.108 599.852, 1000.932 598.662 C 1003.729 594.624, 1005.844 592.785, 1006.923 593.453 C 1007.559 593.846, 1008 593.275, 1008 592.059 C 1008 589.356, 1010.031 589.403, 1010.742 592.123 C 1011.262 594.110, 1011.719 594.201, 1017.899 593.547 C 1021.529 593.162, 1026.968 592.626, 1029.986 592.355 C 1035.491 591.860, 1036.779 591.446, 1035.813 590.480 C 1034.891 589.557, 1023.656 589.704, 1018.304 590.709 C 1012.752 591.751, 1009.261 590.813, 1012 589.015 C 1012.943 588.397, 1036.261 588.025, 1074.750 588.015 C 1143.681 587.998, 1139.059 587.467, 1140.580 595.577 C 1141.147 598.596, 1141.445 598.955, 1142.227 597.559 C 1143.097 596.004, 1143.334 595.993, 1144.921 597.428 C 1146.916 599.234, 1149.819 595.576, 1148.702 592.665 C 1147.774 590.246, 1150.232 588.108, 1154.750 587.406 C 1159.676 586.639, 1160.760 588.455, 1156 589.500 C 1152.857 590.190, 1151.260 600.807, 1154.041 602.525 C 1154.613 602.879, 1154.801 604.052, 1154.458 605.132 C 1153.330 608.686, 1155.936 610.447, 1158.398 607.794 C 1160.500 605.527, 1160.500 605.527, 1161 609.936 C 1161.568 614.941, 1163.979 616.845, 1164.035 612.333 C 1164.055 610.775, 1164.650 608.457, 1165.357 607.182 C 1167.298 603.683, 1169.328 606.608, 1168.473 611.674 C 1167.802 615.654, 1168.753 614.939, 1177.013 605.250 C 1177.777 604.354, 1182.242 604.004, 1192.789 604.013 C 1245.510 604.058, 1262 602.730, 1262 598.437 C 1262 597.267, 1262.900 595.495, 1264 594.500 C 1267.116 591.680, 1266.547 591.306, 1258.017 590.562 C 1243.802 589.322, 1248.841 586.861, 1264.166 587.559 C 1269.808 587.816, 1272.134 587.544, 1272.978 586.527 C 1273.755 585.591, 1275.282 585.334, 1277.717 585.729 C 1280.296 586.147, 1281.109 585.986, 1280.596 585.156 C 1280.203 584.520, 1279.178 584, 1278.319 584 C 1277.042 584, 1276.984 583.725, 1278 582.500 C 1278.685 581.675, 1279.928 581, 1280.762 581 C 1281.597 581, 1282.818 580.264, 1283.475 579.365 C 1284.931 577.373, 1284.255 573, 1282.490 573 C 1281.788 573, 1280.955 572.325, 1280.638 571.500 C 1279.901 569.579, 1277.108 569.554, 1276.376 571.462 C 1275.898 572.709, 1275.497 572.725, 1273.657 571.568 C 1271.942 570.490, 1259.842 570.068, 1214.662 569.511 C 1183.400 569.125, 1156.538 568.441, 1154.966 567.990 C 1153.042 567.438, 1151.954 567.551, 1151.634 568.336 C 1151.372 568.976, 1151.122 568.436, 1151.079 567.136 C 1150.926 562.561, 1146.932 557.132, 1142.575 555.578 C 1138.270 554.043, 539.054 552.836, 359.323 554 M 1322.073 553.688 C 1319.097 554.298, 1315.463 556.569, 1311.500 560.296 C 1306.292 565.194, 1294.564 570, 1287.818 570 C 1284.395 570, 1283.972 572.760, 1286.978 575.480 C 1290.692 578.841, 1294.230 587.270, 1295.381 595.500 C 1296.715 605.039, 1292.324 604.492, 1357 603.172 C 1404.179 602.209, 1407.107 601.835, 1402.617 597.344 C 1401.178 595.905, 1400 594.079, 1400 593.287 C 1400 592.454, 1401.093 593.145, 1402.589 594.923 C 1404.013 596.615, 1406.061 598, 1407.140 598 C 1408.883 598, 1408.794 597.714, 1406.346 595.445 C 1403.981 593.253, 1403.761 592.612, 1404.803 590.945 C 1406.204 588.701, 1406.063 588.645, 1402.451 590.019 C 1400.170 590.886, 1399.863 590.800, 1400.386 589.437 C 1400.724 588.557, 1401 587.648, 1401 587.418 C 1401 585.743, 1405.918 587.560, 1408.007 590.008 C 1415.397 598.667, 1426.331 610.280, 1432.882 616.428 C 1441.373 624.397, 1439.933 625.375, 1467.046 593.244 C 1476.161 582.442, 1618.500 584.093, 1618.500 595 C 1618.500 602.500, 1618.500 602.500, 1667.886 602.760 C 1717.165 603.018, 1720.597 602.813, 1719.451 599.677 C 1718.774 597.822, 1721.754 590.468, 1723.054 590.787 C 1723.698 590.946, 1724.813 590.271, 1725.531 589.287 C 1727.908 586.036, 1822.547 586.058, 1823.363 589.309 C 1823.689 590.610, 1823.969 637.535, 1823.985 693.587 C 1824 749.639, 1824.209 799.100, 1824.448 803.500 C 1825.713 826.758, 1826.027 846.492, 1826.111 908 C 1826.218 985.975, 1826.407 978, 1824.454 978 C 1823.604 978, 1808.356 992.672, 1790.571 1010.605 C 1765.297 1036.088, 1757.827 1043.080, 1756.367 1042.617 C 1751.323 1041.019, 1490.220 1041.900, 1455.250 1043.633 C 1442.367 1044.272, 1438.646 1047.750, 1444.845 1053.360 C 1447.639 1055.888, 1775.528 1055.416, 1781 1052.875 C 1785.420 1050.823, 1790.282 1046.217, 1801.978 1033 C 1807.088 1027.225, 1814.024 1019.575, 1817.392 1016 C 1820.760 1012.425, 1826.200 1006.350, 1829.482 1002.500 C 1832.763 998.650, 1840.044 990.741, 1845.661 984.925 C 1851.278 979.109, 1856.140 973.259, 1856.465 971.925 C 1858.165 964.951, 1856.510 557.081, 1854.774 555.346 C 1853.101 553.673, 1330.092 552.045, 1322.073 553.688 M 1194.310 628.033 C 1191.912 628.973, 1186.898 633.663, 1158.553 661.485 C 1135.296 684.313, 1126.844 939.133, 1148.622 960.894 C 1154.055 966.323, 1165.189 977.555, 1173.365 985.854 C 1188.229 1000.943, 1188.229 1000.943, 1282.365 1000.899 C 1401.490 1000.843, 1391.271 1001.775, 1402.926 989.896 C 1419.043 973.470, 1433.383 958.459, 1436.740 954.500 C 1440.981 949.500, 1440.981 949.500, 1441.046 911.500 C 1441.241 797.921, 1440.806 677.478, 1440.197 676.410 C 1438.899 674.132, 1394.827 629.509, 1392.656 628.273 C 1390.098 626.817, 1198.009 626.585, 1194.310 628.033 M 1534.354 627.875 C 1526.838 628.639, 1529.571 626.341, 1496.757 659.487 C 1470.349 686.161, 1454.732 789.109, 1474.250 807.849 C 1476.588 810.093, 1482.775 816.031, 1488 821.045 C 1493.225 826.059, 1504.373 836.979, 1512.774 845.312 C 1528.048 860.463, 1528.048 860.463, 1606.370 860.155 C 1684.692 859.847, 1684.692 859.847, 1685.340 868.173 C 1686.909 888.328, 1686.548 890.935, 1681.250 897.745 C 1668.778 913.775, 1678.521 912.438, 1570.063 913 C 1455.160 913.595, 1471 906.559, 1471 957 C 1471 1007.452, 1442.379 1001.246, 1667 999.500 C 1695.325 999.280, 1723.717 999.077, 1730.094 999.050 C 1743.545 998.992, 1740.089 1001.427, 1767 973.049 C 1775.525 964.060, 1783.664 955.529, 1785.086 954.093 C 1790.144 948.985, 1790 951.093, 1790 882.388 C 1790 817.645, 1790 817.645, 1782.750 810.541 C 1766.054 794.183, 1741.673 771.452, 1740.145 770.820 C 1739.240 770.446, 1704.714 770.109, 1663.419 770.070 C 1588.338 770, 1588.338 770, 1586.972 767.448 C 1586.221 766.044, 1582.995 762.615, 1579.803 759.828 C 1570.134 751.385, 1570.932 735.333, 1581.554 724.607 C 1589.108 716.979, 1589.108 716.979, 1656.804 717.163 C 1739.414 717.386, 1739.981 717.331, 1734 709.727 C 1732.900 708.329, 1732 706.953, 1732 706.671 C 1732 706.256, 1755.145 676.747, 1758.964 672.292 C 1759.534 671.628, 1760 670.653, 1760 670.126 C 1760 669.598, 1760.356 669.017, 1760.792 668.833 C 1761.228 668.650, 1764.096 665.350, 1767.167 661.500 C 1770.237 657.650, 1775.722 651.516, 1779.354 647.869 C 1787.894 639.295, 1791.032 630.475, 1786.250 628.486 C 1784.095 627.590, 1542.903 627.005, 1534.354 627.875 M 359.777 628.750 C 323.171 629.041, 320 629.757, 320 637.732 C 320 638.429, 319.550 639, 319 639 C 318.450 639, 318 639.466, 318 640.035 C 318 640.604, 316.030 644.541, 313.623 648.785 C 305.902 662.393, 298.279 676.730, 286.124 700.500 C 283.031 706.550, 280.275 711.725, 280 712 C 279.194 712.806, 275.174 720.059, 272.242 726 C 270.749 729.025, 269.241 731.725, 268.890 732 C 268.540 732.275, 266.234 736.325, 263.765 741 C 261.297 745.675, 257.910 752.016, 256.237 755.090 C 254.565 758.165, 250.737 765.365, 247.730 771.090 C 244.723 776.816, 241.243 783.300, 239.995 785.500 C 238.748 787.700, 236.186 792.345, 234.302 795.822 C 232.418 799.299, 228.502 806.274, 225.601 811.322 C 212.265 834.527, 213.500 822.625, 213.500 927.958 C 213.500 1019.947, 234.563 1042.124, 302.250 1021.401 C 303.876 1020.903, 304 1018.212, 304 983.433 C 304 946, 304 946, 362.556 946 C 421.113 946, 421.113 946, 420.806 971.750 C 420.638 985.913, 420.864 998.063, 421.309 998.750 C 422.485 1000.568, 510.844 1000.566, 513.330 998.748 C 518.093 995.265, 514.948 823.151, 509.944 813.389 C 502.415 798.701, 495.934 785.757, 457.682 709 C 414.457 622.264, 418.171 627.923, 404.677 628.237 C 399.080 628.367, 378.875 628.598, 359.777 628.750 M 651.597 628.750 C 527.679 629.059, 544.922 621.418, 545.240 675.881 C 545.500 720.500, 545.500 720.500, 622 721 C 706.618 721.553, 698.975 720.902, 706.771 728.216 C 719.915 740.544, 720.269 741.172, 721.242 753.863 C 723.301 780.730, 722.046 784.383, 705.715 799.080 C 694.692 809, 694.692 809, 619.990 809 C 545.289 809, 545.289 809, 544.652 815.750 C 543.352 829.510, 543.902 997.680, 545.250 998.714 C 547.236 1000.237, 634.717 1000.480, 636.540 998.967 C 637.784 997.935, 638 990.516, 638 948.878 C 638 900, 638 900, 654.500 900 C 663.575 900, 671.297 899.888, 671.660 899.750 C 672.220 899.538, 684.120 921.786, 693.724 941 C 695.236 944.025, 696.708 946.725, 696.996 947 C 697.284 947.275, 701.062 954.475, 705.393 963 C 709.723 971.525, 715.214 982.100, 717.594 986.500 C 719.974 990.900, 722.374 995.400, 722.927 996.500 C 725.375 1001.372, 726.833 1002.427, 729.298 1001.108 C 730.998 1000.198, 735.487 1000.024, 746.060 1000.456 C 774.794 1001.631, 827 999.964, 827 997.872 C 827 996.228, 818.282 977.202, 816.977 976 C 816.679 975.725, 812.124 966.950, 806.856 956.500 C 801.587 946.050, 795.037 933.225, 792.300 928 C 789.563 922.775, 784.261 912.650, 780.518 905.500 C 776.776 898.350, 771.936 889.350, 769.763 885.500 C 763.872 875.062, 763.290 876.376, 782.500 856.758 C 802.225 836.616, 808.907 829.068, 818 816.659 C 835.031 793.418, 816.762 685.456, 791.500 660.055 C 765.368 633.780, 758.582 627.633, 756.382 628.245 C 755.897 628.380, 708.744 628.607, 651.597 628.750 M 883 628.980 C 821.149 629.940, 832.278 999.400, 894.168 999.760 C 949.280 1000.081, 941.986 1007.024, 942.058 954.179 C 942.125 903.986, 942.048 904.709, 947.838 900.293 C 953.275 896.146, 953.277 896.146, 956.751 901.250 C 958.343 903.587, 962.650 909.916, 966.322 915.312 C 969.995 920.709, 973 925.399, 973 925.734 C 973 926.068, 973.745 927.165, 974.655 928.171 C 976.172 929.847, 976.174 930, 974.685 930 C 973.791 930, 972.034 928.203, 970.780 926.008 C 968.437 921.906, 967.562 921.282, 966.518 922.971 C 965.884 923.997, 967.211 926.658, 972.020 934 C 973.641 936.475, 975.282 939.175, 975.667 940 C 976.051 940.825, 977.741 943.300, 979.422 945.500 C 981.104 947.700, 982.621 949.712, 982.794 949.971 C 982.967 950.230, 983.488 949.828, 983.952 949.077 C 985.020 947.349, 983.328 942.340, 981.430 941.612 C 980.644 941.310, 980 940.368, 980 939.518 C 980 937.756, 977.976 933.841, 976.529 932.804 C 975.995 932.422, 975.882 931.784, 976.279 931.388 C 976.676 930.991, 977.125 930.854, 977.277 931.083 C 977.430 931.312, 981.142 936.805, 985.527 943.289 C 997.269 960.651, 999.308 964.027, 998.523 964.801 C 998.133 965.185, 996.308 963.711, 994.467 961.523 C 989.731 955.897, 988.903 957.940, 993.575 963.725 C 995.696 966.351, 997.809 968.766, 998.269 969.092 C 998.729 969.417, 999.029 970.092, 998.934 970.592 C 998.222 974.372, 1000.956 976.845, 1002.428 973.750 C 1002.755 973.063, 1002.838 973.497, 1002.614 974.715 C 1002.333 976.239, 1002.797 977.118, 1004.103 977.533 C 1005.146 977.864, 1006 978.989, 1006 980.032 C 1006 981.076, 1006.935 982.430, 1008.078 983.042 C 1009.267 983.678, 1009.922 984.762, 1009.609 985.577 C 1009.309 986.360, 1009.499 987, 1010.031 987 C 1011.820 987, 1011.022 983.180, 1008.637 980.327 C 1007.337 978.772, 1005.990 976.600, 1005.643 975.500 C 1005.296 974.400, 1003.884 972.193, 1002.506 970.594 C 1001.128 968.996, 1000 967.240, 1000 966.691 C 1000 965.741, 1001.380 967.176, 1005.250 972.156 C 1006.212 973.394, 1007 974.953, 1007 975.620 C 1007 976.287, 1007.349 976.983, 1007.775 977.167 C 1008.201 977.350, 1010.366 980.200, 1012.586 983.500 C 1018.098 991.694, 1018.260 992, 1017.091 992 C 1016.526 992, 1015.358 990.763, 1014.495 989.250 C 1013.054 986.723, 1012.980 986.697, 1013.586 988.923 C 1014.486 992.234, 1017.586 995.479, 1018.474 994.042 C 1019.202 992.864, 1023 996.923, 1023 998.878 C 1023 1001.180, 1128.642 1000.764, 1130.949 998.453 C 1131.870 997.530, 1124.076 983.799, 1120.073 979.292 C 1119.483 978.628, 1119 977.853, 1119 977.570 C 1119 977.287, 1116.352 973.105, 1113.116 968.277 C 1109.881 963.450, 1103.954 954.100, 1099.946 947.500 C 1095.938 940.900, 1092.285 935.350, 1091.829 935.167 C 1091.373 934.983, 1091 934.454, 1091 933.990 C 1091 933.526, 1088.644 929.626, 1085.765 925.323 C 1082.885 921.021, 1080.073 916.722, 1079.515 915.772 C 1075.761 909.378, 1070.491 901.447, 1069.811 901.167 C 1069.365 900.983, 1069 900.349, 1069 899.758 C 1069 898.668, 1062.869 888.886, 1049.095 868 C 1044.923 861.675, 1041.058 855.754, 1040.505 854.842 C 1039.952 853.930, 1037.138 849.368, 1034.250 844.703 C 1027.365 833.581, 1026.593 835.578, 1046.882 812 C 1050.432 807.875, 1055.249 802.250, 1057.587 799.500 C 1062.506 793.714, 1075.989 777.971, 1082.808 770.051 C 1085.389 767.054, 1089.060 762.554, 1090.966 760.051 C 1092.872 757.548, 1095.867 753.925, 1097.622 752 C 1111.150 737.159, 1110.472 740.734, 1110.784 682.611 C 1111.011 640.348, 1110.809 629.496, 1109.784 628.845 C 1109.078 628.397, 1103.382 628.024, 1097.126 628.015 C 1084.279 627.998, 1080.901 630.693, 1053.899 662.500 C 1052.031 664.700, 1050.228 666.725, 1049.891 667 C 1049.554 667.275, 1046.014 671.325, 1042.023 676 C 1038.032 680.675, 1032.436 686.975, 1029.586 690 C 1026.737 693.025, 1020.405 700, 1015.515 705.500 C 1010.625 711, 1005.922 716.206, 1005.062 717.068 C 1004.203 717.930, 1000.800 721.738, 997.500 725.529 C 990.569 733.491, 984.570 740.216, 981 744.023 C 979.625 745.490, 977.586 747.772, 976.469 749.095 C 975.352 750.418, 970.852 755.609, 966.469 760.632 C 962.086 765.654, 957.375 771.228, 956 773.018 C 940.378 793.352, 942.010 800.707, 942.005 709.950 C 941.999 617.877, 943.714 627.918, 928.050 628.230 C 921.697 628.356, 901.425 628.694, 883 628.980 M 1294.507 717.750 C 1239.555 718.136, 1201.748 857.706, 1244.513 902.309 C 1248.631 906.603, 1252 910.541, 1252 911.059 C 1252 911.628, 1265.282 912, 1285.656 912 C 1324.311 912, 1323.274 912.307, 1334.533 897.546 C 1337.851 893.196, 1338.552 716.789, 1335.250 717.238 C 1334.287 717.369, 1315.953 717.599, 1294.507 717.750 M 363.812 748.218 C 361.939 751.673, 358.450 758.550, 356.058 763.500 C 350.486 775.033, 324.438 827.489, 317.916 840.310 C 309.118 857.606, 307.545 856.380, 337.597 855.645 C 351.844 855.296, 376.377 854.723, 392.116 854.371 C 420.732 853.732, 420.732 853.732, 416.482 845.116 C 412.358 836.754, 409.863 831.431, 404.711 820 C 401.616 813.135, 393.455 795.942, 386.435 781.500 C 383.495 775.450, 379.230 766.450, 376.958 761.500 C 374.687 756.550, 372.192 751.306, 371.414 749.846 C 370.636 748.386, 370 746.528, 370 745.718 C 370 740.939, 367.131 742.098, 363.812 748.218 M 682.667 1017.667 C 682.300 1018.033, 682 1022.928, 682 1028.544 C 682 1041.604, 682.953 1040.958, 662.859 1041.531 C 653.861 1041.788, 639.525 1042.309, 631 1042.690 C 622.475 1043.071, 565.550 1043.280, 504.500 1043.154 C 382.278 1042.901, 389.315 1042.490, 395.758 1049.506 C 400.344 1054.500, 400.344 1054.500, 542.709 1054.500 C 695.177 1054.500, 685.065 1054.812, 687.945 1050.023 C 688.725 1048.727, 689.429 1048.747, 693.667 1050.188 C 712.690 1056.655, 994.834 1056.023, 1001.358 1049.499 C 1002.006 1048.851, 1003.203 1048.021, 1004.018 1047.655 C 1004.833 1047.288, 1004.309 1047.213, 1002.854 1047.487 C 1001.081 1047.821, 1000.020 1047.494, 999.636 1046.493 C 999.321 1045.672, 998.261 1044.993, 997.281 1044.985 C 995.794 1044.972, 995.743 1044.816, 996.971 1044.039 C 1000.359 1041.896, 988.496 1040.256, 983.250 1042.142 C 982.013 1042.587, 981 1042.574, 981 1042.114 C 981 1041.654, 979.875 1041.492, 978.500 1041.755 C 977.125 1042.018, 976 1042.631, 976 1043.117 C 976 1043.602, 975.100 1044, 974 1044 C 972.667 1044, 972 1044.667, 972 1046 C 972 1048.432, 970.291 1048.573, 967.829 1046.345 C 966.122 1044.801, 966 1044.809, 966 1046.462 C 966 1047.811, 965.464 1048.090, 963.750 1047.630 C 962.513 1047.299, 960.188 1047.021, 958.583 1047.014 C 954.971 1046.997, 955.797 1046.002, 960.199 1045.067 C 964.254 1044.206, 867.573 1042.694, 819 1042.858 C 777.175 1043, 736.459 1044.088, 740 1044.970 C 744.358 1046.055, 739.768 1046.992, 729.668 1047.079 C 724.626 1047.122, 721.063 1047.385, 721.750 1047.662 C 722.438 1047.940, 723 1048.579, 723 1049.083 C 723 1050.396, 713.254 1050.220, 712.434 1048.893 C 711.956 1048.120, 711.461 1048.195, 710.788 1049.143 C 710.084 1050.137, 709.953 1049.918, 710.300 1048.325 C 710.602 1046.936, 710.353 1046.311, 709.610 1046.596 C 708.162 1047.152, 698.343 1036.204, 690.464 1025.250 C 684.538 1017.012, 683.921 1016.412, 682.667 1017.667 M 1177 1039.562 C 1177 1039.725, 1177.748 1040.605, 1178.662 1041.519 C 1179.989 1042.846, 1180.060 1043.345, 1179.016 1043.990 C 1178.297 1044.434, 1177.978 1045.499, 1178.306 1046.356 C 1178.797 1047.635, 1178.478 1047.752, 1176.520 1047.007 C 1175.075 1046.458, 1172.837 1046.473, 1170.840 1047.046 C 1169.028 1047.565, 1166.726 1047.731, 1165.725 1047.413 C 1164.723 1047.095, 1163.244 1047.382, 1162.438 1048.051 C 1161.481 1048.846, 1159.378 1049.049, 1156.381 1048.639 C 1152.449 1048.100, 1151.877 1048.237, 1152.399 1049.597 C 1152.814 1050.680, 1152.291 1051.394, 1150.754 1051.843 C 1145.945 1053.245, 1185.899 1053.990, 1296.395 1054.558 C 1415.737 1055.171, 1415.326 1055.183, 1411.394 1051.251 C 1410.611 1050.468, 1408.742 1048.178, 1407.241 1046.163 C 1405.740 1044.149, 1404.075 1042.189, 1403.542 1041.809 C 1403.009 1041.429, 1354.631 1041.370, 1296.036 1041.679 C 1203.898 1042.164, 1188.655 1042.039, 1183.250 1040.754 C 1179.813 1039.936, 1177 1039.400, 1177 1039.562 M 1139 1093.096 C 1139 1094.248, 1139.651 1096.386, 1140.446 1097.846 C 1144.972 1106.157, 1145.500 1108.429, 1145.500 1119.599 C 1145.500 1125.703, 1145.005 1131.778, 1144.400 1133.099 C 1140.664 1141.250, 1139.642 1146.761, 1142 1146.043 C 1142.825 1145.792, 1148.175 1145.683, 1153.888 1145.801 C 1160.235 1145.932, 1164.788 1145.591, 1165.590 1144.925 C 1166.313 1144.325, 1167.713 1144.088, 1168.702 1144.398 C 1172.580 1145.613, 1195.281 1147.364, 1210 1147.584 C 1240.409 1148.039, 1274.599 1149.691, 1280.697 1151.002 C 1287.574 1152.479, 1289.317 1151.856, 1290.404 1147.528 C 1297.463 1119.400, 1333.214 1111.593, 1355.233 1133.371 C 1360.795 1138.871, 1368 1150.319, 1368 1153.655 C 1368 1156.339, 1372.331 1158.501, 1377.864 1158.580 C 1385.802 1158.694, 1393.139 1160.295, 1397.493 1162.863 C 1400.380 1164.566, 1401.533 1164.802, 1402.609 1163.909 C 1403.625 1163.066, 1404.738 1163.046, 1406.749 1163.834 C 1408.262 1164.426, 1411.750 1165.201, 1414.500 1165.556 C 1419.890 1166.251, 1426.605 1168.203, 1431.659 1170.544 C 1435.710 1172.421, 1438.036 1172.494, 1446 1170.996 C 1479.996 1164.602, 1516.583 1169.627, 1529.408 1182.452 C 1538.612 1191.655, 1544.233 1218.167, 1538.250 1224.150 C 1536.070 1226.330, 1536.879 1229.590, 1541.206 1236.070 C 1553.775 1254.893, 1532.951 1294.589, 1498.519 1317.444 C 1493.311 1320.900, 1493.296 1320.926, 1492.707 1327.230 C 1491.437 1340.835, 1485.370 1359.155, 1479.559 1366.935 C 1441.505 1417.884, 1366.354 1405.210, 1359.008 1346.604 C 1357.357 1333.433, 1351.968 1329.657, 1335.500 1330.131 C 1332.200 1330.226, 1324.325 1329.770, 1318 1329.117 C 1311.675 1328.464, 1298.400 1327.530, 1288.500 1327.042 C 1278.600 1326.554, 1268.025 1325.695, 1265 1325.133 C 1251.250 1322.579, 1130.378 1319.777, 1078.142 1320.801 C 1062.783 1321.103, 1062.783 1321.103, 1053.744 1329.930 C 1037.570 1345.723, 1020.979 1350.711, 1006.500 1344.132 C 999.737 1341.059, 992.079 1338.108, 989.452 1337.563 C 985.865 1336.818, 982.242 1333.666, 978.171 1327.748 C 975.230 1323.473, 975.230 1323.473, 965.865 1322.199 C 954.364 1320.633, 945.530 1314.624, 939.700 1304.402 C 938.163 1301.707, 935.447 1303.099, 928.500 1310.143 C 917.243 1321.558, 910.715 1325.828, 893.500 1333.039 C 885.732 1336.292, 875.809 1337.784, 857.500 1338.450 C 844.702 1338.916, 830.838 1341.336, 802.216 1348.098 C 795.459 1349.694, 788.484 1351, 786.714 1351 C 784.945 1351, 777.962 1352.125, 771.197 1353.500 C 764.433 1354.875, 756.178 1356, 752.853 1356 C 749.431 1356, 745.657 1356.634, 744.154 1357.460 C 741.847 1358.730, 735.354 1361.383, 723.198 1366.025 C 721.381 1366.719, 716.206 1370.935, 711.698 1375.394 C 703.853 1383.153, 703.091 1383.637, 694 1386.644 C 679.370 1391.482, 676.582 1392.201, 661 1395.151 C 653.444 1396.581, 633.161 1395.456, 630.983 1393.485 C 630.081 1392.668, 629.029 1392, 628.645 1392 C 628.261 1392, 624.046 1389.525, 619.278 1386.500 C 608.448 1379.629, 608.006 1379.654, 599.563 1387.622 C 571.869 1413.755, 541.648 1423.922, 520.603 1414.184 C 488.360 1399.264, 486.451 1355.745, 517.126 1334.914 C 525 1329.567, 526.805 1326.561, 531.401 1311.135 C 533.900 1302.750, 533.624 1301.611, 528.250 1298.140 C 523.388 1295, 519.314 1290.442, 517.400 1286 C 516.807 1284.625, 514.900 1280.529, 513.161 1276.899 C 511.423 1273.268, 510 1269.420, 510 1268.349 C 510 1267.277, 509.580 1265.972, 509.067 1265.450 C 502.158 1258.412, 515.795 1209.777, 528.437 1196.373 C 529.022 1195.752, 530.175 1194.178, 531 1192.873 C 533.516 1188.896, 551.156 1171.126, 557 1166.682 C 560.025 1164.382, 563.095 1161.938, 563.821 1161.250 C 564.548 1160.563, 565.748 1160, 566.488 1160 C 567.228 1160, 567.983 1159.661, 568.167 1159.247 C 570.371 1154.270, 614.819 1138, 626.213 1138 C 629.256 1138, 632.451 1137.391, 633.524 1136.606 C 635.744 1134.983, 652.779 1135.357, 659.500 1137.176 C 665.752 1138.869, 672.407 1141.249, 673.450 1142.165 C 673.973 1142.624, 675.194 1143, 676.165 1143 C 677.136 1143, 679.468 1144.350, 681.347 1146 C 683.226 1147.650, 685.048 1149, 685.395 1149 C 685.986 1149, 693.998 1157.038, 696.740 1160.382 C 697.421 1161.213, 699.599 1164.841, 701.579 1168.443 C 706.021 1176.524, 706.037 1176.533, 711.546 1174.429 C 714.020 1173.484, 716.296 1172.963, 716.604 1173.271 C 716.911 1173.578, 718.648 1173.209, 720.463 1172.451 C 722.277 1171.693, 726.259 1171.102, 729.311 1171.139 C 736.011 1171.219, 740 1168.088, 740 1162.747 C 740 1161.759, 741.974 1156.952, 744.824 1151 C 749.860 1140.483, 761.721 1133.718, 778.159 1131.988 C 784.396 1131.332, 789.821 1130.600, 790.214 1130.361 C 791.184 1129.771, 803.263 1132.924, 804.450 1134.077 C 804.973 1134.585, 806.225 1135, 807.234 1135 C 809.442 1135, 821.702 1146.482, 822.631 1149.420 C 825.627 1158.901, 847 1169.026, 847 1160.965 C 847 1159.596, 854.652 1159.766, 856.925 1161.185 C 858.387 1162.098, 859.729 1162.098, 862.777 1161.185 C 864.952 1160.533, 868.644 1160, 870.982 1160 C 874.779 1160, 882.871 1157.975, 887.040 1155.982 C 892.532 1153.355, 917 1153.855, 917 1156.594 C 917 1158.662, 919.768 1158.307, 920.452 1156.152 C 921.743 1152.082, 935.565 1149.890, 946.866 1151.963 C 953.909 1153.254, 955.940 1152.305, 959.098 1146.248 C 966.640 1131.779, 984.731 1112.073, 999.719 1102 C 1010.433 1094.799, 1008.947 1094.035, 981.862 1092.821 C 941.142 1090.996, 931.708 1093.414, 924.500 1107.529 C 918.382 1119.510, 905.820 1120.627, 898.877 1109.809 C 894.993 1103.756, 893.063 1102.702, 886.051 1102.801 C 880.357 1102.882, 878.345 1103.267, 864.552 1106.916 C 851.561 1110.354, 840.357 1110.057, 834.525 1106.122 C 816.780 1094.146, 807.788 1091.604, 785.365 1092.225 C 763.212 1092.839, 751.299 1096.057, 738.048 1105.008 C 731.629 1109.344, 709.766 1120.546, 705.822 1121.520 C 701.787 1122.516, 699.800 1120.781, 698.311 1114.962 C 695.566 1104.238, 692.462 1101.220, 681.861 1098.970 C 672.219 1096.924, 653.068 1099.614, 639.003 1104.989 C 627.393 1109.425, 625.068 1109.746, 621.499 1107.407 C 619.686 1106.220, 615.434 1105.673, 604.784 1105.257 C 591.299 1104.732, 590.169 1104.528, 584.586 1101.611 C 563.524 1090.610, 524.694 1111.274, 515.827 1138.203 C 513.289 1145.911, 513.210 1145.989, 499 1154.763 C 475.445 1169.308, 467.163 1183.033, 468.334 1205.586 C 468.909 1216.673, 468.909 1216.673, 464.570 1220.931 C 448.518 1236.685, 447.602 1271.025, 462.468 1299.749 C 469.075 1312.514, 468.997 1311.626, 463.928 1316.547 C 451.211 1328.891, 445.778 1342.881, 446.087 1362.486 C 446.234 1371.833, 445.941 1374.181, 444.152 1378 C 439.764 1387.367, 442.204 1408.082, 449.254 1421.321 C 455.023 1432.152, 473.929 1445.489, 488.661 1449.118 C 494.199 1450.483, 494.996 1450.958, 501.430 1456.723 C 518.782 1472.270, 556.721 1472.889, 583.500 1458.062 C 597.745 1450.175, 603.051 1447.046, 608.730 1443.187 C 617.416 1437.284, 617.027 1437.307, 626.716 1442.107 C 654.086 1455.665, 716.768 1439.065, 741.534 1411.699 C 747.145 1405.500, 747.145 1405.500, 760.822 1405.418 C 772.381 1405.349, 776.746 1404.836, 789 1402.107 C 796.975 1400.330, 808.225 1398.039, 814 1397.016 C 827.686 1394.592, 832.137 1393.542, 840 1390.881 C 845.665 1388.964, 848.812 1388.664, 864.500 1388.549 C 883.212 1388.412, 884.409 1388.226, 903 1382.552 C 912.977 1379.508, 917.814 1378.452, 935 1375.570 C 942.975 1374.232, 950.293 1372.831, 951.263 1372.457 C 952.515 1371.973, 953.818 1372.707, 955.763 1374.992 C 970.511 1392.318, 975.806 1395.324, 992.479 1395.843 C 1001.440 1396.121, 1005.089 1395.770, 1012 1393.962 C 1018.168 1392.348, 1025.026 1391.542, 1037 1391.026 C 1058.100 1390.116, 1065.244 1387.520, 1075.453 1377.053 C 1079.406 1373, 1079.406 1373, 1089.953 1372.977 C 1095.754 1372.965, 1106.125 1372.516, 1113 1371.980 C 1121.175 1371.343, 1134.151 1371.350, 1150.500 1372.002 C 1171.308 1372.831, 1215.096 1373.341, 1226.500 1372.887 C 1228.150 1372.821, 1236.912 1373.344, 1245.971 1374.049 C 1258.479 1375.023, 1264.020 1375.061, 1269 1374.207 C 1274.451 1373.272, 1276.314 1373.344, 1280.029 1374.634 C 1282.823 1375.604, 1289.752 1376.387, 1298.500 1376.721 C 1312.464 1377.253, 1316 1378.206, 1316 1381.433 C 1316 1392.961, 1346.218 1429.165, 1362.787 1437.487 C 1377.095 1444.673, 1409.294 1449.009, 1419.315 1445.099 C 1420.863 1444.494, 1427.163 1443.988, 1433.315 1443.974 C 1440.917 1443.957, 1447.223 1443.308, 1453 1441.950 C 1457.675 1440.850, 1465.653 1439.524, 1470.728 1439.003 C 1484.744 1437.564, 1487.955 1435.519, 1503 1418.453 C 1529.959 1387.872, 1532.362 1383.414, 1532.446 1363.820 C 1532.500 1351.141, 1532.500 1351.141, 1540.030 1343.820 C 1559.935 1324.469, 1577.909 1305.082, 1581.121 1299.500 C 1593.782 1277.492, 1595.548 1263.921, 1587.873 1247.600 C 1585.220 1241.959, 1585.165 1241.542, 1586.625 1238.100 C 1595.003 1218.339, 1593.430 1198.742, 1582.294 1184.140 C 1580.281 1181.501, 1579.690 1179.622, 1579.767 1176.098 C 1580.084 1161.581, 1573.118 1150.148, 1560.315 1144.172 C 1548.990 1138.885, 1548.556 1138.565, 1546.316 1133.841 C 1538.180 1116.687, 1483.034 1108.313, 1464.077 1121.353 C 1456.585 1126.507, 1455.137 1126.666, 1442.978 1123.673 C 1435.418 1121.811, 1428.165 1120.846, 1418.159 1120.368 C 1404.022 1119.693, 1404.022 1119.693, 1399.166 1113.038 C 1391.871 1103.039, 1380.162 1100.248, 1332.500 1097.143 C 1324.250 1096.606, 1310.075 1095.413, 1301 1094.491 C 1283.601 1092.724, 1279.191 1093.072, 1271.229 1096.842 C 1268.233 1098.260, 1267.330 1098.234, 1260.461 1096.523 C 1247.955 1093.409, 1233.531 1093.771, 1228.500 1097.326 C 1225.401 1099.515, 1223.824 1100.011, 1221.500 1099.527 C 1219.850 1099.183, 1215.350 1098.671, 1211.500 1098.389 C 1206.590 1098.030, 1203.007 1097.085, 1199.500 1095.225 C 1194.822 1092.745, 1193.339 1092.528, 1176.500 1091.864 C 1143.023 1090.544, 1139 1090.676, 1139 1093.096 M 1065 1102.619 C 1058.701 1104.266, 1057.993 1104.537, 1048.500 1108.932 C 1042.276 1111.814, 1032.352 1117.510, 1031 1118.977 C 1030.725 1119.275, 1028.700 1120.709, 1026.500 1122.164 C 1024.300 1123.618, 1021.128 1126.089, 1019.452 1127.654 C 1017.776 1129.219, 1015.056 1131.631, 1013.408 1133.013 C 1007.004 1138.381, 994.564 1153.179, 986.939 1164.497 C 980.441 1174.142, 970 1194.740, 970 1197.915 C 970 1198.527, 969.576 1199.809, 969.059 1200.764 C 968.541 1201.719, 967.367 1205.200, 966.449 1208.500 C 965.531 1211.800, 964.197 1216.525, 963.483 1219 C 947.843 1273.228, 988.868 1311.412, 1022.750 1274.163 C 1025.539 1271.096, 1025.571 1272.026, 1022.916 1279.014 C 1021.769 1282.031, 1020.566 1285.388, 1020.241 1286.473 C 1019.916 1287.558, 1019.057 1289.583, 1018.331 1290.973 C 1017.606 1292.363, 1017.010 1294.027, 1017.006 1294.671 C 1017.003 1295.315, 1015.411 1299.590, 1013.470 1304.171 C 1007.078 1319.252, 1018.431 1327.099, 1027.996 1314.211 C 1034.164 1305.901, 1044 1290.642, 1044 1289.385 C 1044 1288.715, 1044.352 1288.017, 1044.782 1287.833 C 1045.818 1287.392, 1051.490 1273.935, 1053.564 1267 C 1054.468 1263.975, 1056.263 1258.575, 1057.552 1255 C 1065.215 1233.749, 1069 1218.397, 1069 1208.569 C 1069 1204.406, 1069.338 1200.999, 1069.750 1200.998 C 1072.692 1200.988, 1080.358 1191.097, 1079.386 1188.564 C 1078.624 1186.577, 1058.774 1187.083, 1056.716 1189.141 C 1055.676 1190.181, 1051.852 1191.197, 1046.287 1191.912 C 1041.454 1192.533, 1036.118 1193.482, 1034.429 1194.021 C 1032.740 1194.559, 1030.478 1195, 1029.402 1195 C 1018.816 1195, 1020.793 1206.324, 1031.500 1207.021 C 1038.736 1207.493, 1039.572 1210, 1032.494 1210 C 1031.737 1210, 1030.840 1210.450, 1030.500 1211 C 1029.662 1212.356, 1024.669 1212.269, 1023.273 1210.873 C 1020.117 1207.717, 1014.704 1213.001, 1015.709 1218.259 C 1017.224 1226.181, 1034.236 1226.906, 1041.773 1219.370 C 1042.526 1218.617, 1043.561 1218, 1044.071 1218 C 1045.308 1218, 1045.259 1219.722, 1044 1220.500 C 1043.450 1220.840, 1043 1222.104, 1042.999 1223.309 C 1042.995 1235.992, 1011.964 1269, 1000.046 1269 C 990.927 1269, 985.408 1240.956, 991.976 1228 C 992.395 1227.175, 993.048 1224.700, 993.429 1222.500 C 994.953 1213.690, 1004.921 1189.960, 1012.332 1177.500 C 1035.496 1138.553, 1073.754 1108.701, 1083.927 1121.635 C 1090.163 1129.562, 1078.945 1153.143, 1064.018 1163.488 C 1053.375 1170.863, 1066.762 1174.165, 1080.384 1167.524 C 1127.346 1144.630, 1114.332 1089.725, 1065 1102.619 M 1323.334 1153.273 C 1311.889 1159.757, 1315.147 1180, 1327.636 1180 C 1338.341 1180, 1344.119 1170.376, 1339.394 1160.417 C 1336.679 1154.697, 1327.795 1150.745, 1323.334 1153.273 M 772.762 1167.702 C 771.806 1168.763, 770.757 1171.177, 770.431 1173.066 C 770.105 1174.955, 769.474 1177.400, 769.029 1178.500 C 768.585 1179.600, 767.452 1183.425, 766.512 1187 C 763.158 1199.760, 758.458 1207, 753.527 1207 C 752.672 1207, 751.191 1207.406, 750.236 1207.902 C 749.281 1208.398, 746.700 1209.185, 744.500 1209.652 C 739.391 1210.735, 738.534 1214.274, 742.482 1217.983 C 745.224 1220.559, 744.840 1220.579, 756.186 1217.289 C 757.750 1216.836, 757.763 1217.188, 756.366 1222.150 C 755.539 1225.093, 754.495 1228.850, 754.048 1230.500 C 753.601 1232.150, 752.225 1237.100, 750.990 1241.500 C 749.756 1245.900, 748.411 1251.075, 748.001 1253 C 746.223 1261.345, 741.601 1273.818, 736.162 1284.945 C 727.795 1302.061, 703.245 1317.371, 697.989 1308.750 C 695.152 1304.097, 695.205 1304.002, 703.847 1298.286 C 740.694 1273.915, 751.792 1225.424, 720.500 1225.526 C 686.703 1225.636, 658.162 1294.468, 679.624 1324.106 C 691.009 1339.829, 720.986 1334.257, 737.053 1313.431 C 742.142 1306.835, 741.755 1306.850, 747.905 1313 C 756.540 1321.635, 770.002 1319.230, 777.298 1307.750 C 779.461 1304.347, 781 1304.218, 781 1307.441 C 781 1310.887, 781.786 1311.105, 791.501 1310.358 C 801.843 1309.563, 802.370 1309.043, 804.022 1298 C 804.639 1293.875, 805.562 1289.719, 806.072 1288.764 C 806.582 1287.809, 807 1286.405, 807 1285.644 C 807 1282.328, 814.030 1262.967, 819.080 1252.377 C 820.686 1249.010, 822 1245.902, 822 1245.472 C 822 1245.041, 823.125 1243.214, 824.500 1241.411 C 825.875 1239.608, 827 1237.741, 827 1237.262 C 827 1236.167, 838.106 1225, 839.196 1225 C 840.950 1225, 840.528 1233.689, 838.274 1244 C 830.149 1281.166, 847.963 1306.676, 875.500 1297.309 C 883.332 1294.645, 898.947 1282.055, 898.988 1278.372 C 898.994 1277.752, 899.669 1276.690, 900.487 1276.011 C 902.615 1274.245, 909.393 1259.730, 911.927 1251.512 C 914.706 1242.500, 916.012 1240.616, 922.304 1236.540 C 927.472 1233.192, 938 1223.675, 938 1222.351 C 938 1221.970, 938.601 1220.947, 939.335 1220.079 C 942.270 1216.609, 943.419 1211.990, 941.760 1210.331 C 939.495 1208.067, 936.817 1209.385, 932.397 1214.938 C 928.522 1219.807, 918.959 1227, 916.361 1227 C 915.401 1227, 915 1225.578, 915 1222.178 C 915 1200.378, 896.236 1185.908, 879.134 1194.520 C 874.086 1197.062, 857 1212.767, 857 1214.866 C 857 1215.368, 855.442 1217.516, 853.539 1219.640 C 850.077 1223.500, 850.077 1223.500, 851.675 1218.500 C 857.641 1199.835, 854.352 1194.702, 842.206 1203.722 C 838.596 1206.403, 829.003 1216.133, 829.001 1217.114 C 829 1217.452, 827.648 1219.252, 825.996 1221.114 C 824.343 1222.977, 821.612 1227.425, 819.927 1231 C 818.241 1234.575, 816.401 1238.350, 815.836 1239.389 C 815.272 1240.427, 814.160 1243.465, 813.366 1246.139 C 811.825 1251.327, 810.549 1252.836, 811.580 1248.250 C 812.573 1243.832, 816.088 1232.652, 817.072 1230.784 C 818.226 1228.590, 820.061 1221.546, 820.694 1216.880 C 821.655 1209.797, 816.234 1204.521, 810.022 1206.493 C 807.552 1207.277, 807.297 1205.492, 809.750 1204.589 C 821.251 1200.357, 824.878 1190.281, 813.915 1193.018 C 811.487 1193.624, 806.800 1194.715, 803.500 1195.442 C 800.200 1196.169, 795.362 1197.448, 792.750 1198.284 C 790.138 1199.120, 788.015 1199.511, 788.033 1199.152 C 788.087 1198.063, 791.495 1188.581, 792.279 1187.335 C 799.499 1175.872, 781.613 1157.881, 772.762 1167.702 M 634 1173.027 C 629.875 1173.445, 624.700 1174.322, 622.500 1174.975 C 615.521 1177.047, 609.565 1179.017, 607.500 1179.935 C 554.133 1203.682, 526.572 1248.503, 551.969 1270.242 C 558.512 1275.842, 569.080 1277.460, 567.452 1272.612 C 557.973 1244.382, 594.406 1199.559, 632.678 1192.365 C 652.227 1188.691, 659.828 1196.344, 657.017 1216.873 C 655.807 1225.711, 654.729 1228.450, 646.366 1243.921 C 638.809 1257.902, 611.947 1281.003, 603.250 1281 C 601.881 1281, 601.556 1278.778, 602.749 1277.584 C 603.161 1277.172, 604.078 1274.509, 604.787 1271.667 C 605.496 1268.825, 606.532 1264.700, 607.090 1262.500 C 609.393 1253.413, 616.433 1235.010, 621.673 1224.379 C 625.983 1215.633, 623.864 1213.530, 613.713 1216.481 C 600.312 1220.377, 587.888 1234.250, 584.138 1249.507 C 583.598 1251.703, 582.255 1256.875, 581.154 1261 C 580.052 1265.125, 578.452 1271.650, 577.599 1275.500 C 576.745 1279.350, 574.686 1288.181, 573.023 1295.124 C 571.361 1302.067, 570 1308.485, 570 1309.387 C 570 1310.289, 569.578 1311.809, 569.063 1312.764 C 568.548 1313.719, 567.165 1318.550, 565.991 1323.500 C 563.701 1333.150, 556.471 1354.529, 555 1356 C 554.725 1356.275, 553.631 1358.208, 552.568 1360.296 C 548.456 1368.374, 543.524 1371.404, 536.091 1370.418 C 532.487 1369.940, 531.111 1370.162, 530.095 1371.386 C 525.411 1377.029, 541.461 1381.540, 551.628 1377.438 C 560.699 1373.777, 562.878 1372.315, 570.010 1365.098 C 579.035 1355.966, 586.594 1341.823, 590.639 1326.500 C 590.929 1325.400, 591.553 1323.600, 592.025 1322.500 C 592.497 1321.400, 593.323 1318.475, 593.861 1316 C 594.399 1313.525, 595.775 1307.759, 596.919 1303.187 C 598.064 1298.614, 599 1294.002, 599 1292.937 C 599 1283.994, 610.044 1299.309, 614.911 1315 C 616.702 1320.775, 618.556 1326.400, 619.030 1327.500 C 619.505 1328.600, 620.903 1331.975, 622.138 1335 C 629.885 1353.978, 644.021 1362.474, 656.500 1355.652 C 658.150 1354.750, 659.859 1354.010, 660.298 1354.006 C 668.222 1353.945, 685.655 1332.798, 681.340 1328.482 C 679.329 1326.472, 679.013 1326.552, 675 1330.093 C 662.346 1341.256, 653.628 1339.468, 646.485 1324.244 C 644.486 1319.985, 642.434 1315.719, 641.925 1314.764 C 641.416 1313.809, 641 1312.617, 641 1312.115 C 641 1311.268, 633.120 1293.803, 630.865 1289.653 C 629.638 1287.394, 628.929 1288.060, 639.287 1281.752 C 650.095 1275.170, 661.323 1265.046, 668.201 1255.678 C 675.518 1245.714, 675.229 1246.214, 681.020 1233.500 C 696.474 1199.573, 672.778 1169.098, 634 1173.027 M 1140.641 1183.101 C 1139.739 1184.390, 1139 1185.965, 1139 1186.600 C 1139 1189.238, 1136.195 1190.193, 1135.466 1187.803 C 1133.634 1181.798, 1128.623 1180.561, 1117.676 1183.412 C 1082.702 1192.522, 1052.722 1261.199, 1075.287 1280.514 C 1084.915 1288.755, 1099.765 1283.315, 1108.547 1268.330 C 1111.822 1262.741, 1112.005 1262.837, 1111.806 1270.050 C 1111.409 1284.446, 1131.340 1288.161, 1144.250 1276.098 C 1147.775 1272.804, 1149.793 1273.350, 1146.450 1276.693 C 1142.500 1280.643, 1146.259 1282.750, 1157.500 1282.885 C 1165.905 1282.986, 1166.503 1282.665, 1168.510 1276.959 C 1177.040 1252.720, 1193.449 1225.481, 1208.847 1210 C 1218.695 1200.098, 1219.698 1200.629, 1213.969 1212.708 C 1208.964 1223.261, 1208.754 1223.731, 1201.069 1241.648 C 1197.731 1249.430, 1195 1256.427, 1195 1257.198 C 1195 1257.969, 1194.579 1259.027, 1194.064 1259.550 C 1192.617 1261.019, 1188.828 1276.665, 1189.183 1279.703 C 1189.489 1282.316, 1189.817 1282.453, 1198.902 1283.751 C 1209.666 1285.290, 1208.774 1285.800, 1212.458 1276 C 1222.594 1249.036, 1236.241 1226.692, 1252.275 1210.807 C 1258.946 1204.198, 1262.867 1203.986, 1257.957 1210.500 C 1255.207 1214.149, 1241.646 1243.008, 1238.221 1252.500 C 1227.319 1282.718, 1246.519 1298.088, 1270.622 1278.437 C 1274.999 1274.868, 1276 1274.913, 1276 1278.681 C 1276 1290.764, 1302.982 1292.185, 1311.235 1280.537 C 1311.740 1279.824, 1311.974 1279.828, 1311.985 1280.550 C 1311.993 1281.127, 1311.515 1282.085, 1310.922 1282.678 C 1306.063 1287.537, 1312.358 1291.266, 1324.618 1290.791 C 1332.139 1290.500, 1332.139 1290.500, 1335.146 1283.500 C 1339.476 1273.421, 1344.379 1263.554, 1345.250 1263.167 C 1345.662 1262.983, 1346 1262.235, 1346 1261.504 C 1346 1256.460, 1378.198 1219.494, 1386.773 1214.693 C 1391.330 1212.142, 1390.897 1213.524, 1383.145 1226.248 C 1362.481 1260.168, 1356.257 1278.788, 1361.905 1289.790 C 1367.365 1300.426, 1384.891 1299.709, 1396.572 1288.373 C 1400.824 1284.245, 1400.824 1284.245, 1401.989 1288.870 C 1406.809 1308.012, 1429.652 1302.870, 1446.934 1278.752 C 1451.864 1271.872, 1451.739 1273.503, 1446.528 1284.052 C 1441.350 1294.532, 1440.739 1295.231, 1429 1304.050 C 1424.325 1307.563, 1420.275 1310.687, 1420 1310.994 C 1419.725 1311.301, 1417.476 1313.115, 1415.003 1315.026 C 1398.226 1327.988, 1392.541 1335.818, 1392.516 1346 C 1392.497 1353.516, 1394.568 1357.324, 1400.768 1361.179 C 1407.645 1365.456, 1432.915 1363.550, 1432.989 1358.750 C 1432.995 1358.338, 1433.523 1358, 1434.162 1358 C 1439.630 1358, 1451.238 1337.700, 1462.032 1309.260 C 1466.695 1296.973, 1464.581 1299.239, 1487.899 1281.524 C 1498.213 1273.687, 1513 1255.236, 1513 1250.203 C 1513 1242.573, 1509.158 1243.795, 1501.792 1253.770 C 1492.573 1266.254, 1480.394 1278.216, 1472.318 1282.716 C 1470.529 1283.713, 1471.194 1281.822, 1476.008 1272.216 C 1481.667 1260.924, 1484.042 1255.800, 1489.089 1244 C 1490.383 1240.975, 1492.936 1235.800, 1494.762 1232.500 C 1500.379 1222.348, 1505 1212.004, 1505 1209.580 C 1505 1205.154, 1487.864 1200.702, 1486.566 1204.791 C 1486.212 1205.907, 1485.286 1207.348, 1484.508 1207.993 C 1483.063 1209.192, 1482.738 1209.039, 1478.422 1205.135 C 1466.991 1194.794, 1435.718 1211.192, 1419.443 1236.058 C 1414.340 1243.856, 1406 1260.219, 1406 1262.434 C 1406 1263.295, 1405.660 1264, 1405.244 1264 C 1404.828 1264, 1403.889 1265.353, 1403.157 1267.007 C 1400.470 1273.078, 1383.578 1285.911, 1381.288 1283.621 C 1379.370 1281.704, 1391.793 1253.984, 1402.629 1236 C 1429.267 1191.791, 1397.574 1182.204, 1362.888 1223.978 C 1358.235 1229.581, 1359.499 1226.730, 1367.566 1213.424 C 1377.067 1197.751, 1377.064 1196.808, 1367.502 1195.658 C 1363.653 1195.195, 1360.278 1194.480, 1360.002 1194.070 C 1359.260 1192.969, 1355.362 1192.148, 1354.312 1192.873 C 1353.812 1193.218, 1348.424 1203.400, 1342.339 1215.500 C 1320.781 1258.365, 1318.882 1261.332, 1306.658 1271.257 C 1299.372 1277.173, 1297.678 1277.380, 1298.539 1272.250 C 1299.526 1266.375, 1303.885 1253.116, 1307.086 1246.250 C 1308.689 1242.813, 1311.390 1236.963, 1313.088 1233.250 C 1314.787 1229.537, 1319.038 1220.772, 1322.535 1213.772 C 1332.398 1194.031, 1332.416 1193.735, 1324 1190.611 C 1311.609 1186.011, 1305.856 1186.584, 1306.604 1192.345 C 1307.062 1195.868, 1306.531 1197.641, 1303.114 1204 C 1297.667 1214.137, 1288.484 1232.731, 1284.095 1242.512 C 1276.700 1258.994, 1265.185 1273, 1259.031 1273 C 1254.544 1273, 1259.389 1257.839, 1271.974 1232.500 C 1287.678 1200.880, 1288.765 1193.982, 1278.843 1188.920 C 1269.120 1183.960, 1262.802 1186.664, 1246.683 1202.687 C 1239.317 1210.009, 1237.371 1211.544, 1239.015 1208.732 C 1248.662 1192.237, 1233.210 1178.354, 1217.183 1189.116 C 1211.046 1193.237, 1195 1209.050, 1195 1210.977 C 1195 1211.539, 1194.546 1212, 1193.991 1212 C 1192.862 1212, 1197.839 1202.602, 1202.172 1196.553 C 1207.617 1188.953, 1205.729 1185.981, 1194.500 1184.474 C 1191.750 1184.105, 1188.675 1183.361, 1187.667 1182.822 C 1185.783 1181.813, 1182 1184.131, 1182 1186.294 C 1182 1186.835, 1180.251 1190.927, 1178.114 1195.389 C 1175.977 1199.850, 1173.040 1206.327, 1171.588 1209.783 C 1170.135 1213.238, 1167.609 1218.987, 1165.974 1222.558 C 1164.338 1226.129, 1163 1229.270, 1163 1229.538 C 1163 1230.409, 1154.410 1247.599, 1151.973 1251.605 C 1146.878 1259.981, 1137.827 1269, 1134.517 1269 C 1132.388 1269, 1139.524 1237.143, 1142.267 1234.400 C 1142.670 1233.997, 1143.003 1232.954, 1143.006 1232.083 C 1143.010 1231.213, 1143.685 1229.211, 1144.506 1227.636 C 1145.328 1226.060, 1146 1224.344, 1146 1223.822 C 1146 1223.299, 1147.125 1220.412, 1148.500 1217.406 C 1149.875 1214.400, 1151 1211.755, 1151 1211.529 C 1151 1211.302, 1153.500 1205.897, 1156.555 1199.518 C 1162.735 1186.614, 1162.808 1184.857, 1157.231 1183.189 C 1148.541 1180.590, 1142.423 1180.557, 1140.641 1183.101 M 1122.216 1199.420 C 1118.050 1202.366, 1107.894 1214.961, 1104.413 1221.500 C 1094.101 1240.867, 1090.963 1249.545, 1090.313 1260.500 C 1089.761 1269.791, 1090.695 1271.097, 1095.354 1267.543 C 1100.276 1263.790, 1113.373 1243.165, 1119.013 1230.287 C 1120.166 1227.654, 1121.511 1224.600, 1122.002 1223.500 C 1123.331 1220.521, 1128.521 1206.958, 1129.699 1203.382 C 1131.729 1197.221, 1128.067 1195.283, 1122.216 1199.420 M 884.216 1210.814 C 862.170 1233.184, 851.838 1276.213, 866.383 1285.082 C 870.290 1287.465, 876.607 1285.002, 874.877 1281.771 C 873.688 1279.549, 880.854 1256.983, 884.420 1251.723 C 893.414 1238.454, 888.597 1263.921, 879.165 1279.500 C 876.743 1283.500, 876.743 1283.500, 879.791 1280.640 C 887.894 1273.037, 898.362 1244, 893 1244 C 891.900 1244, 891 1244.450, 891 1245 C 891 1247.936, 884.349 1245.811, 880.250 1241.566 C 874.961 1236.089, 875.016 1228.449, 880.312 1232.844 C 888.459 1239.606, 892.912 1229.272, 887.927 1215.172 C 885.328 1207.821, 892.270 1203.641, 896.932 1209.750 C 899.031 1212.500, 899.031 1212.500, 898.347 1209.510 C 896.593 1201.846, 892.700 1202.205, 884.216 1210.814 M 797.500 1209.461 C 796.950 1209.628, 793.634 1210.579, 790.131 1211.576 C 782.885 1213.638, 782.635 1214.008, 777.649 1230.075 C 759.188 1289.569, 759.571 1325.828, 778.277 1289.500 C 783.296 1279.753, 785.766 1272.338, 789.518 1255.750 C 790.296 1252.313, 791.655 1246.800, 792.539 1243.500 C 793.422 1240.200, 794.751 1235.025, 795.491 1232 C 796.231 1228.975, 797.774 1222.759, 798.919 1218.187 C 800.063 1213.614, 801 1209.677, 801 1209.437 C 801 1208.962, 799.101 1208.976, 797.500 1209.461 M 1465 1219.761 C 1456.863 1223.750, 1443.963 1239.104, 1434.972 1255.500 C 1433.163 1258.800, 1431.296 1262.175, 1430.824 1263 C 1426.537 1270.491, 1422.920 1285, 1425.340 1285 C 1434.547 1285, 1466.797 1242.858, 1470.504 1225.984 C 1471.343 1222.163, 1473.123 1220, 1475.429 1220 C 1476.293 1220, 1477 1219.550, 1477 1219 C 1477 1217.380, 1468.797 1217.900, 1465 1219.761 M 714.315 1242.250 C 706.556 1250.289, 697.263 1271.693, 695.428 1285.750 C 693.884 1297.576, 705.331 1286.783, 714.784 1267.500 C 716.671 1263.650, 718.610 1259.729, 719.093 1258.787 C 720.487 1256.066, 722.238 1243.085, 721.570 1240.423 C 720.704 1236.971, 718.995 1237.401, 714.315 1242.250" stroke="none" fill="#9145a3" fill-rule="evenodd"/></svg>