<svg xmlns="http://www.w3.org/2000/svg" width="5334" height="3000" viewBox="0 0 5334 3000" version="1.1"><path d="M 1737.417 1274.075 C 1735.618 1274.598, 1733.848 1276.037, 1733.167 1277.532 C 1731.629 1280.909, 1731.486 1598.610, 1733.021 1604.135 C 1734.272 1608.639, 1737.296 1610.057, 1746.094 1610.265 C 1749.617 1610.348, 1833.473 1610.311, 1932.439 1610.183 C 2082.774 1609.988, 2112.601 1610.173, 2113.734 1611.305 C 2116.238 1613.809, 2117.242 1636.591, 2116.739 1679.486 C 2116.425 1706.205, 2116.613 1721.250, 2117.276 1722.707 C 2117.836 1723.936, 2119.691 1725.380, 2121.397 1725.915 C 2123.213 1726.484, 2148.772 1727.005, 2183 1727.171 C 2247.280 1727.482, 2245.964 1727.596, 2248.939 1721.491 C 2250.198 1718.909, 2250.459 1689.907, 2250.848 1509.500 C 2251.096 1394.550, 2251.198 1296.250, 2251.074 1291.055 C 2250.853 1281.739, 2249.728 1277.679, 2246.665 1275.137 C 2245.542 1274.205, 2232.288 1273.987, 2190.121 1274.210 L 2135.044 1274.500 2132.457 1277.088 L 2129.869 1279.676 2129.861 1382.088 C 2129.856 1438.415, 2129.613 1485.508, 2129.320 1486.740 C 2128.952 1488.291, 2127.668 1489.271, 2125.144 1489.926 C 2122.972 1490.489, 2069.400 1490.976, 1992.500 1491.132 C 1890.110 1491.338, 1862.726 1491.129, 1859.750 1490.118 C 1857.688 1489.418, 1855.989 1488.542, 1855.976 1488.172 C 1855.962 1487.803, 1855.850 1440.905, 1855.726 1383.956 C 1855.512 1286.099, 1855.401 1280.260, 1853.698 1277.661 C 1852.706 1276.148, 1850.765 1274.481, 1849.383 1273.955 C 1846.177 1272.737, 1741.643 1272.849, 1737.417 1274.075 M 14.750 1275.162 L 12 1276.167 12 1500.027 L 12 1723.887 14.223 1725.443 C 16.168 1726.806, 23.186 1726.999, 70.473 1726.994 C 104.580 1726.991, 125.872 1726.608, 128.222 1725.955 C 131.385 1725.077, 132.101 1724.340, 132.987 1721.048 C 133.650 1718.587, 134.012 1698.665, 133.982 1666.421 C 133.955 1638.506, 134.301 1615.299, 134.751 1614.849 C 135.202 1614.398, 221.954 1613.911, 327.535 1613.765 C 508.613 1613.515, 519.683 1613.400, 522.720 1611.740 C 524.492 1610.771, 526.474 1608.983, 527.126 1607.765 C 528.027 1606.081, 528.277 1566.496, 528.170 1442.525 C 528.092 1352.861, 528.022 1279.162, 528.014 1278.750 C 528.006 1278.338, 527.100 1277.100, 526 1276 C 524.010 1274.010, 522.720 1274, 270.750 1274.079 C 103.870 1274.131, 16.562 1274.500, 14.750 1275.162 M 592.966 1274.922 C 588.014 1275.893, 587.213 1276.571, 586.043 1280.786 C 584.871 1285.004, 584.722 1717.773, 585.890 1722 C 587.188 1726.695, 589.507 1726.883, 646.849 1726.944 C 705.718 1727.006, 705.503 1727.027, 708.058 1720.860 C 709.017 1718.545, 709.177 1706.397, 708.762 1667.638 C 708.340 1628.369, 708.495 1617.043, 709.472 1615.708 C 710.639 1614.112, 719.513 1614, 844.738 1614 C 968.377 1614, 978.861 1614.129, 980.128 1615.660 C 981.252 1617.020, 981.500 1626.808, 981.500 1669.910 C 981.500 1698.834, 981.887 1723.291, 982.360 1724.259 C 982.833 1725.226, 984.408 1726.351, 985.860 1726.759 C 987.312 1727.166, 1011.900 1727.500, 1040.500 1727.500 C 1098.118 1727.500, 1098.949 1727.420, 1100.969 1721.699 C 1102.686 1716.836, 1102.465 1281.738, 1100.744 1278.167 C 1100.060 1276.747, 1098.375 1275.273, 1097 1274.892 C 1093.733 1273.987, 597.587 1274.017, 592.966 1274.922 M 1164.255 1275.113 C 1162.471 1275.631, 1160.230 1277.245, 1159.277 1278.700 C 1157.643 1281.193, 1157.557 1293.980, 1157.791 1499.923 C 1157.960 1649.502, 1158.371 1719.520, 1159.091 1721.731 C 1159.904 1724.231, 1160.976 1725.205, 1163.821 1726.034 C 1166.299 1726.756, 1185.408 1727.007, 1222.339 1726.803 L 1277.178 1726.500 1278.970 1724.286 C 1279.956 1723.068, 1281.048 1720.143, 1281.398 1717.786 C 1281.747 1715.429, 1281.810 1642.136, 1281.536 1554.914 C 1281.138 1427.971, 1281.292 1395.983, 1282.305 1394.598 C 1283.493 1392.972, 1291.670 1392.868, 1417.437 1392.871 C 1538.722 1392.875, 1551.454 1393.025, 1552.902 1394.472 C 1554.761 1396.331, 1554.645 1379.448, 1554.179 1579.131 C 1553.955 1675.316, 1554.183 1717.967, 1554.937 1720.765 C 1555.529 1722.966, 1556.756 1725.382, 1557.662 1726.134 C 1559.011 1727.252, 1569.140 1727.500, 1613.405 1727.500 C 1643.157 1727.500, 1668.732 1727.155, 1670.237 1726.734 C 1671.743 1726.313, 1673.754 1724.779, 1674.706 1723.325 C 1676.298 1720.896, 1676.407 1717.086, 1676.054 1676.091 C 1675.842 1651.566, 1675.631 1552.201, 1675.585 1455.279 L 1675.500 1279.058 1673.222 1276.779 L 1670.945 1274.500 1419.222 1274.336 C 1264.365 1274.235, 1166.251 1274.535, 1164.255 1275.113 M 1736.209 1275.850 C 1734.355 1277.026, 1734.160 1604.283, 1736.012 1606.514 C 1737.088 1607.811, 1760.958 1608.026, 1927.870 1608.247 L 2118.500 1608.500 2118.758 1665.408 C 2118.940 1705.411, 2119.348 1722.714, 2120.131 1723.658 C 2121.041 1724.755, 2132.513 1724.997, 2182.872 1724.985 C 2216.768 1724.976, 2245.046 1724.622, 2245.713 1724.198 C 2247.595 1723.003, 2247.716 1278.074, 2245.836 1276.866 C 2244.150 1275.784, 2134.943 1276.213, 2133.250 1277.309 C 2132.263 1277.948, 2132 1300.564, 2132 1384.859 C 2132 1466.546, 2131.718 1491.882, 2130.800 1492.800 C 2129.878 1493.722, 2097.774 1494, 1992.382 1494 C 1916.912 1494, 1854.452 1493.727, 1853.582 1493.393 C 1852.153 1492.845, 1852 1482.405, 1852 1385.464 C 1852 1289.233, 1851.838 1277.980, 1850.429 1276.571 C 1849.037 1275.180, 1842.475 1275.002, 1793.179 1275.015 C 1762.555 1275.024, 1736.919 1275.399, 1736.209 1275.850 M 3686.524 1276.038 C 3686.958 1276.741, 3708.671 1277.038, 3753.702 1276.957 C 3790.792 1276.891, 3820.627 1277.227, 3821.117 1277.717 C 3821.613 1278.213, 3822.106 1350.251, 3822.248 1443.048 L 3822.500 1607.500 3977.831 1608 C 4127.069 1608.480, 4133.214 1608.572, 4134.504 1610.336 C 4135.588 1611.818, 4135.846 1622.482, 4135.845 1665.674 C 4135.844 1695.101, 4136.104 1719.437, 4136.422 1719.755 C 4136.740 1720.073, 4137 1695.540, 4137 1665.238 C 4137 1616.485, 4136.819 1609.962, 4135.429 1608.571 C 4134.014 1607.157, 4118.639 1607, 3981.120 1607 C 3857.884 1607, 3828.041 1606.751, 3826.616 1605.708 C 3824.939 1604.482, 3824.855 1596.164, 3824.961 1441.744 C 3825.072 1279.370, 3825.068 1279.068, 3823.036 1277.036 C 3821.028 1275.028, 3820.066 1275, 3753.441 1275 C 3707.005 1275, 3686.083 1275.325, 3686.524 1276.038 M 3224.831 1276.750 C 3297.612 1276.892, 3416.412 1276.892, 3488.831 1276.750 C 3561.249 1276.608, 3501.700 1276.493, 3356.500 1276.493 C 3211.300 1276.493, 3152.049 1276.608, 3224.831 1276.750 M 3681.655 1277.829 C 3680.126 1279.519, 3680 1296.433, 3680 1500.874 L 3680 1722.091 3682.455 1724.545 L 3684.909 1727 3907.205 1726.900 C 4029.467 1726.845, 4130.539 1726.508, 4131.809 1726.150 C 4133.079 1725.793, 4032.825 1725.500, 3909.023 1725.500 C 3710.022 1725.500, 3683.818 1725.326, 3682.988 1724 C 3681.544 1721.691, 3681.669 1279.104, 3683.115 1277.362 C 3684.807 1275.322, 3683.563 1275.720, 3681.655 1277.829 M 4327.750 1276.750 C 4399.938 1276.892, 4518.063 1276.892, 4590.250 1276.750 C 4662.438 1276.608, 4603.375 1276.493, 4459 1276.493 C 4314.625 1276.493, 4255.563 1276.608, 4327.750 1276.750 M 5055 1276.996 C 5198.825 1277.273, 5317.063 1277.864, 5317.750 1278.309 C 5318.726 1278.941, 5319 1291.697, 5319 1336.524 C 5319 1392.256, 5318.944 1393.960, 5317.066 1394.965 C 5315.751 1395.668, 5251.839 1396, 5117.561 1396 L 4919.991 1396 4920.245 1501.750 L 4920.500 1607.500 5118.443 1607.752 C 5275.274 1607.953, 5316.550 1608.264, 5317.177 1609.252 C 5318.458 1611.269, 5318.200 1723.758, 5316.913 1724.554 C 5316.315 1724.923, 5258.828 1725.149, 5189.163 1725.054 C 5119.498 1724.960, 5000.400 1725.247, 4924.500 1725.692 L 4786.500 1726.500 5038 1727 C 5176.325 1727.275, 5295.672 1727.275, 5303.216 1727 C 5314.613 1726.585, 5317.234 1726.198, 5318.716 1724.714 C 5320.386 1723.043, 5320.500 1719.299, 5320.500 1666.070 C 5320.500 1611.423, 5320.425 1609.128, 5318.582 1607.091 L 5316.664 1604.971 5120.284 1605.015 C 5012.275 1605.039, 4923.476 1604.794, 4922.952 1604.470 C 4921.659 1603.671, 4921.658 1399.329, 4922.952 1398.530 C 4923.475 1398.206, 5012.259 1397.961, 5120.248 1397.985 L 5316.592 1398.029 5318.796 1395.975 C 5320.008 1394.846, 5321.023 1393.377, 5321.050 1392.711 C 5321.123 1390.972, 5321.132 1283.847, 5321.060 1281.750 C 5321.027 1280.787, 5320.100 1279.100, 5319 1278 C 5317.009 1276.009, 5315.832 1276.001, 5055.250 1276.246 L 4793.500 1276.492 5055 1276.996 M 13.964 1278.543 C 12.923 1279.797, 12.804 1294.045, 13.344 1352.299 C 13.713 1392.009, 14.017 1490.748, 14.020 1571.719 C 14.023 1663.931, 14.386 1719.886, 14.991 1721.477 L 15.957 1724.016 73.228 1723.758 L 130.500 1723.500 131.021 1667 C 131.307 1635.925, 131.645 1610.388, 131.771 1610.250 C 131.897 1610.112, 219.713 1610, 326.918 1610 C 434.123 1610, 522.548 1609.727, 523.418 1609.393 C 524.852 1608.843, 525 1593.383, 525 1444.475 C 525 1354.104, 524.729 1279.457, 524.397 1278.593 C 523.852 1277.172, 499.677 1277.021, 269.524 1277.006 C 40.767 1276.991, 15.125 1277.145, 13.964 1278.543 M 587.445 1279.173 C 586.540 1282.024, 587.966 1722.310, 588.883 1723.258 C 589.286 1723.675, 615.465 1723.900, 647.058 1723.758 L 704.500 1723.500 704.759 1668.092 C 704.940 1629.198, 705.349 1612.284, 706.131 1611.342 C 707.053 1610.231, 730.903 1610, 844.587 1610 C 980.429 1610, 981.941 1610.022, 982.989 1611.979 C 983.700 1613.308, 984.024 1631.876, 983.975 1668.495 C 983.934 1698.489, 984.160 1723.450, 984.477 1723.964 C 985.106 1724.981, 1094.839 1725.383, 1097.459 1724.377 C 1098.841 1723.847, 1099 1700.839, 1099 1501.975 C 1099 1379.979, 1098.734 1279.469, 1098.408 1278.621 C 1097.877 1277.236, 1071.724 1277.079, 842.961 1277.085 L 588.105 1277.093 587.445 1279.173 M 1161.378 1279.629 C 1160.933 1281.401, 1161.523 1718.910, 1161.977 1723.750 C 1161.989 1723.888, 1187.618 1724, 1218.929 1724 C 1269.342 1724, 1276.037 1723.820, 1277.428 1722.429 C 1278.844 1721.014, 1278.997 1704.563, 1278.973 1556.256 C 1278.959 1465.724, 1279.320 1391.280, 1279.777 1390.823 C 1280.234 1390.366, 1342.908 1390.107, 1419.054 1390.246 L 1557.500 1390.500 1557.735 1556.822 C 1557.865 1648.299, 1558.210 1723.531, 1558.502 1724.004 C 1559.094 1724.961, 1668.977 1725.330, 1671.444 1724.383 C 1672.846 1723.845, 1673 1701.796, 1673 1501.975 C 1673 1379.979, 1672.730 1279.460, 1672.400 1278.601 C 1671.859 1277.189, 1647.103 1277.037, 1416.917 1277.029 L 1162.033 1277.019 1161.378 1279.629 M 3089.109 1278.368 C 3088.269 1279.380, 3087.979 1337.483, 3087.993 1501.597 C 3088.013 1721.123, 3088.034 1723.478, 3089.987 1725.431 C 3091.942 1727.386, 3094.413 1727.404, 3354.730 1727.331 C 3535.800 1727.280, 3618.277 1726.931, 3620 1726.208 C 3621.754 1725.471, 3543.212 1725.184, 3356.925 1725.246 C 3210.858 1725.294, 3090.821 1725.007, 3090.175 1724.608 C 3088.450 1723.542, 3088.475 1279.925, 3090.200 1278.200 C 3090.860 1277.540, 3091.140 1277, 3090.822 1277 C 3090.505 1277, 3089.734 1277.616, 3089.109 1278.368 M 4189.722 1280 C 4189.294 1281.375, 4189.069 1381.874, 4189.222 1503.331 C 4189.496 1720.608, 4189.531 1724.184, 4191.441 1725.581 C 4193.106 1726.798, 4230.885 1726.998, 4456.941 1726.985 C 4601.899 1726.976, 4721.020 1726.639, 4721.655 1726.235 C 4722.290 1725.831, 4603.622 1725.539, 4457.949 1725.587 C 4312.277 1725.635, 4192.621 1725.384, 4192.047 1725.029 C 4191.330 1724.586, 4190.926 1654.665, 4190.752 1500.942 C 4190.613 1378.049, 4190.150 1278.625, 4189.722 1280 M 4782.807 1280 C 4781.538 1282.747, 4781.106 1718.106, 4782.368 1721.925 C 4782.991 1723.809, 4784.175 1725.530, 4785 1725.751 C 4786.109 1726.048, 4786.175 1725.922, 4785.252 1725.268 C 4784.263 1724.568, 4783.952 1678.215, 4783.752 1501.442 C 4783.613 1378.824, 4783.188 1279.175, 4782.807 1280 M 3624.235 1364.050 C 3624.065 1385.427, 3623.668 1393.932, 3622.800 1394.800 C 3621.875 1395.725, 3576.335 1396, 3423.907 1396 C 3244.559 1396, 3226.158 1396.147, 3225.607 1397.582 C 3225.273 1398.452, 3225.083 1404.414, 3225.185 1410.832 L 3225.371 1422.500 3225.935 1411.295 C 3226.246 1405.133, 3226.990 1399.603, 3227.589 1399.006 C 3228.365 1398.234, 3285.233 1397.939, 3425.167 1397.980 C 3615.665 1398.036, 3621.707 1397.981, 3623.343 1396.174 C 3624.861 1394.496, 3625.002 1391.304, 3624.750 1364.405 L 3624.469 1334.500 3624.235 1364.050 M 4726.441 1365 C 4726.441 1380.675, 4726.579 1387.088, 4726.748 1379.250 C 4726.917 1371.412, 4726.917 1358.588, 4726.748 1350.750 C 4726.579 1342.912, 4726.441 1349.325, 4726.441 1365 M 2346.500 1354.900 C 2336.372 1356.735, 2321.960 1367.198, 2317.537 1375.928 C 2312.075 1386.706, 2312.406 1404.901, 2318.281 1416.890 C 2321.769 1424.007, 2326.104 1427.795, 2337 1433.248 L 2343.500 1436.500 2449 1436.500 C 2551.078 1436.500, 2554.662 1436.437, 2559.500 1434.557 C 2570.566 1430.258, 2578.223 1423.342, 2583.186 1413.164 C 2586.268 1406.843, 2586.437 1405.908, 2586.468 1395 C 2586.498 1384.232, 2586.317 1383.152, 2583.621 1378.029 C 2579.205 1369.636, 2568.929 1360.629, 2559 1356.448 C 2554.693 1354.634, 2550.129 1354.545, 2452.500 1354.364 C 2396.400 1354.260, 2348.700 1354.501, 2346.500 1354.900 M 2644 1354.966 C 2639.105 1355.859, 2634.193 1357.641, 2629.500 1360.225 C 2624.076 1363.212, 2615.981 1371.995, 2613.268 1377.835 C 2610.902 1382.930, 2610.640 1384.656, 2610.660 1395 C 2610.681 1405.666, 2610.902 1406.975, 2613.708 1413.047 C 2617.680 1421.641, 2624.690 1428.737, 2633.486 1433.068 L 2640.455 1436.500 2663.478 1436.500 C 2683.071 1436.500, 2687.302 1436.230, 2691.885 1434.685 C 2702.144 1431.229, 2710.391 1423.933, 2715.266 1414 C 2719.654 1405.060, 2719.052 1386.127, 2714.049 1375.719 C 2711.158 1369.704, 2702.466 1361.862, 2694.141 1357.755 L 2687.781 1354.618 2668.141 1354.381 C 2657.338 1354.251, 2646.475 1354.514, 2644 1354.966 M 2782.500 1355.028 C 2772.238 1355.924, 2768.890 1357.215, 2761.300 1363.202 C 2753.799 1369.119, 2750.718 1372.673, 2747.264 1379.393 C 2744.930 1383.934, 2744.641 1385.633, 2744.656 1394.724 C 2744.667 1401.707, 2745.170 1406.144, 2746.242 1408.724 C 2747.105 1410.801, 2748.399 1414.075, 2749.118 1416 C 2750.493 1419.685, 2758.832 1428.523, 2762.401 1430.080 C 2763.555 1430.583, 2765.175 1431.400, 2766 1431.896 C 2766.825 1432.391, 2769.511 1433.630, 2771.969 1434.648 C 2776.222 1436.411, 2781.513 1436.500, 2881.469 1436.500 C 2996.465 1436.500, 2985.797 1436.986, 2998 1431.189 C 3004.072 1428.304, 3012.244 1419.093, 3014.632 1412.439 C 3017.074 1405.638, 3019 1397.913, 3019 1394.924 C 3019 1392.830, 3017.089 1386.028, 3014.245 1378 C 3012.581 1373.301, 3003.661 1363.038, 2999.065 1360.535 C 2993.311 1357.401, 2989.255 1355.825, 2984.697 1354.952 C 2979.162 1353.891, 2794.728 1353.961, 2782.500 1355.028 M 2343.713 1359.622 C 2332.997 1362.214, 2324.177 1369.744, 2318.804 1380.888 C 2315.852 1387.013, 2315.746 1387.674, 2316.255 1396.902 C 2316.660 1404.263, 2317.329 1407.581, 2319.098 1411.013 C 2324.290 1421.085, 2329.197 1426.150, 2336.720 1429.203 C 2346.728 1433.265, 2344.685 1433.194, 2449.508 1433.146 C 2547.141 1433.102, 2551.058 1433.029, 2556.769 1431.154 C 2565.294 1428.355, 2567.939 1426.756, 2573.021 1421.328 C 2578.065 1415.940, 2581 1411.147, 2581 1408.296 C 2581 1407.253, 2581.525 1405.875, 2582.167 1405.233 C 2582.887 1404.513, 2583.314 1400.708, 2583.282 1395.283 C 2583.232 1386.629, 2582.327 1383.435, 2577.675 1375.495 C 2573.821 1368.917, 2561.738 1360, 2556.678 1360 C 2555.270 1360, 2553.840 1359.550, 2553.500 1359 C 2553.094 1358.343, 2518.026 1358.038, 2451.191 1358.111 C 2367.734 1358.202, 2348.462 1358.473, 2343.713 1359.622 M 2641 1359.176 C 2637.975 1359.739, 2634.790 1360.830, 2633.921 1361.600 C 2633.053 1362.370, 2631.850 1363, 2631.248 1363 C 2629.451 1363, 2624.349 1367.756, 2620.452 1373.066 C 2614.509 1381.161, 2611.890 1395.521, 2614.628 1405 C 2615.343 1407.475, 2616.159 1410.625, 2616.441 1412 C 2616.724 1413.375, 2619.408 1417.237, 2622.408 1420.582 C 2631.665 1430.907, 2641.636 1433.966, 2666 1433.955 C 2687.941 1433.944, 2700.135 1429.662, 2707.906 1419.238 C 2713.157 1412.196, 2715.249 1404.297, 2714.723 1393.500 C 2713.976 1378.181, 2707.558 1368.140, 2694.500 1361.864 L 2687.500 1358.500 2667 1358.326 C 2655.725 1358.231, 2644.025 1358.613, 2641 1359.176 M 2776.500 1359.224 C 2766.718 1361.633, 2756.862 1368.792, 2752.717 1376.500 C 2746.581 1387.907, 2745.612 1395.395, 2748.929 1405.776 C 2753.281 1419.401, 2761.146 1426.918, 2776.500 1432.127 C 2779.758 1433.232, 2798.592 1433.490, 2878 1433.514 C 2977.749 1433.545, 2989.549 1433.148, 2994 1429.607 C 2994.825 1428.951, 2996.625 1427.845, 2998 1427.151 C 3003.313 1424.467, 3011 1416.056, 3011 1412.926 C 3011 1411.788, 3011.634 1410.223, 3012.409 1409.449 C 3014.107 1407.751, 3015.516 1393.015, 3014.536 1387.213 C 3014.162 1384.997, 3013.227 1382.355, 3012.459 1381.342 C 3011.692 1380.329, 3011.049 1378.783, 3011.032 1377.906 C 3010.989 1375.769, 3002.377 1366.894, 2997.134 1363.584 C 2994.816 1362.122, 2990.801 1360.402, 2988.210 1359.763 C 2982.088 1358.253, 2782.506 1357.745, 2776.500 1359.224 M 2347 1373.160 C 2340.292 1375.909, 2338.016 1377.521, 2334.757 1381.829 C 2330.739 1387.140, 2329.471 1392.609, 2330.446 1400.417 C 2330.981 1404.699, 2331.909 1406.574, 2335.560 1410.747 C 2343.559 1419.891, 2335.800 1419.329, 2450.759 1419.092 C 2546.898 1418.893, 2551.279 1418.805, 2555.302 1416.988 C 2560.995 1414.416, 2562.216 1413.305, 2565.860 1407.381 C 2568.431 1403.203, 2569 1401.230, 2569 1396.486 C 2569 1385.214, 2561.953 1375.652, 2551.807 1373.155 C 2545.594 1371.626, 2350.732 1371.631, 2347 1373.160 M 2642.868 1373.456 C 2637.856 1374.837, 2631.656 1380.677, 2629.129 1386.396 C 2627.074 1391.047, 2627.485 1402.070, 2629.889 1406.782 C 2632.472 1411.846, 2637.960 1416.617, 2642.723 1417.940 C 2647.956 1419.393, 2681.797 1419.310, 2686.101 1417.834 C 2690.808 1416.219, 2695.804 1412.259, 2697.768 1408.586 C 2698.676 1406.889, 2699.719 1401.900, 2700.087 1397.500 C 2700.649 1390.767, 2700.440 1388.754, 2698.770 1384.787 C 2696.536 1379.481, 2692.294 1375.788, 2685.860 1373.548 C 2680.265 1371.599, 2649.839 1371.534, 2642.868 1373.456 M 2778 1373.650 C 2772.573 1375.536, 2765 1381.475, 2765 1383.844 C 2765 1384.785, 2764.389 1386.443, 2763.642 1387.527 C 2759.350 1393.761, 2761.540 1405.545, 2768.091 1411.463 C 2770.187 1413.356, 2773.808 1415.827, 2776.138 1416.953 C 2780.322 1418.974, 2781.651 1419, 2880.704 1419 C 2958.069 1419, 2981.988 1418.714, 2985.213 1417.750 C 2987.868 1416.956, 2991.282 1414.623, 2994.568 1411.357 C 2999.189 1406.764, 2999.817 1405.623, 3000.433 1400.692 C 3001.695 1390.590, 2998.958 1382.701, 2992.356 1377.410 C 2990.235 1375.711, 2987.150 1373.933, 2985.500 1373.460 C 2983.850 1372.987, 2937.500 1372.484, 2882.500 1372.343 C 2793.930 1372.115, 2781.986 1372.264, 2778 1373.650 M 2346.030 1378.113 C 2341.979 1379.729, 2337.106 1383.895, 2335.395 1387.204 C 2332.971 1391.890, 2333.821 1402.656, 2336.979 1407.264 C 2340.118 1411.846, 2343.135 1413.560, 2350.434 1414.906 C 2357.853 1416.274, 2532.391 1416.397, 2545.261 1415.043 C 2555.429 1413.973, 2558.894 1412.055, 2562.203 1405.666 C 2563.757 1402.665, 2564.368 1399.667, 2564.386 1394.945 C 2564.418 1386.761, 2562.179 1382.549, 2556.080 1379.324 L 2551.685 1377 2450.093 1377.063 C 2385.830 1377.103, 2347.592 1377.489, 2346.030 1378.113 M 2638.012 1380.608 C 2633.117 1385.030, 2631.530 1390.127, 2632.467 1398.413 C 2633.375 1406.434, 2636.006 1411.285, 2640.700 1413.592 C 2643.870 1415.150, 2647.450 1415.521, 2662.292 1415.828 C 2683.123 1416.259, 2687.713 1415.376, 2692.067 1410.099 C 2696.959 1404.170, 2697.334 1388.016, 2692.704 1382.650 C 2688.399 1377.662, 2684.866 1377, 2662.535 1377 L 2642.006 1377 2638.012 1380.608 M 2775.970 1379.250 C 2768.982 1382.780, 2767 1386.630, 2767 1396.674 L 2767 1405.053 2771.397 1409.450 C 2774.863 1412.916, 2776.821 1414.022, 2780.647 1414.673 C 2783.316 1415.128, 2829.600 1415.500, 2883.500 1415.500 C 2976.030 1415.500, 2981.764 1415.398, 2986.237 1413.672 C 2992.070 1411.422, 2994.469 1408.193, 2996.071 1400.438 C 2998.276 1389.758, 2995.072 1382.155, 2987 1378.917 C 2982.769 1377.220, 2976.461 1377.108, 2881.462 1377.056 L 2780.424 1377 2775.970 1379.250 M 131.460 1391.246 C 131.196 1391.936, 131.097 1415.900, 131.240 1444.500 L 131.500 1496.500 270.500 1496.500 L 409.500 1496.500 409.500 1443.500 L 409.500 1390.500 270.720 1390.246 C 160.224 1390.045, 131.842 1390.248, 131.460 1391.246 M 705.459 1391.250 C 705.195 1391.938, 705.097 1415.900, 705.240 1444.500 L 705.500 1496.500 844.500 1496.500 L 983.500 1496.500 983.731 1445.500 C 983.857 1417.450, 983.736 1393.487, 983.461 1392.250 L 982.962 1390 844.450 1390 C 734.562 1390, 705.838 1390.258, 705.459 1391.250 M 138 1392.835 C 136.625 1393.019, 135.110 1393.544, 134.633 1394.002 C 134.156 1394.460, 133.706 1416.777, 133.633 1443.596 C 133.526 1482.815, 133.759 1492.616, 134.821 1493.679 C 135.903 1494.761, 160.382 1495, 269.916 1495 C 398.244 1495, 403.757 1494.926, 405.345 1493.171 C 406.836 1491.524, 407 1486.637, 407 1443.826 C 407 1399.618, 406.877 1396.198, 405.228 1394.706 C 403.624 1393.255, 390.953 1393.074, 271.978 1392.801 C 199.665 1392.636, 139.375 1392.651, 138 1392.835 M 712.428 1392.858 C 707.979 1393.683, 708.052 1392.815, 708.190 1443.589 C 708.308 1487.181, 708.485 1492.129, 709.971 1493.474 C 711.418 1494.783, 727.823 1494.949, 843.560 1494.823 C 919.061 1494.740, 976.561 1494.293, 977.980 1493.777 C 979.343 1493.281, 980.754 1492.398, 981.114 1491.815 C 981.474 1491.233, 981.823 1469.507, 981.889 1443.537 C 982.001 1399.013, 981.904 1396.223, 980.184 1394.666 C 978.510 1393.151, 967.445 1392.993, 846.357 1392.757 C 773.756 1392.616, 713.488 1392.661, 712.428 1392.858 M 4724.541 1394.933 C 4724.078 1395.683, 4664.904 1396, 4525.423 1396 L 4326.963 1396 4327.232 1419.250 L 4327.500 1442.500 4526.750 1443 C 4636.338 1443.275, 4726 1443.193, 4726 1442.817 C 4726 1442.442, 4724.988 1441.767, 4723.750 1441.317 C 4722.512 1440.868, 4633.750 1440.500, 4526.500 1440.500 C 4419.250 1440.500, 4330.712 1440.114, 4329.750 1439.643 C 4328.171 1438.870, 4328 1436.851, 4328 1419 C 4328 1401.435, 4328.188 1399.142, 4329.671 1398.573 C 4330.590 1398.220, 4419.369 1397.954, 4526.957 1397.983 C 4695.376 1398.026, 4722.845 1397.834, 4724.534 1396.599 C 4725.614 1395.809, 4726.205 1394.872, 4725.849 1394.515 C 4725.492 1394.159, 4724.904 1394.347, 4724.541 1394.933 M 3225.291 1433.500 L 3225.500 1442.500 3424.952 1442.752 C 3584.725 1442.955, 3624.156 1442.756, 3623.151 1441.752 C 3622.156 1440.758, 3581.512 1440.500, 3425.605 1440.500 C 3206.943 1440.500, 3225.301 1441.146, 3226.450 1433.487 C 3226.790 1431.217, 3226.622 1428.266, 3226.075 1426.930 C 3225.328 1425.103, 3225.133 1426.732, 3225.291 1433.500 M 4726 1501.965 C 4726 1557.211, 4725.942 1558.961, 4724.071 1559.962 C 4722.763 1560.662, 4659.397 1560.993, 4527.321 1560.989 C 4420.169 1560.985, 4331.254 1560.986, 4329.732 1560.991 L 4326.963 1561 4327.232 1584.250 L 4327.500 1607.500 4525.452 1607.752 C 4649.216 1607.910, 4723.762 1608.362, 4724.358 1608.958 C 4724.940 1609.540, 4725.290 1631.601, 4725.256 1665.705 C 4725.221 1700.867, 4725.543 1720.611, 4726.125 1719.095 C 4726.663 1717.698, 4726.935 1694.108, 4726.775 1662.757 L 4726.500 1608.822 4724.102 1606.881 C 4721.745 1604.973, 4718.328 1604.941, 4526.280 1605.033 C 4376.959 1605.104, 4330.520 1604.847, 4329.429 1603.941 C 4327.258 1602.140, 4327.339 1565.793, 4329.517 1563.986 C 4330.727 1562.982, 4370.493 1562.761, 4525.767 1562.896 C 4719.499 1563.065, 4720.517 1563.056, 4723.750 1561.048 L 4727 1559.029 4727 1502.015 C 4727 1470.657, 4726.775 1445, 4726.500 1445 C 4726.225 1445, 4726 1470.634, 4726 1501.965 M 2426.578 1470.722 C 2425.521 1470.992, 2421.696 1472.789, 2418.078 1474.715 C 2397.846 1485.488, 2390.560 1504.782, 2398.191 1527.377 C 2400.246 1533.464, 2410.588 1543.906, 2418.615 1548 L 2425.478 1551.500 2449.989 1551.500 L 2474.500 1551.500 2480.308 1548.650 C 2487.556 1545.093, 2495.886 1537.012, 2498.835 1530.676 C 2506.973 1513.189, 2502.415 1489.424, 2489 1479.394 C 2486.525 1477.544, 2484.050 1475.672, 2483.500 1475.234 C 2482.950 1474.796, 2479.872 1473.440, 2476.661 1472.219 C 2471.254 1470.164, 2469.257 1470.009, 2449.661 1470.116 C 2438.022 1470.180, 2427.635 1470.453, 2426.578 1470.722 M 2556.492 1472.290 C 2538.432 1480.260, 2532.301 1486.959, 2528.434 1502.951 C 2526.712 1510.071, 2526.709 1510.776, 2528.371 1518.847 C 2529.327 1523.493, 2531.032 1529.103, 2532.161 1531.315 C 2535.026 1536.931, 2542.525 1543.879, 2550.093 1547.929 L 2556.500 1551.358 2584.500 1552.084 C 2614.177 1552.853, 2759.114 1552.335, 2767.381 1551.430 C 2776.192 1550.466, 2791.390 1540.960, 2795.971 1533.547 C 2804.843 1519.191, 2802.208 1492.644, 2790.912 1482.579 C 2786.322 1478.489, 2778.184 1473.975, 2771.620 1471.879 C 2766.021 1470.090, 2760.847 1470.002, 2663.620 1470.040 L 2561.500 1470.080 2556.492 1472.290 M 2855.500 1472.153 C 2835.577 1479.260, 2825.684 1496.429, 2828.786 1518.518 C 2830.707 1532.195, 2837.668 1541.611, 2850.643 1548.080 L 2857.500 1551.500 2881.500 1551.500 L 2905.500 1551.500 2912 1548.294 C 2918.075 1545.297, 2929 1536.445, 2929 1534.518 C 2929 1534.045, 2929.599 1532.947, 2930.331 1532.079 C 2933.600 1528.200, 2935.312 1520.680, 2935.249 1510.479 C 2935.192 1501.120, 2934.935 1499.825, 2931.904 1493.608 C 2928.046 1485.695, 2918.264 1475.886, 2912.322 1473.971 C 2910.220 1473.294, 2907.869 1472.235, 2907.099 1471.620 C 2906.182 1470.887, 2898.053 1470.416, 2883.599 1470.257 C 2863.198 1470.032, 2861.039 1470.178, 2855.500 1472.153 M 2425 1474.972 C 2422.525 1475.951, 2419.113 1477.371, 2417.417 1478.126 C 2413.454 1479.892, 2404 1488.386, 2404 1490.180 C 2404 1490.936, 2403.410 1492.443, 2402.690 1493.527 C 2398.513 1499.814, 2397.883 1516.008, 2401.425 1526 C 2403.211 1531.038, 2413.292 1543, 2415.751 1543 C 2416.626 1543, 2418.099 1543.685, 2419.024 1544.521 C 2423.952 1548.982, 2458.273 1550.696, 2472.500 1547.192 C 2483.008 1544.604, 2489.963 1539.326, 2496 1529.357 C 2499.492 1523.592, 2499.500 1523.549, 2499.475 1511.539 C 2499.452 1500.857, 2499.184 1498.993, 2497.091 1495 C 2490.768 1482.938, 2484.798 1477.852, 2473.265 1474.703 C 2464.168 1472.218, 2431.496 1472.400, 2425 1474.972 M 2558.819 1474.598 C 2555.694 1475.355, 2551.129 1477.330, 2548.674 1478.987 C 2546.219 1480.644, 2543.747 1482, 2543.182 1482 C 2542.616 1482, 2540.035 1485.187, 2537.445 1489.083 C 2529.447 1501.114, 2528.277 1515.697, 2534.338 1527.826 C 2536.927 1533.006, 2544.980 1541.553, 2548.197 1542.534 C 2549.464 1542.920, 2551.175 1543.775, 2552 1544.432 C 2556.414 1547.951, 2561.978 1548.135, 2664.155 1548.130 C 2736.571 1548.126, 2765.897 1547.803, 2769.503 1546.968 C 2775.188 1545.651, 2780.982 1542.851, 2785.815 1539.084 C 2789.263 1536.396, 2796 1526.011, 2796 1523.384 C 2796 1522.555, 2796.724 1519.661, 2797.610 1516.954 C 2798.940 1512.887, 2799.031 1510.962, 2798.134 1505.869 C 2797.536 1502.478, 2796.137 1497.957, 2795.024 1495.821 C 2793.911 1493.686, 2793 1491.485, 2793 1490.931 C 2793 1487.915, 2778.295 1476, 2774.574 1476 C 2773.123 1476, 2770.320 1475.325, 2768.346 1474.500 C 2765.230 1473.198, 2751.541 1473.015, 2664.628 1473.111 C 2583.325 1473.201, 2563.432 1473.480, 2558.819 1474.598 M 2856.295 1474.955 C 2846.784 1477.620, 2841.970 1481.628, 2835.223 1492.500 L 2831.500 1498.500 2831.581 1511 C 2831.670 1524.666, 2832.188 1526.416, 2838.660 1534.906 C 2842.301 1539.682, 2851.049 1546, 2854.022 1546 C 2855.038 1546, 2857.137 1546.482, 2858.685 1547.071 C 2863.133 1548.762, 2900.365 1548.427, 2906.632 1546.639 C 2913.467 1544.688, 2919.024 1541.056, 2923.193 1535.812 C 2930.387 1526.764, 2931.250 1523.983, 2931.361 1509.500 C 2931.417 1502.156, 2931.022 1499.660, 2929.215 1495.934 C 2927.997 1493.423, 2926.965 1490.723, 2926.921 1489.934 C 2926.878 1489.145, 2923.939 1485.942, 2920.391 1482.815 C 2915.261 1478.295, 2912.808 1476.877, 2908.423 1475.895 C 2905.390 1475.217, 2902.678 1474.288, 2902.395 1473.831 C 2902.113 1473.374, 2893.021 1473.049, 2882.191 1473.109 C 2866.790 1473.193, 2861.148 1473.596, 2856.295 1474.955 M 2426.092 1489.053 C 2419.066 1492.866, 2415.358 1497.641, 2413.506 1505.258 C 2411.867 1512.004, 2411.871 1512.588, 2413.596 1517.915 C 2415.676 1524.338, 2419.274 1528.673, 2425.284 1531.997 C 2429.227 1534.177, 2430.703 1534.342, 2448.073 1534.539 C 2462.203 1534.699, 2467.704 1534.397, 2471.073 1533.278 C 2481.979 1529.654, 2487.285 1519.132, 2485.482 1504.702 C 2484.911 1500.132, 2484.120 1498.521, 2480.650 1494.859 C 2474.165 1488.016, 2472.314 1487.571, 2449.500 1487.375 C 2431.734 1487.222, 2429.119 1487.410, 2426.092 1489.053 M 2557.770 1490.116 C 2550.710 1493.622, 2546.551 1499.029, 2544.938 1506.800 C 2543.887 1511.863, 2543.990 1513.079, 2545.925 1518.457 C 2548.617 1525.941, 2550.860 1528.354, 2558.524 1532.011 L 2564.590 1534.906 2663.545 1534.941 C 2773.362 1534.978, 2767.776 1535.307, 2775.935 1528.324 C 2781.095 1523.907, 2785.352 1515.053, 2784.481 1510.547 C 2782.350 1499.513, 2781.596 1497.848, 2777.040 1494.102 C 2767.833 1486.533, 2775.181 1486.984, 2663.467 1487.135 L 2563.500 1487.271 2557.770 1490.116 M 2857.797 1489.333 C 2849.765 1493.034, 2846.270 1498.210, 2845.399 1507.697 C 2844.631 1516.054, 2845.946 1521.283, 2850.072 1526.279 C 2856.070 1533.541, 2859.026 1534.369, 2880.500 1534.803 C 2899.352 1535.185, 2899.540 1535.167, 2904.680 1532.577 C 2910.993 1529.394, 2915.029 1524.359, 2917.336 1516.791 C 2918.958 1511.470, 2918.967 1510.655, 2917.464 1504.791 C 2915.624 1497.612, 2911.216 1492.251, 2904.465 1488.983 C 2900.800 1487.209, 2898.374 1487.009, 2881.434 1487.083 C 2864.230 1487.159, 2862.070 1487.364, 2857.797 1489.333 M 2424.509 1494.171 C 2420.514 1497.314, 2418.048 1503.478, 2418.022 1510.384 C 2417.980 1521.682, 2421.881 1528.281, 2429.638 1530.032 C 2435.729 1531.407, 2463.898 1531.458, 2468.763 1530.103 C 2479.537 1527.103, 2484.450 1516.314, 2480.825 1503.616 C 2479.245 1498.084, 2478.336 1497.072, 2472.500 1494.351 C 2467.787 1492.153, 2466.345 1492.019, 2447.385 1492.010 C 2428.247 1492, 2427.136 1492.105, 2424.509 1494.171 M 2560.500 1493.415 C 2553.180 1496.676, 2549 1503.065, 2549 1510.990 C 2549 1520.805, 2555.161 1528.134, 2564.975 1529.995 C 2572.592 1531.440, 2760.188 1531.347, 2765.500 1529.896 C 2770.494 1528.532, 2775.540 1524.791, 2777.501 1520.998 C 2778.452 1519.158, 2779 1515.285, 2779 1510.394 C 2779 1503.611, 2778.685 1502.275, 2776.366 1499.236 C 2774.917 1497.336, 2771.880 1494.941, 2769.616 1493.913 C 2765.682 1492.127, 2761.030 1492.045, 2664.500 1492.061 C 2582.401 1492.075, 2562.939 1492.328, 2560.500 1493.415 M 2855.910 1495.250 C 2850.969 1499.033, 2849.183 1503.182, 2849.076 1511.128 C 2848.923 1522.428, 2853.701 1528.281, 2864.802 1530.396 C 2879.805 1533.255, 2899.897 1531.918, 2906.449 1527.626 C 2910.860 1524.735, 2913 1519.038, 2913 1510.188 C 2913 1503.648, 2912.611 1501.714, 2910.730 1498.898 C 2906.508 1492.578, 2904.016 1492.003, 2880.828 1492.002 L 2860.155 1492 2855.910 1495.250 M 3624.801 1495.200 C 3624.416 1496.135, 3624.140 1510.535, 3624.187 1527.200 C 3624.247 1548.345, 3624.539 1555.863, 3625.152 1552.082 C 3626.173 1545.794, 3625.844 1492.663, 3624.801 1495.200 M 3419.500 1561 L 3225.500 1561.500 3225.234 1582.786 C 3225.065 1596.273, 3225.353 1604.791, 3226.019 1606.036 C 3227.059 1607.978, 3229.286 1608, 3424.500 1608 C 3613.356 1608, 3621.971 1608.078, 3622.890 1609.794 C 3623.472 1610.881, 3623.823 1632.756, 3623.782 1665.318 C 3623.745 1694.870, 3624.004 1719.337, 3624.357 1719.691 C 3624.711 1720.044, 3625 1695.362, 3625 1664.841 L 3625 1609.349 3622.687 1607.176 L 3620.374 1605.003 3425.437 1605.086 C 3318.222 1605.132, 3229.769 1604.880, 3228.875 1604.525 C 3227.597 1604.019, 3227.114 1601.809, 3226.615 1594.191 C 3225.867 1582.761, 3226.599 1565.001, 3227.871 1563.729 C 3228.389 1563.211, 3310.557 1562.861, 3423.632 1562.894 C 3578.767 1562.940, 3619.095 1562.694, 3621.418 1561.685 C 3624.234 1560.463, 3624.146 1560.420, 3618.918 1560.460 C 3615.938 1560.482, 3526.200 1560.725, 3419.500 1561 M 2348.500 1585.994 C 2324.422 1589.008, 2309.265 1609.862, 2313.949 1633.533 C 2316.293 1645.383, 2317.700 1648.266, 2324.260 1654.661 C 2331.562 1661.779, 2339.472 1665.793, 2348.798 1667.114 C 2352.612 1667.654, 2396.911 1667.849, 2455.520 1667.583 L 2555.721 1667.129 2562.111 1664.103 C 2570.213 1660.266, 2580.855 1650.268, 2584.039 1643.500 C 2586.076 1639.172, 2586.396 1636.954, 2586.422 1627 C 2586.450 1615.987, 2586.312 1615.213, 2583.143 1608.729 C 2577.796 1597.783, 2572.237 1592.570, 2560.893 1587.862 L 2555.500 1585.624 2455 1585.433 C 2399.725 1585.329, 2351.800 1585.581, 2348.500 1585.994 M 2656.500 1586.011 C 2639.071 1586.506, 2638.310 1586.616, 2632.500 1589.480 C 2625.045 1593.154, 2618.516 1599.712, 2613.979 1608.081 C 2610.553 1614.402, 2610.500 1614.683, 2610.516 1626.500 C 2610.531 1638.061, 2610.652 1638.742, 2613.833 1645.108 C 2617.056 1651.558, 2623.421 1658.868, 2628.146 1661.546 C 2637.090 1666.615, 2636.094 1666.468, 2663.676 1666.788 L 2689.853 1667.092 2696.538 1663.833 C 2708.489 1658.006, 2715.483 1648.865, 2718.055 1635.709 C 2719.196 1629.875, 2719.162 1627.551, 2717.816 1619.209 C 2715.431 1604.430, 2708.884 1594.991, 2697.134 1589.390 C 2692.370 1587.118, 2689.293 1586.542, 2677.500 1585.711 C 2675.850 1585.595, 2666.400 1585.730, 2656.500 1586.011 M 2795 1586.011 C 2772.425 1586.666, 2771.458 1586.884, 2761.201 1593.613 C 2754.192 1598.210, 2751.075 1601.864, 2747.218 1610 C 2744.931 1614.824, 2744.608 1616.791, 2744.584 1626 C 2744.549 1639.729, 2746.491 1645.343, 2753.810 1652.673 C 2761.480 1660.353, 2764.700 1662.559, 2772 1665.132 L 2778.500 1667.424 2882.500 1667.462 L 2986.500 1667.500 2994 1663.783 C 3002.345 1659.647, 3010.886 1652.120, 3013.823 1646.314 C 3014.884 1644.216, 3016.514 1638.900, 3017.446 1634.500 C 3019.092 1626.729, 3019.080 1626.245, 3017.039 1617.578 C 3013.244 1601.464, 3007.828 1594.658, 2994.205 1588.883 L 2986.500 1585.616 2901 1585.516 C 2853.975 1585.461, 2806.275 1585.684, 2795 1586.011 M 2344 1589.690 C 2335.594 1592.571, 2330.674 1595.489, 2325.350 1600.754 C 2322.427 1603.643, 2319.732 1607.243, 2319.360 1608.754 C 2318.988 1610.264, 2318.158 1612.400, 2317.517 1613.500 C 2316.875 1614.600, 2316.230 1619.795, 2316.083 1625.046 C 2315.835 1633.969, 2316.021 1635.011, 2318.942 1641.042 C 2324.614 1652.752, 2335.353 1661.184, 2346.097 1662.366 C 2354.716 1663.314, 2550.965 1663.046, 2555.500 1662.080 C 2561.099 1660.887, 2565.897 1658.234, 2571.919 1653 C 2578.769 1647.047, 2582.509 1639.248, 2583.595 1628.653 C 2584.265 1622.110, 2582.708 1615.587, 2578.479 1607.217 C 2575.547 1601.413, 2567.737 1594.704, 2560.852 1592.073 C 2557.358 1590.739, 2554.073 1589.276, 2553.550 1588.823 C 2553.028 1588.371, 2506.678 1588.033, 2450.550 1588.074 C 2361.338 1588.138, 2347.934 1588.341, 2344 1589.690 M 2644.500 1588.650 C 2636.064 1590.414, 2631.527 1592.579, 2626.348 1597.313 C 2618.699 1604.303, 2616.444 1608.278, 2614.461 1618.266 C 2612.862 1626.316, 2612.862 1627.294, 2614.455 1634.663 C 2616.511 1644.171, 2621.129 1651.523, 2628.580 1657.149 C 2632.819 1660.349, 2635.160 1661.290, 2641.623 1662.394 C 2650.217 1663.861, 2678.827 1663.765, 2687.500 1662.241 C 2697.267 1660.524, 2706.772 1652.664, 2711.742 1642.193 C 2715.188 1634.933, 2715.245 1634.607, 2714.800 1624.613 C 2714.402 1615.653, 2713.966 1613.681, 2711.173 1608.184 C 2706.182 1598.363, 2696.381 1591.158, 2685.098 1589.019 C 2679.990 1588.050, 2648.728 1587.766, 2644.500 1588.650 M 2776.316 1589.528 C 2762.608 1593.222, 2752.963 1602.797, 2748.456 1617.185 C 2746.934 1622.044, 2746.829 1623.964, 2747.733 1630.402 C 2749.115 1640.253, 2752.100 1646.402, 2758.381 1652.337 C 2765.804 1659.350, 2772.128 1662.018, 2783.803 1663.062 C 2789.136 1663.539, 2834.675 1663.936, 2885 1663.945 C 2987.193 1663.963, 2987.552 1663.943, 2997.071 1657.770 C 3003.831 1653.387, 3008.047 1648.946, 3011.568 1642.500 C 3013.862 1638.302, 3014.374 1635.945, 3014.764 1627.802 C 3015.167 1619.380, 3014.950 1617.529, 3013.114 1613.736 C 3011.951 1611.334, 3011 1608.879, 3011 1608.281 C 3011 1606.636, 3001.008 1596.168, 2997.180 1593.802 C 2995.330 1592.659, 2990.625 1590.885, 2986.725 1589.861 C 2980.032 1588.104, 2974.093 1588.004, 2880.568 1588.066 C 2799.060 1588.120, 2780.581 1588.379, 2776.316 1589.528 M 2349.113 1602.696 C 2347.801 1602.959, 2344.426 1604.413, 2341.613 1605.925 C 2332.827 1610.652, 2329.324 1618.285, 2330.512 1630.116 C 2331.169 1636.662, 2331.368 1637.058, 2336.401 1641.818 C 2345.660 1650.575, 2338.866 1650.106, 2451.766 1649.778 C 2559.411 1649.465, 2553.915 1649.773, 2561 1643.667 C 2566.956 1638.534, 2569 1633.861, 2569 1625.372 C 2569 1618.357, 2568.794 1617.670, 2565.250 1612.903 C 2562.922 1609.771, 2559.604 1606.861, 2556.500 1605.229 L 2551.500 1602.600 2451.500 1602.409 C 2396.500 1602.303, 2350.426 1602.433, 2349.113 1602.696 M 2644.535 1602.737 C 2640.523 1603.329, 2632.404 1610.308, 2629.834 1615.374 C 2628.282 1618.432, 2627.770 1621.207, 2627.858 1626.098 C 2628.002 1634.179, 2629.688 1638.394, 2634.675 1643.143 C 2640.347 1648.544, 2646.692 1650, 2664.566 1650 C 2683.082 1650, 2688.298 1648.607, 2695.046 1641.859 C 2699.023 1637.882, 2699.784 1636.469, 2700.301 1632.104 C 2701.539 1621.651, 2699.031 1612.852, 2693.380 1607.829 C 2692.346 1606.910, 2689.121 1605.222, 2686.213 1604.079 C 2681.537 1602.240, 2678.995 1602.017, 2664.213 1602.150 C 2655.021 1602.232, 2646.166 1602.496, 2644.535 1602.737 M 2780.500 1602.935 C 2761.953 1607.450, 2754.917 1631.423, 2768.800 1642.799 C 2777.559 1649.977, 2769.507 1649.500, 2882 1649.500 L 2983.500 1649.500 2987.500 1647.352 C 2989.700 1646.171, 2993.461 1643.108, 2995.858 1640.546 L 3000.216 1635.887 3000.348 1627.194 C 3000.455 1620.186, 3000.094 1617.821, 2998.490 1615 C 2995.521 1609.778, 2991.554 1606.489, 2985.368 1604.122 C 2979.845 1602.009, 2979.421 1602, 2881.661 1602.102 C 2827.672 1602.159, 2782.150 1602.533, 2780.500 1602.935 M 2834 1605.971 C 2778.370 1606.521, 2777.867 1606.562, 2773.251 1610.942 C 2768.746 1615.217, 2766.761 1620.761, 2767.166 1627.936 C 2767.613 1635.840, 2770.095 1639.973, 2776.334 1643.200 L 2780.500 1645.356 2881.500 1645.428 C 2979.257 1645.498, 2982.628 1645.438, 2986.500 1643.573 C 2993.788 1640.062, 2997 1634.742, 2997 1626.181 C 2997 1616.453, 2993.996 1611.598, 2985.652 1607.844 C 2980.507 1605.529, 2980.435 1605.526, 2934 1605.484 C 2908.425 1605.461, 2863.425 1605.680, 2834 1605.971 M 2350.500 1606.718 C 2344.737 1608.118, 2339.299 1611.332, 2337 1614.696 C 2334.795 1617.922, 2334.500 1619.402, 2334.500 1627.254 L 2334.500 1636.154 2338.170 1639.517 C 2340.188 1641.366, 2343.689 1643.378, 2345.951 1643.987 C 2348.822 1644.760, 2380.222 1645.108, 2450.038 1645.142 C 2546.944 1645.188, 2550.128 1645.130, 2553.757 1643.257 C 2555.816 1642.194, 2558.963 1639.416, 2560.750 1637.084 C 2563.731 1633.196, 2564 1632.241, 2564 1625.566 C 2564 1618.809, 2563.753 1617.964, 2560.553 1613.774 C 2554.210 1605.467, 2561.645 1605.985, 2450.730 1606.116 C 2396.703 1606.180, 2351.600 1606.451, 2350.500 1606.718 M 2643.021 1607.107 C 2636.197 1609.854, 2632.988 1616.152, 2633.033 1626.710 C 2633.062 1633.554, 2633.402 1634.985, 2635.826 1638.492 C 2640.147 1644.743, 2641.121 1644.969, 2663.849 1644.985 C 2686.508 1645.002, 2688.790 1644.505, 2692.742 1638.696 C 2695.465 1634.693, 2696.489 1628.067, 2695.548 1620.535 C 2694.615 1613.069, 2690.649 1608.891, 2682.912 1607.226 C 2676.327 1605.808, 2646.468 1605.719, 2643.021 1607.107" stroke="none" fill="#000000" fill-rule="evenodd"/><path d="M 3091 1501.500 L 3091 1724 3354.750 1723.985 C 3499.813 1723.976, 3618.950 1723.639, 3619.500 1723.235 C 3620.146 1722.760, 3620.500 1702.760, 3620.500 1666.750 C 3620.500 1636.087, 3620.500 1610.890, 3620.500 1610.756 C 3620.500 1610.622, 3531.175 1610.285, 3422 1610.006 L 3223.500 1609.500 3223.233 1584.887 C 3223.017 1565.048, 3223.231 1560.053, 3224.332 1559.139 C 3225.339 1558.304, 3277.922 1557.938, 3423.867 1557.752 L 3622.035 1557.500 3622.035 1501.500 L 3622.035 1445.500 3422.767 1445 L 3223.500 1444.500 3223.218 1421 C 3223.063 1408.075, 3223.184 1396.487, 3223.487 1395.250 L 3224.038 1393 3423.019 1393 L 3622 1393 3622 1336 L 3622 1279 3356.500 1279 L 3091 1279 3091 1501.500 M 3684.249 1500.625 C 3684.714 1684.785, 3685.036 1722.408, 3686.154 1723.117 C 3687.563 1724.009, 4128.849 1724.379, 4131.168 1723.489 C 4132.264 1723.069, 4132.411 1712.999, 4132 1666.739 L 4131.500 1610.500 3976.057 1610.247 C 3853.228 1610.047, 3820.447 1609.732, 3819.817 1608.747 C 3819.379 1608.061, 3819.024 1533.700, 3819.028 1443.500 L 3819.036 1279.500 3751.362 1279.243 L 3683.689 1278.986 3684.249 1500.625 M 4192.997 1279.750 C 4192.995 1279.888, 4192.992 1379.787, 4192.990 1501.750 L 4192.987 1723.500 4457.243 1723.500 L 4721.500 1723.500 4721.500 1667 L 4721.500 1610.500 4523.500 1610 L 4325.500 1609.500 4325.232 1584.570 C 4325.025 1565.293, 4325.252 1559.458, 4326.232 1558.835 C 4326.929 1558.393, 4416.712 1558.024, 4525.750 1558.015 L 4724 1558 4724 1501.500 L 4724 1445 4525.750 1444.985 C 4416.712 1444.976, 4326.929 1444.607, 4326.232 1444.165 C 4325.252 1443.542, 4325.025 1437.707, 4325.232 1418.430 L 4325.500 1393.500 4524.758 1393.248 L 4724.017 1392.995 4723.758 1336.248 L 4723.500 1279.500 4458.250 1279.500 C 4312.363 1279.500, 4192.999 1279.612, 4192.997 1279.750 M 4785.997 1279.500 C 4785.995 1279.775, 4785.992 1379.787, 4785.990 1501.750 L 4785.987 1723.500 5049.981 1723.500 L 5313.975 1723.500 5314.181 1667 L 5314.387 1610.500 5116.444 1610 L 4918.500 1609.500 4918 1606 C 4917.725 1604.075, 4917.725 1555.475, 4918 1498 L 4918.500 1393.500 5117.471 1393 L 5316.443 1392.500 5316.549 1336.341 L 5316.655 1280.181 5313.703 1279.591 C 5310.137 1278.877, 4786.001 1278.787, 4785.997 1279.500" stroke="none" fill="#dbdbdb" fill-rule="evenodd"/><path d="M 1736.209 1275.850 C 1734.355 1277.026, 1734.160 1604.283, 1736.012 1606.514 C 1737.088 1607.811, 1760.958 1608.026, 1927.870 1608.247 L 2118.500 1608.500 2118.758 1665.408 C 2118.940 1705.411, 2119.348 1722.714, 2120.131 1723.658 C 2121.041 1724.755, 2132.513 1724.997, 2182.872 1724.985 C 2216.768 1724.976, 2245.046 1724.622, 2245.713 1724.198 C 2247.595 1723.003, 2247.716 1278.074, 2245.836 1276.866 C 2244.150 1275.784, 2134.943 1276.213, 2133.250 1277.309 C 2132.263 1277.948, 2132 1300.564, 2132 1384.859 C 2132 1466.546, 2131.718 1491.882, 2130.800 1492.800 C 2129.878 1493.722, 2097.774 1494, 1992.382 1494 C 1916.912 1494, 1854.452 1493.727, 1853.582 1493.393 C 1852.153 1492.845, 1852 1482.405, 1852 1385.464 C 1852 1289.233, 1851.838 1277.980, 1850.429 1276.571 C 1849.037 1275.180, 1842.475 1275.002, 1793.179 1275.015 C 1762.555 1275.024, 1736.919 1275.399, 1736.209 1275.850 M 3682.950 1277.450 C 3682.354 1278.046, 3682.092 1357.288, 3682.247 1489.950 L 3682.493 1701.500 3682.997 1489.715 L 3683.500 1277.930 3751.435 1277.950 C 3788.799 1277.961, 3819.736 1278.336, 3820.182 1278.782 C 3820.629 1279.229, 3821.108 1353.598, 3821.247 1444.047 L 3821.500 1608.500 3977.500 1609.008 C 4063.300 1609.287, 4133.613 1609.625, 4133.750 1609.758 C 4133.887 1609.891, 4134 1635.612, 4134 1666.917 C 4134 1711.514, 4133.729 1723.943, 4132.750 1724.338 C 4131.808 1724.718, 4131.799 1724.862, 4132.715 1724.921 C 4133.383 1724.964, 4134.362 1724.191, 4134.891 1723.203 C 4135.474 1722.115, 4135.851 1699.851, 4135.847 1666.786 C 4135.843 1622.716, 4135.583 1611.812, 4134.502 1610.333 C 4133.215 1608.573, 4126.967 1608.480, 3977.831 1608 L 3822.500 1607.500 3822.248 1443.048 C 3822.109 1352.599, 3821.613 1278.213, 3821.145 1277.745 C 3819.943 1276.543, 3684.147 1276.253, 3682.950 1277.450 M 144.250 1277.750 C 212.863 1277.892, 325.138 1277.892, 393.750 1277.750 C 462.363 1277.608, 406.225 1277.492, 269 1277.492 C 131.775 1277.492, 75.638 1277.608, 144.250 1277.750 M 679.315 1277.749 C 689.664 1277.912, 706.314 1277.911, 716.315 1277.748 C 726.317 1277.585, 717.850 1277.452, 697.500 1277.453 C 677.150 1277.453, 668.967 1277.586, 679.315 1277.749 M 960.250 1277.749 C 973.862 1277.906, 996.138 1277.906, 1009.750 1277.749 C 1023.362 1277.592, 1012.225 1277.463, 985 1277.463 C 957.775 1277.463, 946.638 1277.592, 960.250 1277.749 M 1231.750 1277.750 C 1266.537 1277.896, 1323.462 1277.896, 1358.250 1277.750 C 1393.037 1277.604, 1364.575 1277.485, 1295 1277.485 C 1225.425 1277.485, 1196.962 1277.604, 1231.750 1277.750 M 1505.750 1277.750 C 1526.787 1277.900, 1561.213 1277.900, 1582.250 1277.750 C 1603.287 1277.599, 1586.075 1277.476, 1544 1277.476 C 1501.925 1277.476, 1484.713 1277.599, 1505.750 1277.750 M 3090.200 1278.200 C 3088.453 1279.947, 3088.453 1723.053, 3090.200 1724.800 C 3090.945 1725.545, 3094.072 1725.932, 3098.450 1725.820 L 3105.500 1725.640 3098 1725.070 L 3090.500 1724.500 3090.500 1501.500 L 3090.500 1278.500 3355.948 1278.248 C 3512.697 1278.099, 3621.766 1278.366, 3622.298 1278.898 C 3622.794 1279.394, 3623.200 1282.575, 3623.200 1285.967 C 3623.200 1289.358, 3623.444 1291.889, 3623.742 1291.591 C 3624.896 1290.438, 3624.093 1278.675, 3622.804 1277.858 C 3622.087 1277.403, 3502.227 1277.024, 3356.450 1277.015 C 3151.616 1277.003, 3091.127 1277.273, 3090.200 1278.200 M 4191.667 1277.667 C 4191.300 1278.033, 4191.007 1278.821, 4191.015 1279.417 C 4191.024 1280.058, 4191.355 1279.989, 4191.825 1279.248 C 4192.459 1278.250, 4246.468 1278.047, 4458.560 1278.248 L 4724.500 1278.500 4724.500 1336.500 L 4724.500 1394.500 4525.500 1395 L 4326.500 1395.500 4326.231 1418.929 C 4326.024 1437.006, 4326.252 1442.543, 4327.231 1443.164 C 4327.929 1443.607, 4417.675 1443.976, 4526.667 1443.985 C 4660.988 1443.995, 4724.997 1444.330, 4725.342 1445.025 C 4725.621 1445.589, 4725.734 1445.476, 4725.592 1444.775 C 4725.384 1443.749, 4686.514 1443.402, 4526.417 1443 L 4327.500 1442.500 4327.232 1419.250 L 4326.963 1396 4525.359 1396 C 4693.556 1396, 4723.931 1395.788, 4724.909 1394.609 C 4726.570 1392.608, 4726.584 1280.408, 4724.923 1278.408 C 4723.924 1277.204, 4685.274 1277, 4458.044 1277 C 4311.903 1277, 4192.033 1277.300, 4191.667 1277.667 M 4918.250 1277.750 C 4991.262 1277.892, 5110.737 1277.892, 5183.750 1277.750 C 5256.762 1277.608, 5197.025 1277.493, 5051 1277.493 C 4904.975 1277.493, 4845.237 1277.608, 4918.250 1277.750 M 5317.766 1335.460 C 5317.986 1382.878, 5317.797 1392.924, 5316.666 1393.862 C 5315.662 1394.696, 5263.040 1395.062, 5117.401 1395.248 L 4919.500 1395.500 4919.245 1501.750 C 4919.105 1560.188, 4919.105 1608.110, 4919.245 1608.244 C 4919.385 1608.378, 5008.825 1608.715, 5118 1608.994 L 5316.500 1609.500 5316.758 1666.675 C 5317.001 1720.493, 5316.913 1723.881, 5315.258 1724.368 C 5313.878 1724.774, 5313.930 1724.841, 5315.500 1724.679 C 5317.470 1724.476, 5317.504 1723.635, 5317.777 1668.486 C 5317.929 1637.694, 5317.808 1611.489, 5317.508 1610.252 L 5316.963 1608.005 5118.732 1607.752 L 4920.500 1607.500 4920.245 1501.750 L 4919.991 1396 5117.561 1396 C 5251.839 1396, 5315.751 1395.668, 5317.066 1394.965 C 5318.944 1393.960, 5319 1392.256, 5319 1336.524 C 5319 1304.951, 5318.663 1278.909, 5318.250 1278.654 C 5317.837 1278.399, 5317.620 1303.962, 5317.766 1335.460 M 13.462 1326 C 13.462 1352.125, 13.591 1362.813, 13.749 1349.750 C 13.907 1336.688, 13.907 1315.313, 13.749 1302.250 C 13.591 1289.188, 13.462 1299.875, 13.462 1326 M 524.488 1442 C 524.488 1531.925, 524.606 1568.712, 524.750 1523.750 C 524.894 1478.787, 524.894 1405.212, 524.750 1360.250 C 524.606 1315.287, 524.488 1352.075, 524.488 1442 M 587.481 1377 C 587.481 1431.175, 587.602 1453.337, 587.750 1426.250 C 587.898 1399.162, 587.898 1354.837, 587.750 1327.750 C 587.602 1300.662, 587.481 1322.825, 587.481 1377 M 1098.491 1501.500 C 1098.491 1624.150, 1098.608 1674.474, 1098.750 1613.330 C 1098.892 1552.187, 1098.892 1451.837, 1098.750 1390.330 C 1098.608 1328.824, 1098.491 1378.850, 1098.491 1501.500 M 1161.485 1405 C 1161.485 1474.575, 1161.604 1503.037, 1161.750 1468.250 C 1161.896 1433.462, 1161.896 1376.537, 1161.750 1341.750 C 1161.604 1306.962, 1161.485 1335.425, 1161.485 1405 M 1672.491 1501.500 C 1672.491 1622.500, 1672.608 1671.852, 1672.750 1611.170 C 1672.892 1550.489, 1672.892 1451.489, 1672.750 1391.170 C 1672.608 1330.852, 1672.491 1380.500, 1672.491 1501.500 M 4191.488 1452 C 4191.488 1541.925, 4191.606 1578.712, 4191.750 1533.750 C 4191.894 1488.787, 4191.894 1415.212, 4191.750 1370.250 C 4191.606 1325.287, 4191.488 1362.075, 4191.488 1452 M 2343.713 1359.622 C 2332.997 1362.214, 2324.177 1369.744, 2318.804 1380.888 C 2315.852 1387.013, 2315.746 1387.674, 2316.255 1396.902 C 2316.660 1404.263, 2317.329 1407.581, 2319.098 1411.013 C 2324.290 1421.085, 2329.197 1426.150, 2336.720 1429.203 C 2346.728 1433.265, 2344.685 1433.194, 2449.508 1433.146 C 2547.141 1433.102, 2551.058 1433.029, 2556.769 1431.154 C 2565.294 1428.355, 2567.939 1426.756, 2573.021 1421.328 C 2578.065 1415.940, 2581 1411.147, 2581 1408.296 C 2581 1407.253, 2581.525 1405.875, 2582.167 1405.233 C 2582.887 1404.513, 2583.314 1400.708, 2583.282 1395.283 C 2583.232 1386.629, 2582.327 1383.435, 2577.675 1375.495 C 2573.821 1368.917, 2561.738 1360, 2556.678 1360 C 2555.270 1360, 2553.840 1359.550, 2553.500 1359 C 2553.094 1358.343, 2518.026 1358.038, 2451.191 1358.111 C 2367.734 1358.202, 2348.462 1358.473, 2343.713 1359.622 M 2641 1359.176 C 2637.975 1359.739, 2634.790 1360.830, 2633.921 1361.600 C 2633.053 1362.370, 2631.850 1363, 2631.248 1363 C 2629.451 1363, 2624.349 1367.756, 2620.452 1373.066 C 2614.509 1381.161, 2611.890 1395.521, 2614.628 1405 C 2615.343 1407.475, 2616.159 1410.625, 2616.441 1412 C 2616.724 1413.375, 2619.408 1417.237, 2622.408 1420.582 C 2631.665 1430.907, 2641.636 1433.966, 2666 1433.955 C 2687.941 1433.944, 2700.135 1429.662, 2707.906 1419.238 C 2713.157 1412.196, 2715.249 1404.297, 2714.723 1393.500 C 2713.976 1378.181, 2707.558 1368.140, 2694.500 1361.864 L 2687.500 1358.500 2667 1358.326 C 2655.725 1358.231, 2644.025 1358.613, 2641 1359.176 M 2776.500 1359.224 C 2766.718 1361.633, 2756.862 1368.792, 2752.717 1376.500 C 2746.581 1387.907, 2745.612 1395.395, 2748.929 1405.776 C 2753.281 1419.401, 2761.146 1426.918, 2776.500 1432.127 C 2779.758 1433.232, 2798.592 1433.490, 2878 1433.514 C 2977.749 1433.545, 2989.549 1433.148, 2994 1429.607 C 2994.825 1428.951, 2996.625 1427.845, 2998 1427.151 C 3003.313 1424.467, 3011 1416.056, 3011 1412.926 C 3011 1411.788, 3011.634 1410.223, 3012.409 1409.449 C 3014.107 1407.751, 3015.516 1393.015, 3014.536 1387.213 C 3014.162 1384.997, 3013.227 1382.355, 3012.459 1381.342 C 3011.692 1380.329, 3011.049 1378.783, 3011.032 1377.906 C 3010.989 1375.769, 3002.377 1366.894, 2997.134 1363.584 C 2994.816 1362.122, 2990.801 1360.402, 2988.210 1359.763 C 2982.088 1358.253, 2782.506 1357.745, 2776.500 1359.224 M 2347 1373.160 C 2340.292 1375.909, 2338.016 1377.521, 2334.757 1381.829 C 2330.739 1387.140, 2329.471 1392.609, 2330.446 1400.417 C 2330.981 1404.699, 2331.909 1406.574, 2335.560 1410.747 C 2343.559 1419.891, 2335.800 1419.329, 2450.759 1419.092 C 2546.898 1418.893, 2551.279 1418.805, 2555.302 1416.988 C 2560.995 1414.416, 2562.216 1413.305, 2565.860 1407.381 C 2568.431 1403.203, 2569 1401.230, 2569 1396.486 C 2569 1385.214, 2561.953 1375.652, 2551.807 1373.155 C 2545.594 1371.626, 2350.732 1371.631, 2347 1373.160 M 2642.868 1373.456 C 2637.856 1374.837, 2631.656 1380.677, 2629.129 1386.396 C 2627.074 1391.047, 2627.485 1402.070, 2629.889 1406.782 C 2632.472 1411.846, 2637.960 1416.617, 2642.723 1417.940 C 2647.956 1419.393, 2681.797 1419.310, 2686.101 1417.834 C 2690.808 1416.219, 2695.804 1412.259, 2697.768 1408.586 C 2698.676 1406.889, 2699.719 1401.900, 2700.087 1397.500 C 2700.649 1390.767, 2700.440 1388.754, 2698.770 1384.787 C 2696.536 1379.481, 2692.294 1375.788, 2685.860 1373.548 C 2680.265 1371.599, 2649.839 1371.534, 2642.868 1373.456 M 2778 1373.650 C 2772.573 1375.536, 2765 1381.475, 2765 1383.844 C 2765 1384.785, 2764.389 1386.443, 2763.642 1387.527 C 2759.350 1393.761, 2761.540 1405.545, 2768.091 1411.463 C 2770.187 1413.356, 2773.808 1415.827, 2776.138 1416.953 C 2780.322 1418.974, 2781.651 1419, 2880.704 1419 C 2958.069 1419, 2981.988 1418.714, 2985.213 1417.750 C 2987.868 1416.956, 2991.282 1414.623, 2994.568 1411.357 C 2999.189 1406.764, 2999.817 1405.623, 3000.433 1400.692 C 3001.695 1390.590, 2998.958 1382.701, 2992.356 1377.410 C 2990.235 1375.711, 2987.150 1373.933, 2985.500 1373.460 C 2983.850 1372.987, 2937.500 1372.484, 2882.500 1372.343 C 2793.930 1372.115, 2781.986 1372.264, 2778 1373.650 M 201.828 1389.750 C 239.959 1389.895, 302.059 1389.895, 339.828 1389.750 C 377.598 1389.605, 346.400 1389.486, 270.500 1389.486 C 194.600 1389.486, 163.698 1389.605, 201.828 1389.750 M 775.828 1389.750 C 813.959 1389.895, 876.059 1389.895, 913.828 1389.750 C 951.598 1389.605, 920.400 1389.486, 844.500 1389.486 C 768.600 1389.486, 737.698 1389.605, 775.828 1389.750 M 1349.828 1389.750 C 1387.959 1389.895, 1450.059 1389.895, 1487.828 1389.750 C 1525.598 1389.605, 1494.400 1389.486, 1418.500 1389.486 C 1342.600 1389.486, 1311.698 1389.605, 1349.828 1389.750 M 3622.655 1393.457 C 3622.124 1394.841, 3601.547 1395, 3423.531 1395 C 3235.090 1395, 3225.004 1395.089, 3225.079 1396.750 C 3225.126 1397.795, 3225.361 1397.997, 3225.662 1397.250 C 3226.063 1396.256, 3266.661 1396, 3423.961 1396 C 3599.952 1396, 3621.895 1395.832, 3623.020 1394.476 C 3623.716 1393.638, 3624.051 1392.718, 3623.766 1392.433 C 3623.481 1392.147, 3622.981 1392.608, 3622.655 1393.457 M 410.441 1425 C 410.441 1440.675, 410.579 1447.088, 410.748 1439.250 C 410.917 1431.412, 410.917 1418.588, 410.748 1410.750 C 410.579 1402.912, 410.441 1409.325, 410.441 1425 M 1278.488 1555.500 C 1278.488 1641.850, 1278.606 1677.027, 1278.750 1633.671 C 1278.894 1590.316, 1278.894 1519.666, 1278.750 1476.671 C 1278.606 1433.677, 1278.488 1469.150, 1278.488 1555.500 M 3224.157 1437.128 C 3224.061 1439.963, 3224.523 1442.189, 3225.349 1442.875 C 3226.333 1443.692, 3280.457 1444.063, 3425.054 1444.248 L 3623.410 1444.500 3624.105 1447 C 3624.662 1449.002, 3624.817 1449.101, 3624.885 1447.500 C 3624.931 1446.400, 3624.613 1444.939, 3624.177 1444.252 C 3623.550 1443.264, 3582.074 1442.953, 3424.443 1442.752 L 3225.500 1442.500 3224.907 1437.500 L 3224.314 1432.500 3224.157 1437.128 M 4725.241 1502.731 L 4725 1558.962 4722.250 1559.568 C 4717.813 1560.547, 4717.343 1560.837, 4720.059 1560.921 C 4721.466 1560.964, 4723.384 1560.438, 4724.320 1559.750 C 4725.893 1558.595, 4726.002 1554.264, 4725.752 1502.500 L 4725.483 1446.500 4725.241 1502.731 M 2425 1474.972 C 2422.525 1475.951, 2419.113 1477.371, 2417.417 1478.126 C 2413.454 1479.892, 2404 1488.386, 2404 1490.180 C 2404 1490.936, 2403.410 1492.443, 2402.690 1493.527 C 2398.513 1499.814, 2397.883 1516.008, 2401.425 1526 C 2403.211 1531.038, 2413.292 1543, 2415.751 1543 C 2416.626 1543, 2418.099 1543.685, 2419.024 1544.521 C 2423.952 1548.982, 2458.273 1550.696, 2472.500 1547.192 C 2483.008 1544.604, 2489.963 1539.326, 2496 1529.357 C 2499.492 1523.592, 2499.500 1523.549, 2499.475 1511.539 C 2499.452 1500.857, 2499.184 1498.993, 2497.091 1495 C 2490.768 1482.938, 2484.798 1477.852, 2473.265 1474.703 C 2464.168 1472.218, 2431.496 1472.400, 2425 1474.972 M 2558.819 1474.598 C 2555.694 1475.355, 2551.129 1477.330, 2548.674 1478.987 C 2546.219 1480.644, 2543.747 1482, 2543.182 1482 C 2542.616 1482, 2540.035 1485.187, 2537.445 1489.083 C 2529.447 1501.114, 2528.277 1515.697, 2534.338 1527.826 C 2536.927 1533.006, 2544.980 1541.553, 2548.197 1542.534 C 2549.464 1542.920, 2551.175 1543.775, 2552 1544.432 C 2556.414 1547.951, 2561.978 1548.135, 2664.155 1548.130 C 2736.571 1548.126, 2765.897 1547.803, 2769.503 1546.968 C 2775.188 1545.651, 2780.982 1542.851, 2785.815 1539.084 C 2789.263 1536.396, 2796 1526.011, 2796 1523.384 C 2796 1522.555, 2796.724 1519.661, 2797.610 1516.954 C 2798.940 1512.887, 2799.031 1510.962, 2798.134 1505.869 C 2797.536 1502.478, 2796.137 1497.957, 2795.024 1495.821 C 2793.911 1493.686, 2793 1491.485, 2793 1490.931 C 2793 1487.915, 2778.295 1476, 2774.574 1476 C 2773.123 1476, 2770.320 1475.325, 2768.346 1474.500 C 2765.230 1473.198, 2751.541 1473.015, 2664.628 1473.111 C 2583.325 1473.201, 2563.432 1473.480, 2558.819 1474.598 M 2856.295 1474.955 C 2846.784 1477.620, 2841.970 1481.628, 2835.223 1492.500 L 2831.500 1498.500 2831.581 1511 C 2831.670 1524.666, 2832.188 1526.416, 2838.660 1534.906 C 2842.301 1539.682, 2851.049 1546, 2854.022 1546 C 2855.038 1546, 2857.137 1546.482, 2858.685 1547.071 C 2863.133 1548.762, 2900.365 1548.427, 2906.632 1546.639 C 2913.467 1544.688, 2919.024 1541.056, 2923.193 1535.812 C 2930.387 1526.764, 2931.250 1523.983, 2931.361 1509.500 C 2931.417 1502.156, 2931.022 1499.660, 2929.215 1495.934 C 2927.997 1493.423, 2926.965 1490.723, 2926.921 1489.934 C 2926.878 1489.145, 2923.939 1485.942, 2920.391 1482.815 C 2915.261 1478.295, 2912.808 1476.877, 2908.423 1475.895 C 2905.390 1475.217, 2902.678 1474.288, 2902.395 1473.831 C 2902.113 1473.374, 2893.021 1473.049, 2882.191 1473.109 C 2866.790 1473.193, 2861.148 1473.596, 2856.295 1474.955 M 2426.092 1489.053 C 2419.066 1492.866, 2415.358 1497.641, 2413.506 1505.258 C 2411.867 1512.004, 2411.871 1512.588, 2413.596 1517.915 C 2415.676 1524.338, 2419.274 1528.673, 2425.284 1531.997 C 2429.227 1534.177, 2430.703 1534.342, 2448.073 1534.539 C 2462.203 1534.699, 2467.704 1534.397, 2471.073 1533.278 C 2481.979 1529.654, 2487.285 1519.132, 2485.482 1504.702 C 2484.911 1500.132, 2484.120 1498.521, 2480.650 1494.859 C 2474.165 1488.016, 2472.314 1487.571, 2449.500 1487.375 C 2431.734 1487.222, 2429.119 1487.410, 2426.092 1489.053 M 2557.770 1490.116 C 2550.710 1493.622, 2546.551 1499.029, 2544.938 1506.800 C 2543.887 1511.863, 2543.990 1513.079, 2545.925 1518.457 C 2548.617 1525.941, 2550.860 1528.354, 2558.524 1532.011 L 2564.590 1534.906 2663.545 1534.941 C 2773.362 1534.978, 2767.776 1535.307, 2775.935 1528.324 C 2781.095 1523.907, 2785.352 1515.053, 2784.481 1510.547 C 2782.350 1499.513, 2781.596 1497.848, 2777.040 1494.102 C 2767.833 1486.533, 2775.181 1486.984, 2663.467 1487.135 L 2563.500 1487.271 2557.770 1490.116 M 2857.797 1489.333 C 2849.765 1493.034, 2846.270 1498.210, 2845.399 1507.697 C 2844.631 1516.054, 2845.946 1521.283, 2850.072 1526.279 C 2856.070 1533.541, 2859.026 1534.369, 2880.500 1534.803 C 2899.352 1535.185, 2899.540 1535.167, 2904.680 1532.577 C 2910.993 1529.394, 2915.029 1524.359, 2917.336 1516.791 C 2918.958 1511.470, 2918.967 1510.655, 2917.464 1504.791 C 2915.624 1497.612, 2911.216 1492.251, 2904.465 1488.983 C 2900.800 1487.209, 2898.374 1487.009, 2881.434 1487.083 C 2864.230 1487.159, 2862.070 1487.364, 2857.797 1489.333 M 198.328 1497.750 C 234.533 1497.895, 293.483 1497.895, 329.328 1497.750 C 365.173 1497.604, 335.550 1497.485, 263.500 1497.485 C 191.450 1497.485, 162.123 1497.604, 198.328 1497.750 M 720.811 1497.748 C 728.681 1497.917, 741.281 1497.917, 748.811 1497.747 C 756.340 1497.578, 749.900 1497.439, 734.500 1497.440 C 719.100 1497.440, 712.940 1497.579, 720.811 1497.748 M 811.681 1497.749 C 824.980 1497.906, 847.030 1497.907, 860.681 1497.749 C 874.331 1497.592, 863.450 1497.463, 836.500 1497.463 C 809.550 1497.463, 798.381 1497.592, 811.681 1497.749 M 911.319 1497.749 C 924.419 1497.907, 945.569 1497.907, 958.319 1497.749 C 971.068 1497.591, 960.350 1497.461, 934.500 1497.462 C 908.650 1497.462, 898.218 1497.591, 911.319 1497.749 M 4329.500 1559.878 L 4326.500 1560.519 4326.232 1584.259 C 4326.084 1597.317, 4326.084 1608.110, 4326.232 1608.244 C 4326.379 1608.378, 4415.825 1608.715, 4525 1608.994 L 4723.500 1609.500 4723.758 1666.436 C 4723.962 1711.322, 4723.750 1723.541, 4722.758 1724.171 C 4721.842 1724.752, 4721.824 1724.974, 4722.691 1724.985 C 4723.346 1724.993, 4724.180 1724.517, 4724.545 1723.928 C 4725.603 1722.215, 4725.405 1610.005, 4724.341 1608.941 C 4723.768 1608.368, 4646.759 1607.907, 4525.452 1607.752 L 4327.500 1607.500 4327.232 1584.250 L 4326.963 1561 4329.232 1560.930 C 4330.479 1560.891, 4332.400 1560.473, 4333.500 1560 C 4335.841 1558.994, 4333.911 1558.935, 4329.500 1559.878 M 3225 1560.750 C 3225 1561.428, 3357.179 1561.425, 3543.500 1560.743 C 3582 1560.602, 3526.088 1560.377, 3419.250 1560.243 C 3312.412 1560.109, 3225 1560.338, 3225 1560.750 M 4430.750 1560.750 C 4483.138 1560.893, 4568.863 1560.893, 4621.250 1560.750 C 4673.638 1560.607, 4630.775 1560.490, 4526 1560.490 C 4421.225 1560.490, 4378.363 1560.607, 4430.750 1560.750 M 2344 1589.690 C 2335.594 1592.571, 2330.674 1595.489, 2325.350 1600.754 C 2322.427 1603.643, 2319.732 1607.243, 2319.360 1608.754 C 2318.988 1610.264, 2318.158 1612.400, 2317.517 1613.500 C 2316.875 1614.600, 2316.230 1619.795, 2316.083 1625.046 C 2315.835 1633.969, 2316.021 1635.011, 2318.942 1641.042 C 2324.614 1652.752, 2335.353 1661.184, 2346.097 1662.366 C 2354.716 1663.314, 2550.965 1663.046, 2555.500 1662.080 C 2561.099 1660.887, 2565.897 1658.234, 2571.919 1653 C 2578.769 1647.047, 2582.509 1639.248, 2583.595 1628.653 C 2584.265 1622.110, 2582.708 1615.587, 2578.479 1607.217 C 2575.547 1601.413, 2567.737 1594.704, 2560.852 1592.073 C 2557.358 1590.739, 2554.073 1589.276, 2553.550 1588.823 C 2553.028 1588.371, 2506.678 1588.033, 2450.550 1588.074 C 2361.338 1588.138, 2347.934 1588.341, 2344 1589.690 M 2644.500 1588.650 C 2636.064 1590.414, 2631.527 1592.579, 2626.348 1597.313 C 2618.699 1604.303, 2616.444 1608.278, 2614.461 1618.266 C 2612.862 1626.316, 2612.862 1627.294, 2614.455 1634.663 C 2616.511 1644.171, 2621.129 1651.523, 2628.580 1657.149 C 2632.819 1660.349, 2635.160 1661.290, 2641.623 1662.394 C 2650.217 1663.861, 2678.827 1663.765, 2687.500 1662.241 C 2697.267 1660.524, 2706.772 1652.664, 2711.742 1642.193 C 2715.188 1634.933, 2715.245 1634.607, 2714.800 1624.613 C 2714.402 1615.653, 2713.966 1613.681, 2711.173 1608.184 C 2706.182 1598.363, 2696.381 1591.158, 2685.098 1589.019 C 2679.990 1588.050, 2648.728 1587.766, 2644.500 1588.650 M 2776.316 1589.528 C 2762.608 1593.222, 2752.963 1602.797, 2748.456 1617.185 C 2746.934 1622.044, 2746.829 1623.964, 2747.733 1630.402 C 2749.115 1640.253, 2752.100 1646.402, 2758.381 1652.337 C 2765.804 1659.350, 2772.128 1662.018, 2783.803 1663.062 C 2789.136 1663.539, 2834.675 1663.936, 2885 1663.945 C 2987.193 1663.963, 2987.552 1663.943, 2997.071 1657.770 C 3003.831 1653.387, 3008.047 1648.946, 3011.568 1642.500 C 3013.862 1638.302, 3014.374 1635.945, 3014.764 1627.802 C 3015.167 1619.380, 3014.950 1617.529, 3013.114 1613.736 C 3011.951 1611.334, 3011 1608.879, 3011 1608.281 C 3011 1606.636, 3001.008 1596.168, 2997.180 1593.802 C 2995.330 1592.659, 2990.625 1590.885, 2986.725 1589.861 C 2980.032 1588.104, 2974.093 1588.004, 2880.568 1588.066 C 2799.060 1588.120, 2780.581 1588.379, 2776.316 1589.528 M 2349.113 1602.696 C 2347.801 1602.959, 2344.426 1604.413, 2341.613 1605.925 C 2332.827 1610.652, 2329.324 1618.285, 2330.512 1630.116 C 2331.169 1636.662, 2331.368 1637.058, 2336.401 1641.818 C 2345.660 1650.575, 2338.866 1650.106, 2451.766 1649.778 C 2559.411 1649.465, 2553.915 1649.773, 2561 1643.667 C 2566.956 1638.534, 2569 1633.861, 2569 1625.372 C 2569 1618.357, 2568.794 1617.670, 2565.250 1612.903 C 2562.922 1609.771, 2559.604 1606.861, 2556.500 1605.229 L 2551.500 1602.600 2451.500 1602.409 C 2396.500 1602.303, 2350.426 1602.433, 2349.113 1602.696 M 2644.535 1602.737 C 2640.523 1603.329, 2632.404 1610.308, 2629.834 1615.374 C 2628.282 1618.432, 2627.770 1621.207, 2627.858 1626.098 C 2628.002 1634.179, 2629.688 1638.394, 2634.675 1643.143 C 2640.347 1648.544, 2646.692 1650, 2664.566 1650 C 2683.082 1650, 2688.298 1648.607, 2695.046 1641.859 C 2699.023 1637.882, 2699.784 1636.469, 2700.301 1632.104 C 2701.539 1621.651, 2699.031 1612.852, 2693.380 1607.829 C 2692.346 1606.910, 2689.121 1605.222, 2686.213 1604.079 C 2681.537 1602.240, 2678.995 1602.017, 2664.213 1602.150 C 2655.021 1602.232, 2646.166 1602.496, 2644.535 1602.737 M 2780.500 1602.935 C 2761.953 1607.450, 2754.917 1631.423, 2768.800 1642.799 C 2777.559 1649.977, 2769.507 1649.500, 2882 1649.500 L 2983.500 1649.500 2987.500 1647.352 C 2989.700 1646.171, 2993.461 1643.108, 2995.858 1640.546 L 3000.216 1635.887 3000.348 1627.194 C 3000.455 1620.186, 3000.094 1617.821, 2998.490 1615 C 2995.521 1609.778, 2991.554 1606.489, 2985.368 1604.122 C 2979.845 1602.009, 2979.421 1602, 2881.661 1602.102 C 2827.672 1602.159, 2782.150 1602.533, 2780.500 1602.935 M 3225.030 1606.250 C 3225.014 1607.213, 3225.113 1608.110, 3225.250 1608.244 C 3225.387 1608.378, 3314.600 1608.715, 3423.500 1608.994 L 3621.500 1609.500 3622 1666 C 3622.428 1714.390, 3622.293 1722.679, 3621.059 1723.750 C 3619.815 1724.828, 3619.841 1725, 3621.241 1725 C 3622.135 1725, 3623.086 1724.213, 3623.356 1723.250 C 3624.305 1719.868, 3623.855 1611.598, 3622.885 1609.785 C 3621.973 1608.081, 3612.998 1608, 3424.515 1608 C 3237.555 1608, 3227.045 1607.907, 3226.080 1606.250 C 3225.109 1604.583, 3225.059 1604.583, 3225.030 1606.250 M 4191.441 1672 C 4191.441 1687.675, 4191.579 1694.088, 4191.748 1686.250 C 4191.917 1678.412, 4191.917 1665.588, 4191.748 1657.750 C 4191.579 1649.912, 4191.441 1656.325, 4191.441 1672 M 43.820 1723.749 C 57.745 1723.906, 80.245 1723.906, 93.820 1723.749 C 107.394 1723.592, 96 1723.464, 68.500 1723.464 C 41 1723.464, 29.894 1723.592, 43.820 1723.749 M 623.750 1723.749 C 634.337 1723.911, 651.663 1723.911, 662.250 1723.749 C 672.837 1723.587, 664.175 1723.454, 643 1723.454 C 621.825 1723.454, 613.163 1723.587, 623.750 1723.749 M 1178.750 1723.748 C 1186.588 1723.917, 1199.412 1723.917, 1207.250 1723.748 C 1215.088 1723.579, 1208.675 1723.441, 1193 1723.441 C 1177.325 1723.441, 1170.912 1723.579, 1178.750 1723.748 M 4784 1723.781 C 4784 1724.430, 4785.012 1725.207, 4786.250 1725.506 C 4787.488 1725.806, 4824.950 1725.924, 4869.500 1725.769 L 4950.500 1725.488 4868.450 1725.244 C 4806.243 1725.059, 4786.110 1724.710, 4785.200 1723.800 C 4784.288 1722.888, 4784 1722.884, 4784 1723.781 M 1018.819 1724.749 C 1032.195 1724.907, 1053.795 1724.907, 1066.819 1724.749 C 1079.844 1724.591, 1068.900 1724.462, 1042.500 1724.462 C 1016.100 1724.463, 1005.444 1724.592, 1018.819 1724.749 M 1592.820 1724.749 C 1606.745 1724.906, 1629.245 1724.906, 1642.820 1724.749 C 1656.394 1724.592, 1645 1724.464, 1617.500 1724.464 C 1590 1724.464, 1578.894 1724.592, 1592.820 1724.749 M 3795.250 1725.750 C 3817.112 1725.900, 3852.887 1725.900, 3874.750 1725.750 C 3896.612 1725.599, 3878.725 1725.476, 3835 1725.476 C 3791.275 1725.476, 3773.387 1725.599, 3795.250 1725.750 M 3963.813 1725.749 C 3972.785 1725.914, 3987.185 1725.914, 3995.813 1725.748 C 4004.441 1725.581, 3997.100 1725.446, 3979.500 1725.446 C 3961.900 1725.447, 3954.841 1725.583, 3963.813 1725.749 M 4258.325 1725.750 C 4281.328 1725.900, 4318.678 1725.899, 4341.325 1725.750 C 4363.971 1725.600, 4345.150 1725.477, 4299.500 1725.477 C 4253.850 1725.477, 4235.321 1725.600, 4258.325 1725.750 M 4603.250 1725.750 C 4624.012 1725.901, 4657.988 1725.901, 4678.750 1725.750 C 4699.512 1725.599, 4682.525 1725.475, 4641 1725.475 C 4599.475 1725.475, 4582.488 1725.599, 4603.250 1725.750" stroke="none" fill="#a42726" fill-rule="evenodd"/><path d="M 16.159 1277.831 L 13.818 1278.163 14.159 1499.998 C 14.347 1622.008, 14.746 1722.080, 15.047 1722.380 C 15.459 1722.792, 123.206 1723.441, 129.742 1723.070 C 130.712 1723.015, 131.040 1710.698, 131.242 1666.750 L 131.500 1610.500 327.216 1610.247 C 512.400 1610.009, 522.974 1609.901, 523.716 1608.247 C 524.147 1607.286, 524.275 1532.583, 524 1442.240 L 523.500 1277.981 271 1277.740 C 132.125 1277.608, 17.447 1277.649, 16.159 1277.831 M 588.417 1277.917 C 587.478 1278.855, 588.032 1721.902, 588.972 1722.483 C 589.507 1722.813, 615.455 1723.087, 646.633 1723.090 C 692.025 1723.095, 703.486 1722.838, 704.146 1721.798 C 704.599 1721.084, 704.976 1696.178, 704.985 1666.450 C 704.996 1625.762, 705.297 1612.103, 706.200 1611.200 C 707.122 1610.278, 739.172 1610.004, 844.450 1610.015 C 919.827 1610.024, 982.059 1610.385, 982.742 1610.819 C 983.701 1611.428, 984.042 1624.322, 984.242 1667.554 L 984.500 1723.500 1041.252 1723.758 L 1098.004 1724.017 1097.752 1501.008 L 1097.500 1277.999 843.167 1277.750 C 703.283 1277.612, 588.646 1277.688, 588.417 1277.917 M 1162.366 1278.500 C 1162.158 1279.050, 1162.103 1379.297, 1162.244 1501.271 L 1162.500 1723.041 1219.238 1723.232 C 1256.100 1723.357, 1276.328 1723.072, 1276.979 1722.421 C 1277.640 1721.760, 1278.071 1664.981, 1278.241 1556.172 C 1278.469 1410.565, 1278.678 1390.814, 1280 1389.979 C 1280.926 1389.393, 1333.957 1389.025, 1418.628 1389.015 C 1532.486 1389.003, 1555.945 1389.229, 1556.875 1390.349 C 1557.688 1391.329, 1558.063 1436.999, 1558.247 1557.599 L 1558.500 1723.500 1615.250 1723.758 C 1660.318 1723.963, 1672 1723.757, 1672.002 1722.758 C 1672.174 1627.476, 1671.901 1278.568, 1671.656 1278.322 C 1670.732 1277.398, 1162.717 1277.575, 1162.366 1278.500 M 3683.417 1277.917 C 3683.187 1278.146, 3683 1378.368, 3683 1500.631 C 3683 1719.388, 3683.031 1722.946, 3684.934 1723.965 C 3687.031 1725.087, 4129.506 1725.510, 4132.418 1724.393 C 4133.835 1723.849, 4134 1717.850, 4134 1666.893 C 4134 1635.602, 4133.887 1609.891, 4133.750 1609.758 C 4133.613 1609.625, 4063.300 1609.287, 3977.500 1609.008 L 3821.500 1608.500 3821.247 1443.717 C 3821.046 1312.491, 3820.738 1278.837, 3819.737 1278.452 C 3818.195 1277.861, 3684 1277.333, 3683.417 1277.917 M 3090.462 1279.250 C 3090.201 1279.938, 3090.103 1380.400, 3090.244 1502.500 L 3090.500 1724.500 3355.056 1724.752 C 3565.765 1724.952, 3619.907 1724.749, 3621.056 1723.752 C 3622.294 1722.679, 3622.429 1714.435, 3622 1666 L 3621.500 1609.500 3423.833 1609 C 3315.117 1608.725, 3225.792 1608.125, 3225.333 1607.667 C 3224.407 1606.740, 3224.162 1561.505, 3225.079 1560.588 C 3225.397 1560.270, 3314.811 1560.003, 3423.776 1559.995 C 3556.023 1559.986, 3622.101 1559.645, 3622.518 1558.971 C 3622.861 1558.416, 3623.222 1532.433, 3623.321 1501.231 L 3623.500 1444.500 3425.099 1444.248 C 3293.186 1444.080, 3226.291 1443.656, 3225.480 1442.984 C 3224.575 1442.232, 3224.331 1436.386, 3224.531 1420.236 C 3224.680 1408.281, 3224.846 1397.713, 3224.900 1396.750 C 3224.995 1395.090, 3235.155 1395, 3423.465 1395 C 3611.500 1395, 3621.973 1394.908, 3622.748 1393.250 C 3623.797 1391.009, 3623.722 1280.916, 3622.671 1279.250 C 3622.043 1278.255, 3567.700 1278, 3356.410 1278 C 3144.952 1278, 3090.841 1278.254, 3090.462 1279.250 M 4192.012 1279.248 C 4192.018 1279.937, 4191.957 1380.006, 4191.875 1501.624 C 4191.793 1623.242, 4192.039 1723.255, 4192.422 1723.874 C 4193.244 1725.205, 4720.665 1725.499, 4722.758 1724.171 C 4723.750 1723.541, 4723.962 1711.322, 4723.758 1666.436 L 4723.500 1609.500 4525 1608.994 C 4415.825 1608.715, 4326.387 1608.378, 4326.250 1608.244 C 4325.479 1607.492, 4326.147 1561.027, 4326.936 1560.540 C 4327.450 1560.222, 4416.663 1559.966, 4525.186 1559.971 C 4633.709 1559.976, 4723.055 1559.625, 4723.734 1559.191 C 4724.688 1558.581, 4724.975 1545.701, 4725 1502.451 C 4725.018 1471.678, 4725.025 1445.938, 4725.016 1445.250 C 4725.003 1444.254, 4684.666 1443.997, 4526.750 1443.985 C 4417.712 1443.976, 4327.929 1443.607, 4327.231 1443.164 C 4326.252 1442.543, 4326.024 1437.006, 4326.231 1418.929 L 4326.500 1395.500 4525.500 1395 L 4724.500 1394.500 4724.500 1336.500 L 4724.500 1278.500 4458.250 1278.248 C 4245.567 1278.047, 4192.002 1278.248, 4192.012 1279.248 M 4784.608 1279.580 C 4784.273 1280.451, 4784 1380.487, 4784 1501.882 C 4784 1672.218, 4784.274 1722.874, 4785.200 1723.800 C 4786.127 1724.727, 4846.174 1724.997, 5049.450 1724.986 C 5194.127 1724.979, 5313.516 1724.700, 5314.758 1724.368 L 5317.016 1723.762 5316.758 1666.631 L 5316.500 1609.500 5118 1608.994 C 5008.825 1608.715, 4919.385 1608.378, 4919.245 1608.244 C 4919.105 1608.110, 4919.105 1560.188, 4919.245 1501.750 L 4919.500 1395.500 5117.401 1395.248 C 5262.369 1395.063, 5315.664 1394.694, 5316.659 1393.868 C 5317.779 1392.939, 5317.971 1382.748, 5317.758 1335.621 L 5317.500 1278.500 5051.358 1278.248 C 4809.315 1278.019, 4785.160 1278.140, 4784.608 1279.580 M 3091 1501.500 L 3091 1724 3354.750 1723.985 C 3499.813 1723.976, 3618.950 1723.639, 3619.500 1723.235 C 3620.146 1722.760, 3620.500 1702.760, 3620.500 1666.750 C 3620.500 1636.087, 3620.500 1610.890, 3620.500 1610.756 C 3620.500 1610.622, 3531.175 1610.285, 3422 1610.006 L 3223.500 1609.500 3223.233 1584.887 C 3223.017 1565.048, 3223.231 1560.053, 3224.332 1559.139 C 3225.339 1558.304, 3277.922 1557.938, 3423.867 1557.752 L 3622.035 1557.500 3622.035 1501.500 L 3622.035 1445.500 3422.767 1445 L 3223.500 1444.500 3223.218 1421 C 3223.063 1408.075, 3223.184 1396.487, 3223.487 1395.250 L 3224.038 1393 3423.019 1393 L 3622 1393 3622 1336 L 3622 1279 3356.500 1279 L 3091 1279 3091 1501.500 M 3684.249 1500.625 C 3684.714 1684.785, 3685.036 1722.408, 3686.154 1723.117 C 3687.563 1724.009, 4128.849 1724.379, 4131.168 1723.489 C 4132.264 1723.069, 4132.411 1712.999, 4132 1666.739 L 4131.500 1610.500 3976.057 1610.247 C 3853.228 1610.047, 3820.447 1609.732, 3819.817 1608.747 C 3819.379 1608.061, 3819.024 1533.700, 3819.028 1443.500 L 3819.036 1279.500 3751.362 1279.243 L 3683.689 1278.986 3684.249 1500.625 M 4192.997 1279.750 C 4192.995 1279.888, 4192.992 1379.787, 4192.990 1501.750 L 4192.987 1723.500 4457.243 1723.500 L 4721.500 1723.500 4721.500 1667 L 4721.500 1610.500 4523.500 1610 L 4325.500 1609.500 4325.232 1584.570 C 4325.025 1565.293, 4325.252 1559.458, 4326.232 1558.835 C 4326.929 1558.393, 4416.712 1558.024, 4525.750 1558.015 L 4724 1558 4724 1501.500 L 4724 1445 4525.750 1444.985 C 4416.712 1444.976, 4326.929 1444.607, 4326.232 1444.165 C 4325.252 1443.542, 4325.025 1437.707, 4325.232 1418.430 L 4325.500 1393.500 4524.758 1393.248 L 4724.017 1392.995 4723.758 1336.248 L 4723.500 1279.500 4458.250 1279.500 C 4312.363 1279.500, 4192.999 1279.612, 4192.997 1279.750 M 4785.997 1279.500 C 4785.995 1279.775, 4785.992 1379.787, 4785.990 1501.750 L 4785.987 1723.500 5049.981 1723.500 L 5313.975 1723.500 5314.181 1667 L 5314.387 1610.500 5116.444 1610 L 4918.500 1609.500 4918 1606 C 4917.725 1604.075, 4917.725 1555.475, 4918 1498 L 4918.500 1393.500 5117.471 1393 L 5316.443 1392.500 5316.549 1336.341 L 5316.655 1280.181 5313.703 1279.591 C 5310.137 1278.877, 4786.001 1278.787, 4785.997 1279.500 M 132.250 1389.662 C 130.312 1390.444, 130.439 1495.289, 132.379 1496.900 C 133.986 1498.233, 408.281 1498.053, 409.616 1496.718 C 410.045 1496.288, 410.420 1472.310, 410.449 1443.433 C 410.493 1397.814, 410.303 1390.805, 409 1389.980 C 407.459 1389.005, 134.657 1388.691, 132.250 1389.662 M 706.250 1389.662 C 705.272 1390.057, 705 1401.764, 705 1443.476 C 705 1489.245, 705.206 1496.865, 706.457 1497.345 C 709.269 1498.424, 980.046 1498.046, 982.074 1496.960 C 983.938 1495.963, 984 1494.225, 984 1443.072 C 984 1395.795, 983.833 1390.150, 982.418 1389.607 C 980.526 1388.881, 708.051 1388.935, 706.250 1389.662" stroke="none" fill="#95b9e0" fill-rule="evenodd"/></svg>