<svg xmlns="http://www.w3.org/2000/svg" width="1920" height="1152" viewBox="0 0 1920 1152" version="1.1"><path d="M 176 504 L 109.500 504.500 109.243 575.389 L 108.987 646.279 110.116 647.639 L 111.245 649 129 649 L 146.755 649 147.853 647.678 L 148.950 646.355 149.225 629.428 L 149.500 612.500 212 612 L 274.500 611.500 274.759 557.750 L 275.017 504 274.259 503.977 L 273.500 503.955 258 503.727 L 242.500 503.500 176 504 M 671.199 503.744 L 679.899 504.076 689.199 503.746 L 698.500 503.415 680.500 503.413 L 662.500 503.411 671.199 503.744 M 820.269 503.693 L 822.038 504.154 823.269 503.656 L 824.500 503.158 821.500 503.195 L 818.500 503.232 820.269 503.693 M 375.993 504.747 L 457.987 505.012 458.253 576.256 L 458.520 647.500 458.510 576 L 458.500 504.500 376.250 504.491 L 294 504.482 375.993 504.747 M 477.672 504.661 L 477 505.333 477 576.560 L 477 647.786 478.582 648.393 L 480.164 649 497.547 649 L 514.930 649 516.035 646.935 L 517.139 644.871 516.917 593.685 L 516.694 542.500 560.338 542.239 L 603.982 541.979 604.241 595.239 L 604.500 648.500 623.500 648.500 L 642.500 648.500 642.500 576.500 L 642.500 504.500 560.422 504.244 L 478.345 503.988 477.672 504.661 M 661.227 556.691 L 661 609.882 661.750 610.346 L 662.500 610.810 662.247 576.155 L 661.995 541.500 661.724 522.500 L 661.454 503.500 661.227 556.691 M 699 505 L 699 506.333 699.667 505.667 L 700.333 505 699.667 504.333 L 699 503.667 699 505 M 788.624 505.539 L 788 507.164 788 540.112 L 788 573.060 743.595 572.780 L 699.190 572.500 699.654 573.250 L 700.118 574 744.522 574 L 788.925 574 789.213 539.250 L 789.500 504.500 789.374 504.207 L 789.247 503.914 788.624 505.539 M 1095.460 505.250 L 1094.982 506.500 1095.248 577 L 1095.514 647.500 1095.757 576.256 L 1096 505.011 1181.750 504.750 L 1267.500 504.489 1181.719 504.244 L 1095.937 504 1095.460 505.250 M 1285.467 505.231 L 1284.982 506.500 1285.248 577.500 L 1285.514 648.500 1285.757 576.750 L 1286 505 1308 505 L 1330 505 1330 558 L 1330 611 1380 611 L 1430 611 1430 629.500 L 1430 648 1358.250 648.243 L 1286.500 648.486 1357.943 648.750 L 1429.387 649.013 1430.126 648.257 L 1430.865 647.500 1431.100 629 L 1431.336 610.500 1381.418 610 L 1331.500 609.500 1331.500 557 L 1331.500 504.500 1308.726 504.231 L 1285.952 503.962 1285.467 505.231 M 1492.325 504.750 L 1535.150 505.022 1577.325 504.750 L 1619.500 504.478 1534.500 504.478 L 1449.500 504.478 1492.325 504.750 M 1725 504.747 L 1810 505.011 1810 523.506 L 1810 542 1746 542 L 1682 542 1682 576.500 L 1682 611 1745.500 611 L 1809 611 1809 629.500 L 1809 648 1724.250 648.244 L 1639.500 648.488 1723 648.769 L 1806.500 649.050 1808.750 648.506 L 1811 647.962 1811 629.540 L 1811 611.118 1810.050 610.531 L 1809.100 609.943 1746.050 609.985 L 1683 610.027 1683 576.521 L 1683 543.015 1746.750 542.757 L 1810.500 542.500 1810.500 523.500 L 1810.500 504.500 1725.250 504.492 L 1640 504.483 1725 504.747 M 110.395 551.250 L 110.842 597.500 110.921 622.773 L 111 648.045 129.250 647.773 L 147.500 647.500 147.773 629.250 L 148.045 611 211.023 611 L 274 611 274 558 L 274 505 191.974 505 L 109.948 505 110.395 551.250 M 478.243 576.250 L 478.500 647.500 496.750 647.773 L 515 648.045 515 595.604 L 515 543.164 515.607 541.582 L 516.214 540 560.607 540 L 605 540 605 594 L 605 648 623.500 648 L 642 648 642 576.500 L 642 505 559.993 505 L 477.987 505 478.243 576.250 M 826.474 576 L 826.474 647.500 826.750 611.750 L 827.025 576 826.750 540.250 L 826.474 504.500 826.474 576 M 1448.490 577 L 1448.500 648.500 1533.500 648.508 L 1618.500 648.517 1533.757 648.253 L 1449.013 647.989 1448.747 576.744 L 1448.480 505.500 1448.490 577 M 1620.225 523.250 L 1620 542 1556 542 L 1492 542 1492 550 L 1492 558 1556.250 557.758 L 1620.500 557.515 1556.750 557.250 L 1493 556.985 1493 549.993 L 1493 543 1556.531 543 L 1620.063 543 1620.555 541.716 L 1621.048 540.433 1620.749 522.466 L 1620.451 504.500 1620.225 523.250 M 1638.474 576.500 L 1638.474 648.500 1638.750 612.176 L 1639.025 575.853 1638.750 540.176 L 1638.474 504.500 1638.474 576.500 M 1267.225 523.750 L 1267 542 1203 542 L 1139 542 1139 550 L 1139 558 1203.250 557.758 L 1267.500 557.515 1203.750 557.250 L 1140 556.985 1140 549.993 L 1140 543 1203.531 543 L 1267.063 543 1267.556 541.715 L 1268.049 540.430 1267.749 522.965 L 1267.450 505.500 1267.225 523.750 M 293.237 575.816 L 293 645.131 294.035 647.066 L 295.070 649 312.913 649 L 330.755 649 331.853 647.678 L 332.950 646.355 333.225 629.428 L 333.500 612.500 376.500 612.500 L 419.500 612.500 420.036 630 L 420.572 647.500 420.786 629.250 L 421 611 376.523 611 L 332.045 611 331.773 629.250 L 331.500 647.500 313.250 647.773 L 295 648.045 294.767 647.773 L 294.534 647.500 294.003 577 L 293.473 506.500 293.237 575.816 M 699 507.500 L 699 508 699.500 508 L 700 508 700 507.500 L 700 507 699.500 507 L 699 507 699 507.500 M 699.079 510.583 L 699.158 512.500 699.683 511.188 L 700.208 509.875 699.604 509.271 L 699 508.667 699.079 510.583 M 699 513.500 L 699 514 699.500 514 L 700 514 700 513.500 L 700 513 699.500 513 L 699 513 699 513.500 M 699.272 523 L 699.272 527.500 699.706 525.250 L 700.139 523 699.706 520.750 L 699.272 518.500 699.272 523 M 856 530.121 L 853.500 531.115 850.762 533.733 L 848.025 536.350 847.431 539.516 L 846.837 542.682 847.944 546.790 L 849.050 550.899 852.275 553.200 L 855.500 555.500 889.331 555.800 L 923.163 556.100 927.488 554.006 L 931.814 551.912 933.520 548.317 L 935.226 544.722 934.693 540.749 L 934.160 536.777 931.387 533.882 L 928.614 530.987 925.057 529.999 L 921.500 529.011 890 529.069 L 858.500 529.127 856 530.121 M 950.500 530.350 L 947.500 531.745 945.168 534.274 L 942.836 536.803 942.299 540.804 L 941.763 544.806 944.040 548.858 L 946.318 552.910 950.179 554.455 L 954.040 556 960.052 556 L 966.064 556 969.510 554.560 L 972.956 553.120 974.974 549.810 L 976.993 546.500 976.996 543.399 L 977 540.298 975.957 537.305 L 974.913 534.312 971.758 531.979 L 968.603 529.646 961.051 529.301 L 953.500 528.955 950.500 530.350 M 994.643 530.028 L 991.785 530.885 989.790 532.690 L 987.795 534.495 986.398 537.198 L 985 539.901 985 541.930 L 985 543.960 986.590 547.934 L 988.181 551.909 992.406 553.955 L 996.631 556 1029.066 555.978 L 1061.500 555.956 1065.788 554.010 L 1070.075 552.064 1071.538 548.564 L 1073 545.064 1073 542.433 L 1073 539.802 1071.464 536.565 L 1069.928 533.328 1066.078 531.164 L 1062.228 529 1029.864 529.086 L 997.500 529.172 994.643 530.028 M 888 536.989 L 856.500 537.500 855.250 538.309 L 854 539.118 854 542.502 L 854 545.887 856.223 547.443 L 858.445 549 890.641 549 L 922.836 549 924.495 548.364 L 926.153 547.727 927.078 545.294 L 928.003 542.861 927.402 540.466 L 926.801 538.072 924.651 537.456 L 922.500 536.841 921 536.659 L 919.500 536.477 888 536.989 M 953.698 536.702 L 950.896 537.143 949.946 539.641 L 948.997 542.139 949.613 544.596 L 950.230 547.053 952.049 548.026 L 953.869 549 960.378 549 L 966.887 549 968.443 546.777 L 970 544.555 970 542.469 L 970 540.382 968.750 538.795 L 967.500 537.207 962 536.734 L 956.500 536.261 953.698 536.702 M 993.477 539.394 L 991.909 541.788 992.569 544.420 L 993.230 547.053 995.049 548.026 L 996.869 549 1029.212 549 L 1061.555 549 1063.777 547.443 L 1066 545.887 1066 542.643 L 1066 539.400 1064.800 538.200 L 1063.600 537 1029.323 537 L 995.046 537 993.477 539.394 M 148 557.510 L 148 575.021 192.750 574.760 L 237.500 574.500 237.797 560.500 L 238.094 546.500 237.502 543.250 L 236.909 540 192.455 540 L 148 540 148 557.510 M 332.667 540.667 L 332 541.333 332 558.167 L 332 575 376.500 575 L 421 575 420.788 563.750 L 420.575 552.500 420.254 563.250 L 419.932 574 376.466 574 L 333 574 333 557.980 L 333 541.959 377 542.230 L 421.001 542.500 421 541.250 L 421 540 377.167 540 L 333.333 540 332.667 540.667 M 149 558 L 149 574 192.500 574 L 236 574 236 558 L 236 542 192.500 542 L 149 542 149 558 M 699.195 550.500 L 699.232 553.500 699.693 551.731 L 700.154 549.962 699.656 548.731 L 699.158 547.500 699.195 550.500 M 699 555 L 699 556.333 699.667 555.667 L 700.333 555 699.667 554.333 L 699 553.667 699 555 M 699.624 558.539 L 699 560.164 699.063 561.332 L 699.127 562.500 700.085 560.105 L 701.043 557.710 700.645 557.312 L 700.247 556.914 699.624 558.539 M 1267.225 576.750 L 1267 595 1203 595 L 1139 595 1139 602.993 L 1139 610.985 1202.750 611.243 L 1266.500 611.500 1267.123 616.500 L 1267.747 621.500 1267.623 616 L 1267.500 610.500 1204 610 L 1140.500 609.500 1140.204 602.750 L 1139.909 596 1203.486 596 L 1267.063 596 1267.556 594.715 L 1268.049 593.430 1267.749 575.965 L 1267.450 558.500 1267.225 576.750 M 1620.225 576.750 L 1620 595 1556 595 L 1492 595 1492 603 L 1492 611 1556.250 610.758 L 1620.500 610.515 1556.750 610.250 L 1493 609.985 1493 602.993 L 1493 596 1556.531 596 L 1620.063 596 1620.556 594.715 L 1621.049 593.430 1620.749 575.965 L 1620.450 558.500 1620.225 576.750 M 699.142 567.220 L 698.893 571.440 699.314 570.970 L 699.735 570.500 700.413 566.750 L 701.091 563 700.241 563 L 699.391 563 699.142 567.220 M 880.500 568.275 L 876.500 570.518 874.694 574.203 L 872.888 577.889 873.569 581.516 L 874.249 585.143 876.657 588.005 L 879.065 590.866 882.674 592.057 L 886.283 593.248 892.952 592.771 L 899.621 592.294 902.362 590.499 L 905.102 588.703 906.551 585.901 L 908 583.099 907.998 579.800 L 907.997 576.500 906.248 573.085 L 904.500 569.670 901.016 567.835 L 897.531 566 891.016 566.016 L 884.500 566.033 880.500 568.275 M 923.212 568.097 L 918.924 570.247 917.351 573.289 L 915.777 576.331 916.243 581.176 L 916.708 586.020 918.604 588.148 L 920.500 590.276 923.718 591.638 L 926.936 593 959.403 593 L 991.870 593 994.685 591.936 L 997.500 590.873 1000.183 588.314 L 1002.866 585.755 1003.499 582.004 L 1004.133 578.254 1002.680 574.776 L 1001.226 571.297 997.863 568.899 L 994.500 566.500 961 566.224 L 927.500 565.948 923.212 568.097 M 1019.424 567.895 L 1015.348 569.746 1013.674 573.274 L 1012 576.802 1012 579.433 L 1012 582.064 1013.424 585.473 L 1014.849 588.882 1018.885 590.941 L 1022.920 593 1029.210 592.998 L 1035.500 592.997 1038.929 591.248 L 1042.358 589.500 1044.346 586.788 L 1046.333 584.077 1046.333 579.500 L 1046.333 574.923 1044.346 572.212 L 1042.358 569.500 1038.929 567.752 L 1035.500 566.003 1029.500 566.024 L 1023.500 566.044 1019.424 567.895 M 882.571 574.571 L 881 576.143 881 580.036 L 881 583.930 882.934 584.965 L 884.869 586 891.279 586 L 897.690 586 899.415 584.094 L 901.141 582.187 900.820 578.866 L 900.500 575.546 898 574.288 L 895.500 573.029 889.821 573.015 L 884.143 573 882.571 574.571 M 926 574.288 L 923.500 575.546 923.195 579.178 L 922.891 582.810 925.168 584.405 L 927.445 586 959.500 586 L 991.555 586 993.777 584.443 L 996 582.887 996 579.500 L 996 576.113 993.777 574.557 L 991.555 573 960.027 573.015 L 928.500 573.029 926 574.288 M 1021.223 574.557 L 1019 576.113 1019 579.500 L 1019 582.887 1021.223 584.443 L 1023.445 586 1029.288 586 L 1035.131 586 1037.066 584.965 L 1039 583.930 1039 579.440 L 1039 574.950 1036.435 573.975 L 1033.870 573 1028.657 573 L 1023.445 573 1021.223 574.557 M 855.538 604.499 L 851.577 605.910 849.810 608.205 L 848.044 610.500 847.417 613.717 L 846.790 616.934 848.145 621.217 L 849.500 625.500 853.962 627.750 L 858.424 630 890.744 630 L 923.064 630 926.282 628.629 L 929.500 627.258 931.832 624.727 L 934.164 622.197 934.695 618.238 L 935.226 614.278 933.439 610.512 L 931.652 606.746 927.576 604.895 L 923.500 603.044 891.500 603.066 L 859.500 603.088 855.538 604.499 M 951.643 604.028 L 948.785 604.885 946.790 606.690 L 944.795 608.495 943.398 611.198 L 942 613.901 942 616.716 L 942 619.531 943.827 622.938 L 945.655 626.345 949.062 628.173 L 952.469 630 959.267 630 L 966.064 630 969.282 628.638 L 972.500 627.276 974.419 625.123 L 976.338 622.969 976.758 617.735 L 977.178 612.500 974.804 609 L 972.431 605.500 968.965 604.306 L 965.500 603.113 960 603.142 L 954.500 603.172 951.643 604.028 M 995.119 604.003 L 991.737 604.801 988.619 607.920 L 985.500 611.038 985.500 616.454 L 985.500 621.869 988.458 624.957 L 991.417 628.045 994.958 629.089 L 998.500 630.134 1031.500 629.817 L 1064.500 629.500 1067.771 627.047 L 1071.042 624.593 1072.150 620.893 L 1073.259 617.193 1072.603 613.698 L 1071.947 610.203 1070 607.727 L 1068.052 605.250 1063.583 604.125 L 1059.114 603 1028.807 603.102 L 998.500 603.205 995.119 604.003 M 723.500 610.988 L 783.500 611.500 783.774 629.456 L 784.048 647.412 785.274 648.190 L 786.500 648.969 806 648.767 L 825.500 648.564 805.500 648.032 L 785.500 647.500 785.226 629.544 L 784.952 611.588 783.726 610.810 L 782.500 610.031 723 610.253 L 663.500 610.476 723.500 610.988 M 856.223 611.557 L 854 613.113 854 616.434 L 854 619.755 855.653 621.128 L 857.306 622.500 890.741 622.500 L 924.176 622.500 926.088 620.139 L 928 617.778 928 616.078 L 928 614.377 925.961 612.189 L 923.922 610 891.184 610 L 858.445 610 856.223 611.557 M 951.750 611.080 L 950 612.099 950.015 615.800 L 950.031 619.500 950.979 621 L 951.927 622.500 959.542 622.500 L 967.157 622.500 968.579 620.559 L 970 618.618 970 616.309 L 970 614 968 612 L 966 610 959.750 610.030 L 953.500 610.061 951.750 611.080 M 994.073 612.635 L 992 615.270 992 616.524 L 992 617.778 993.911 620.139 L 995.821 622.500 1028.161 622.757 L 1060.500 623.013 1063 621.734 L 1065.500 620.454 1065.805 616.822 L 1066.109 613.190 1063.832 611.595 L 1061.555 610 1028.850 610 L 996.145 610 994.073 612.635 M 1620.079 613.583 L 1620.158 615.500 1620.683 614.188 L 1621.208 612.875 1620.604 612.271 L 1620 611.667 1620.079 613.583 M 1267 635.500 L 1267 636 1267.500 636 L 1268 636 1268 635.500 L 1268 635 1267.500 635 L 1267 635 1267 635.500 M 1267.158 640 L 1267.158 642.500 1267.662 641.250 L 1268.167 640 1267.662 638.750 L 1267.158 637.500 1267.158 640 M 429.750 648.745 L 439 649.075 448.250 648.745 L 457.500 648.415 439 648.415 L 420.500 648.415 429.750 648.745 M 1138.250 648.750 L 1181 649.021 1223.750 648.750 L 1266.500 648.478 1181 648.478 L 1095.500 648.478 1138.250 648.750" stroke="none" fill="#49525a" fill-rule="evenodd"/><path d="M 662.241 557.031 L 662.500 610.062 722.500 610.038 L 782.500 610.013 783.726 610.801 L 784.952 611.588 785.226 629.544 L 785.500 647.500 805.750 647.771 L 826 648.041 826 576.021 L 826 504 808.117 504 L 790.233 504 789.630 506.250 L 789.027 508.500 789.014 541.260 L 789 574.021 744.250 573.760 L 699.500 573.500 699.400 540 L 699.299 506.500 699.150 505.250 L 699 504 680.491 504 L 661.982 504 662.241 557.031" stroke="none" fill="#a92828" fill-rule="evenodd"/><path d="M 110.395 551.250 L 110.842 597.500 110.921 622.773 L 111 648.045 129.250 647.773 L 147.500 647.500 147.773 629.250 L 148.045 611 211.023 611 L 274 611 274 558 L 274 505 191.974 505 L 109.948 505 110.395 551.250 M 294.015 575.250 L 294.031 645.500 294.839 646.774 L 295.647 648.048 313.574 647.774 L 331.500 647.500 331.773 629.250 L 332.045 611 376.523 611 L 421 611 421 629.500 L 421 648 439.500 648 L 458 648 458 576.500 L 458 505 376 505 L 294 505 294.015 575.250 M 478.243 576.250 L 478.500 647.500 496.750 647.773 L 515 648.045 515 595.604 L 515 543.164 515.607 541.582 L 516.214 540 560.607 540 L 605 540 605 594 L 605 648 623.500 648 L 642 648 642 576.500 L 642 505 559.993 505 L 477.987 505 478.243 576.250 M 148 557.510 L 148 575.021 192.750 574.760 L 237.500 574.500 237.797 560.500 L 238.094 546.500 237.502 543.250 L 236.909 540 192.455 540 L 148 540 148 557.510 M 332.667 540.667 L 332 541.333 332 558.167 L 332 575 376.500 575 L 421 575 421 557.500 L 421 540 377.167 540 L 333.333 540 332.667 540.667 M 1619.417 629.500 L 1619.419 648.500 1619.746 638.698 L 1620.074 628.896 1619.744 619.698 L 1619.415 610.500 1619.417 629.500 M 1266.415 630 L 1266.415 648.500 1266.745 639.250 L 1267.075 630 1266.745 620.750 L 1266.415 611.500 1266.415 630" stroke="none" fill="#3b8ae6" fill-rule="evenodd"/><path d="M 1096 576.500 L 1096 648 1181 648 L 1266 648 1266 629.500 L 1266 611 1202.500 611 L 1139 611 1139 603 L 1139 595 1203 595 L 1267 595 1267 576.500 L 1267 558 1203 558 L 1139 558 1139 550 L 1139 542 1203 542 L 1267 542 1267 523.500 L 1267 505 1181.500 505 L 1096 505 1096 576.500 M 1286 576.500 L 1286 648 1358 648 L 1430 648 1430 629.500 L 1430 611 1380 611 L 1330 611 1330 558 L 1330 505 1308 505 L 1286 505 1286 576.500 M 1449 576.500 L 1449 648 1534 648 L 1619 648 1619 629.500 L 1619 611 1555.500 611 L 1492 611 1492 603 L 1492 595 1556 595 L 1620 595 1620 576.500 L 1620 558 1556 558 L 1492 558 1492 550 L 1492 542 1556 542 L 1620 542 1620 523.500 L 1620 505 1534.500 505 L 1449 505 1449 576.500 M 1639 576.500 L 1639 648 1724 648 L 1809 648 1809 629.500 L 1809 611 1745.500 611 L 1682 611 1682 576.500 L 1682 542 1746 542 L 1810 542 1810 523.500 L 1810 505 1724.500 505 L 1639 505 1639 576.500" stroke="none" fill="#dbdbdb" fill-rule="evenodd"/></svg>