<svg xmlns="http://www.w3.org/2000/svg" width="1080" height="1080" viewBox="0 0 1080 1080" version="1.1"><path d="M 379.500 240.016 L 335.500 240.532 371.641 240.766 L 407.781 241 408.193 244.524 C 408.659 248.519, 406.223 252, 402.961 252 C 401.882 252, 401 252.579, 401 253.286 C 401 254.979, 409.786 254.774, 303.500 255.566 C 251.800 255.952, 209.313 256.432, 209.083 256.633 C 208.854 256.835, 361.712 257, 548.768 257 C 787.237 257, 889.711 257.319, 891.685 258.067 C 893.233 258.653, 895.572 260.116, 896.881 261.317 L 899.263 263.500 897.954 261.350 C 895.460 257.256, 890.871 256.054, 875.233 255.398 C 867.130 255.058, 859.375 254.642, 858 254.473 C 856.625 254.305, 854.600 254.098, 853.500 254.013 L 851.500 253.859 853.500 253.037 C 855.564 252.188, 855.551 252.176, 851 250.658 C 850.175 250.383, 851.075 250.078, 853 249.979 C 856.245 249.814, 856.318 249.742, 854 249 C 852.625 248.560, 852.089 248.155, 852.809 248.100 C 853.529 248.045, 853.886 247.624, 853.602 247.165 C 853.318 246.705, 854.641 245.588, 856.543 244.681 C 858.444 243.774, 860 242.575, 860 242.016 C 860 240.618, 888.340 240.687, 892.929 242.097 C 898.609 243.842, 907.102 248.351, 908.063 250.132 C 908.548 251.030, 909.719 252.062, 910.666 252.425 C 913.325 253.446, 909.440 249.416, 904.439 245.966 C 895.081 239.509, 914.029 239.987, 657 239.732 C 528.575 239.604, 403.700 239.732, 379.500 240.016 M 558.500 309.741 C 712.353 310.424, 823.765 310.428, 823.346 309.750 C 823.091 309.337, 750.346 309.109, 661.691 309.242 C 573.036 309.375, 526.600 309.599, 558.500 309.741 M 425 344.075 C 443.397 344.887, 450.467 345.553, 452.229 346.641 C 453.706 347.554, 447.122 350.907, 443.750 350.958 C 441.991 350.985, 441 351.540, 441 352.500 C 441 353.853, 442.187 354.444, 444.250 354.118 C 449.058 353.359, 442.208 357.324, 436.500 358.604 C 430.093 360.040, 431.923 361.588, 440.500 361.986 C 451.965 362.518, 425.645 365.491, 403 366.222 C 398.875 366.355, 442.525 366.697, 500 366.982 L 604.500 367.500 611 370.392 C 619.043 373.971, 620.381 373.950, 631.244 370.065 C 651.393 362.860, 672.001 365.916, 685.680 378.135 C 689.327 381.394, 689.770 381.627, 687.500 379.095 C 684.197 375.410, 671.818 367.043, 668.814 366.464 C 659.817 364.731, 657.789 362, 665.500 362 C 668.525 362, 671 361.550, 671 361 C 671 360.450, 668.750 360, 666 360 C 658.560 360, 660.280 357.519, 669.156 355.450 C 670.647 355.102, 672.042 353.947, 672.338 352.815 C 672.669 351.550, 673.317 351.078, 674.078 351.548 C 674.948 352.086, 675.150 351.563, 674.793 349.696 C 674.185 346.517, 675.112 346.251, 693 344.476 C 703.445 343.439, 681.004 343.241, 556.500 343.269 C 471.555 343.289, 415.023 343.636, 425 344.075 M 220.610 353.530 C 221.003 354.614, 222.091 356.625, 223.028 358 C 223.964 359.375, 226.674 364.100, 229.051 368.500 C 232.942 375.703, 234.661 378.806, 239.300 387 C 240.079 388.375, 242.502 392.875, 244.686 397 C 246.870 401.125, 249.262 405.465, 250.003 406.645 C 251.613 409.208, 250.138 415.681, 248.051 415.211 C 247.345 415.052, 245.711 415.615, 244.419 416.461 C 241.302 418.504, 241.099 418.451, 239.702 415.232 C 239.041 413.710, 237.676 411.347, 236.669 409.982 C 235.662 408.617, 231.974 402.550, 228.472 396.500 C 224.970 390.450, 221.737 385.050, 221.286 384.500 C 220.484 383.520, 214.159 372.918, 210.250 366 C 206.224 358.875, 203.790 355, 203.342 355 C 203.089 355, 203.071 355.337, 203.302 355.750 C 205.239 359.214, 227.759 398.155, 233.603 408.148 C 237.671 415.105, 241 421.022, 241 421.297 C 241 421.572, 244.736 428.030, 249.303 435.648 C 253.870 443.267, 258.991 451.975, 260.684 455 L 263.761 460.500 257.983 479.500 C 249.942 505.944, 229.505 574.136, 225.466 588 C 223.623 594.325, 219.419 608.500, 216.124 619.500 C 212.829 630.500, 210.452 639.827, 210.842 640.226 C 211.232 640.625, 224.365 644.621, 240.026 649.106 C 255.687 653.590, 268.630 657.369, 268.789 657.502 C 268.948 657.636, 266.361 667.882, 263.039 680.272 C 259.718 692.662, 257.002 703.407, 257.005 704.150 C 257.008 705.121, 267.732 707.718, 295.255 713.411 C 316.290 717.762, 339.575 722.591, 347 724.142 C 354.425 725.694, 372.650 729.464, 387.500 732.521 C 402.350 735.578, 416.975 738.632, 420 739.307 L 425.500 740.534 438.068 762.251 C 451.656 785.733, 454.586 790.145, 448.115 777.384 C 445.852 772.920, 443.987 768.645, 443.972 767.884 C 443.957 767.123, 442.607 765.187, 440.972 763.583 C 439.337 761.979, 438 760.171, 438 759.565 C 438 758.960, 436.835 756.750, 435.411 754.654 C 432.428 750.264, 432.675 747.728, 436.535 743.141 C 439.352 739.793, 439.106 735.102, 436.072 734.309 C 434.283 733.841, 433.362 729, 435.062 729 C 435.634 729, 436.743 730.534, 437.526 732.408 C 438.309 734.283, 439.307 735.970, 439.743 736.158 C 440.530 736.497, 444.817 743.284, 448.486 750 C 449.537 751.925, 451.484 754.625, 452.812 756 L 455.227 758.500 452.674 754 C 451.270 751.525, 446.992 744.100, 443.167 737.500 L 436.213 725.500 404.356 718.795 C 366.833 710.897, 320.641 701.327, 295.750 696.295 C 281.381 693.390, 278 692.392, 278 691.058 C 278 690.151, 280.657 679.755, 283.904 667.955 C 287.151 656.155, 289.660 646.347, 289.481 646.161 C 289.301 645.974, 276.287 642.104, 260.560 637.560 C 244.834 633.017, 231.772 629.105, 231.535 628.868 C 231.101 628.434, 239.288 600.553, 266.884 508.500 L 281.873 458.500 278.559 452.500 C 276.737 449.200, 270.296 437.950, 264.246 427.500 C 258.195 417.050, 246.020 395.968, 237.191 380.652 C 221.344 353.162, 219.205 349.665, 220.610 353.530 M 599.370 388.147 C 600.899 389.036, 600.990 389.412, 599.870 390.211 C 598.816 390.963, 598.903 391.059, 600.250 390.626 C 602.274 389.975, 602.725 392.495, 600.750 393.417 C 599.793 393.863, 599.782 394.133, 600.700 394.567 C 601.553 394.969, 601.623 395.861, 600.943 397.651 C 600.416 399.035, 600.283 400.650, 600.647 401.238 C 601.069 401.921, 600.829 402.012, 599.985 401.490 C 599.002 400.883, 598.839 401.138, 599.353 402.477 C 599.939 404.004, 599.810 404.087, 598.523 403.019 C 597.298 402.002, 597 402.002, 597 403.017 C 597 403.712, 597.788 404.925, 598.750 405.714 C 599.712 406.503, 599.985 406.893, 599.355 406.580 C 598.725 406.267, 597.952 406.684, 597.636 407.506 C 596.970 409.241, 599.078 409.522, 600.687 407.913 C 601.469 407.131, 601.740 407.655, 601.653 409.783 C 601.537 412.603, 601.429 412.672, 599.308 411.282 C 597.273 409.949, 596.874 410.036, 594.603 412.306 C 593.238 413.671, 591.797 414.498, 591.400 414.144 C 591.004 413.790, 591.076 414.175, 591.562 415 C 592.815 417.131, 592.979 419, 591.912 419 C 591.410 419, 591 419.852, 591 420.893 C 591 422.672, 593.495 424.541, 595.324 424.134 C 595.778 424.033, 595.850 424.433, 595.485 425.024 C 595.056 425.718, 594.412 425.758, 593.661 425.138 C 591.581 423.419, 584.962 424.104, 586.714 425.857 C 587.954 427.097, 588.314 427.110, 589.036 425.941 C 589.507 425.180, 590.202 424.868, 590.581 425.248 C 590.960 425.627, 590.481 427.143, 589.515 428.617 C 587.794 431.244, 587.801 431.285, 589.879 430.742 C 591.044 430.437, 592.232 430.566, 592.518 431.029 C 592.804 431.492, 591.567 432.053, 589.769 432.275 C 587.971 432.498, 589.758 432.752, 593.739 432.840 L 600.978 433 598.307 427.554 C 596.838 424.558, 595.268 422.334, 594.819 422.612 C 593.656 423.331, 594.295 418.673, 595.500 417.656 C 596.078 417.168, 595.740 417.057, 594.698 417.394 C 593.558 417.763, 593.140 417.582, 593.561 416.901 C 593.927 416.310, 595.124 416.061, 596.221 416.348 C 597.630 416.716, 599.436 415.671, 602.359 412.795 C 604.636 410.555, 605.804 409.122, 604.953 409.611 C 604.102 410.100, 604.503 409.533, 605.843 408.350 C 609.634 405.008, 609.958 395.150, 606.403 391.287 C 604.993 389.754, 604.163 389.121, 604.559 389.880 C 605.041 390.805, 604.821 391.093, 603.889 390.755 C 603.125 390.477, 602.624 389.710, 602.775 389.051 C 602.926 388.391, 602.588 388.136, 602.025 388.485 C 601.461 388.833, 601 388.641, 601 388.059 C 601 387.477, 600.212 387.014, 599.250 387.030 C 597.654 387.058, 597.664 387.156, 599.370 388.147" stroke="none" fill="#8d61ea" fill-rule="evenodd"/><path d="M 182.315 242.098 C 165.353 248.619, 156.495 270.589, 164.163 287.120 C 165.597 290.211, 170.073 298.311, 174.110 305.120 C 178.147 311.929, 182.543 319.525, 183.879 322 C 185.215 324.475, 188.543 329.875, 191.275 334 C 194.007 338.125, 197.206 343.525, 198.385 346 C 199.563 348.475, 202.659 353.767, 205.264 357.760 C 207.869 361.753, 210 365.207, 210 365.434 C 210 365.945, 220.173 383.119, 221.294 384.500 C 221.740 385.050, 224.970 390.450, 228.472 396.500 C 231.974 402.550, 235.662 408.617, 236.669 409.982 C 237.676 411.347, 239.041 413.710, 239.702 415.232 C 241.099 418.451, 241.302 418.504, 244.419 416.461 C 245.711 415.615, 247.345 415.052, 248.051 415.211 C 250.138 415.681, 251.613 409.208, 250.003 406.645 C 249.262 405.465, 246.870 401.125, 244.686 397 C 242.502 392.875, 240.079 388.375, 239.300 387 C 234.633 378.757, 232.942 375.701, 229.061 368.500 C 226.689 364.100, 224.403 360.050, 223.981 359.500 C 223.266 358.569, 220.646 353.767, 214.159 341.500 C 212.705 338.750, 211.286 336.275, 211.006 336 C 210.726 335.725, 209.836 334.150, 209.029 332.500 C 208.222 330.850, 206.310 327.619, 204.781 325.320 C 203.251 323.021, 202 320.771, 201.999 320.320 C 201.999 319.869, 199.749 315.718, 196.999 311.096 C 194.250 306.474, 192 302.583, 192 302.449 C 192 302.314, 190.183 299.214, 187.963 295.560 C 177.500 278.336, 176.099 272.882, 180.266 265.594 C 185.721 256.056, 181.021 256.430, 307 255.512 C 409.645 254.765, 401 254.970, 401 253.286 C 401 252.579, 401.882 252, 402.961 252 C 406.156 252, 408.658 248.515, 408.212 244.686 L 407.819 241.325 353.745 240.663 C 245.494 239.336, 188.251 239.815, 182.315 242.098 M 318.935 343.218 C 316.598 344.085, 316.528 344.881, 318.538 347.751 C 319.823 349.585, 330.705 368.128, 335.704 377 C 336.478 378.375, 337.975 380.850, 339.029 382.500 C 340.084 384.150, 342.121 387.697, 343.557 390.382 C 344.993 393.067, 346.608 395.767, 347.146 396.382 C 348.783 398.251, 358.342 413.281, 360.918 418.036 C 365.939 427.304, 372.191 431.739, 373.696 427.102 C 373.982 426.221, 375.003 423.700, 375.964 421.500 C 376.926 419.300, 378.024 416.150, 378.404 414.500 C 379.133 411.338, 385.795 389.675, 389.168 379.500 C 390.261 376.200, 391.390 372.315, 391.675 370.867 C 392.369 367.339, 395.692 366.002, 403.797 365.990 C 421.051 365.965, 452.441 362.540, 440.500 361.986 C 431.923 361.588, 430.093 360.040, 436.500 358.604 C 442.208 357.324, 449.058 353.359, 444.250 354.118 C 442.187 354.444, 441 353.853, 441 352.500 C 441 351.540, 441.991 350.985, 443.750 350.958 C 447.472 350.901, 453.712 347.558, 452.034 346.521 C 449.564 344.994, 428.872 344.010, 387.500 343.450 C 364.400 343.138, 339.958 342.796, 333.185 342.691 C 326.412 342.586, 320 342.823, 318.935 343.218 M 640 387.308 C 630.155 389.562, 617 399.244, 617 404.236 C 617 404.735, 616.343 405.800, 615.539 406.604 C 605.032 417.111, 623.532 438.549, 638.451 433.154 C 640.206 432.519, 642.834 432, 644.291 432 C 648.757 432, 657.256 427.388, 662.135 422.318 C 681.178 402.525, 667.568 380.998, 640 387.308 M 635.223 398.119 C 625.412 402.975, 622.077 422, 631.037 422 C 632.131 422, 633.888 422.537, 634.939 423.194 C 636.422 424.120, 637.441 424.120, 639.473 423.194 C 640.915 422.537, 642.973 422, 644.047 422 C 645.121 422, 646.003 421.663, 646.006 421.250 C 646.010 420.837, 647.319 419.757, 648.916 418.848 C 664.927 409.740, 651.823 389.902, 635.223 398.119 M 460.716 693.139 C 459.764 693.672, 458.538 693.832, 457.992 693.495 C 455.642 692.043, 457.365 696.748, 462.137 704.816 C 464.962 709.592, 469.170 717.100, 471.489 721.500 C 476.028 730.115, 477.905 733.457, 483.002 742 C 484.807 745.025, 487.497 749.750, 488.980 752.500 C 493.397 760.691, 497.559 768.268, 499.751 772.113 C 500.885 774.100, 502.417 776.800, 503.156 778.113 C 503.895 779.426, 504.725 780.725, 505 781 C 505.275 781.275, 506.277 783.075, 507.227 785 C 508.177 786.925, 510.145 790.525, 511.600 793 C 513.055 795.475, 518.408 804.700, 523.496 813.500 C 542.516 846.396, 537.360 846.843, 558.075 810.500 C 564.032 800.050, 569.702 790.150, 570.676 788.500 C 571.650 786.850, 572.909 784.363, 573.473 782.973 C 574.593 780.218, 578.894 772.559, 585.664 761.267 C 588.049 757.289, 590 753.576, 590 753.017 C 590 752.458, 590.337 751.996, 590.750 751.992 C 591.163 751.988, 592.005 750.975, 592.622 749.742 C 596.037 742.917, 600.261 736, 601.013 736 C 601.487 736, 601.832 735.212, 601.778 734.250 C 601.724 733.288, 603.435 729.575, 605.580 726 C 607.725 722.425, 609.935 718.743, 610.490 717.818 C 611.046 716.893, 613.432 712.618, 615.792 708.318 C 618.153 704.018, 620.519 699.825, 621.049 699 C 623.021 695.932, 623.194 694.939, 622.007 693.508 C 621.101 692.417, 620.302 692.303, 618.883 693.063 C 617.834 693.624, 615.518 693.984, 613.738 693.862 C 605.167 693.276, 604.307 693.658, 600.037 699.945 C 597.817 703.215, 596 706.171, 596 706.515 C 596 707.497, 586.924 722.385, 585.646 723.500 C 585.016 724.050, 583.228 727.087, 581.674 730.250 C 580.120 733.413, 578.432 736, 577.924 736 C 577.416 736, 577 736.873, 577 737.941 C 577 739.009, 576.531 740.172, 575.958 740.526 C 575.385 740.880, 574.211 742.932, 573.349 745.085 C 572.488 747.238, 571.382 749, 570.891 749 C 570.401 749, 570 749.410, 570 749.912 C 570 750.414, 568.182 753.901, 565.961 757.662 C 563.739 761.423, 561.393 765.400, 560.746 766.500 C 560.100 767.600, 558.318 770.374, 556.786 772.663 C 555.254 774.953, 554 777.019, 554 777.254 C 554 777.489, 551.750 781.424, 549 786 C 546.250 790.576, 544 794.692, 544 795.148 C 544 796.205, 540.775 800, 539.877 800 C 539.252 800, 535.073 793.826, 534.123 791.500 C 533.899 790.950, 532.916 789.357, 531.939 787.960 C 530.962 786.563, 528.713 782.738, 526.941 779.460 C 525.169 776.182, 523.139 772.824, 522.429 771.998 C 521.720 771.172, 520.666 769.372, 520.088 767.998 C 519.511 766.624, 517.659 763.250, 515.975 760.500 C 514.290 757.750, 512.654 754.712, 512.339 753.750 C 512.024 752.788, 511.398 752, 510.948 752 C 510.498 752, 509.560 750.425, 508.864 748.500 C 508.168 746.575, 507.239 745, 506.799 745 C 506.360 745, 506 744.582, 506 744.071 C 506 743.560, 504.200 740.431, 502 737.119 C 499.800 733.807, 498 730.807, 498 730.453 C 498 730.099, 496.988 728.396, 495.750 726.668 C 494.512 724.941, 493.008 722.622, 492.407 721.514 C 479.377 697.498, 475.957 693.138, 470.623 693.739 C 468.242 694.007, 465.428 693.764, 464.371 693.198 C 463.113 692.525, 461.849 692.505, 460.716 693.139" stroke="none" fill="#e612fe" fill-rule="evenodd"/><path d="M 224.266 294.250 C 264.450 363.795, 263.476 362.172, 264.497 361.246 C 264.950 360.836, 265.008 361.045, 264.625 361.712 C 263.705 363.314, 272.932 379.160, 274.294 378.318 C 274.918 377.933, 275.107 378.279, 274.762 379.177 C 274.445 380.004, 274.557 381.284, 275.013 382.020 C 276.149 383.859, 279.011 384.193, 278.326 382.407 C 278.031 381.640, 277.419 381.241, 276.964 381.522 C 276.510 381.803, 275.875 381.606, 275.553 381.085 C 274.408 379.233, 277.321 378.719, 278.652 380.538 C 279.393 381.553, 280 381.873, 280 381.250 C 280 380.627, 279.550 379.840, 279 379.500 C 278.450 379.160, 278 378.432, 278 377.882 C 278 377.332, 278.520 377.203, 279.155 377.595 C 279.802 377.995, 280.040 377.874, 279.697 377.319 C 279.020 376.223, 276.090 376.208, 274.337 377.292 C 273.450 377.840, 272 376.145, 272 374.561 C 272 373.461, 283.787 374.487, 285.178 375.708 C 286.936 377.250, 291 376.668, 291 374.874 C 291 374.328, 290.646 374.100, 290.214 374.368 C 289.782 374.635, 289.429 373.986, 289.429 372.927 C 289.429 370.486, 289.667 370.509, 291.045 373.083 C 291.934 374.746, 291.808 375.555, 290.419 377.089 C 289.462 378.147, 288.976 379.310, 289.339 379.673 C 289.703 380.036, 290 379.808, 290 379.167 C 290 378.525, 290.498 378, 291.107 378 C 291.716 378, 291.946 378.698, 291.618 379.552 C 291.291 380.406, 291.440 380.846, 291.950 380.531 C 292.460 380.216, 293.341 380.755, 293.908 381.729 C 294.711 383.109, 294.947 383.169, 294.973 382 C 294.992 381.175, 295.916 381.990, 297.026 383.810 C 298.136 385.631, 298.739 387.613, 298.367 388.215 C 297.968 388.861, 298.152 389.024, 298.816 388.614 C 299.497 388.193, 300.193 388.920, 300.577 390.452 C 300.927 391.846, 301.567 392.768, 301.999 392.500 C 303.079 391.833, 290.137 369.432, 288.869 369.775 C 288.309 369.926, 288.124 369.609, 288.456 369.071 C 289.336 367.647, 278.994 349.886, 277.737 350.662 C 277.129 351.039, 276.989 350.827, 277.403 350.157 C 277.799 349.515, 273.468 340.928, 267.614 330.753 C 261.839 320.714, 256.815 311.712, 256.450 310.750 C 255.819 309.086, 269.734 309, 540 309 C 803.321 309, 824.168 309.121, 823.583 310.644 C 823.236 311.549, 817.547 321.692, 810.941 333.184 C 804.335 344.676, 799.241 354.581, 799.620 355.194 C 800.017 355.837, 799.858 356.031, 799.244 355.651 C 798.614 355.261, 795.617 359.590, 791.908 366.246 C 788.459 372.436, 784.827 378.873, 783.838 380.550 L 782.038 383.600 784.455 383.600 C 785.784 383.600, 786.618 383.190, 786.308 382.689 C 785.998 382.188, 786.924 380.816, 788.365 379.639 C 789.807 378.463, 791.120 376.550, 791.283 375.388 C 791.872 371.206, 794.642 369.588, 797.173 371.947 C 798.846 373.505, 799.576 373.700, 800.190 372.751 C 800.828 371.766, 801.188 371.792, 801.886 372.875 C 802.374 373.631, 803.975 374.250, 805.445 374.250 C 807.302 374.250, 807.957 374.670, 807.590 375.625 C 806.447 378.604, 808.005 376.735, 810.937 371.610 C 812.826 368.309, 813.787 365.498, 813.416 364.360 C 812.966 362.975, 813.059 362.847, 813.781 363.857 C 814.967 365.518, 816.501 363.619, 815.405 361.845 C 814.979 361.158, 815.128 360.961, 815.773 361.360 C 816.808 362, 818.644 358.416, 818.173 356.676 C 818.051 356.222, 818.300 356.068, 818.728 356.332 C 819.156 356.596, 826.929 343.974, 836.003 328.282 C 845.076 312.591, 853.775 297.558, 855.333 294.876 L 858.165 290 539.988 290 L 221.810 290 224.266 294.250 M 413.513 388.250 C 413.280 388.938, 410.349 398.725, 407 410 C 403.651 421.275, 400.712 431.082, 400.470 431.794 C 400.131 432.789, 401.677 433.019, 407.187 432.794 L 414.345 432.500 415.998 426.500 L 417.652 420.500 422.084 420.205 L 426.516 419.910 429.367 426.455 L 432.218 433 439.609 433 C 443.674 433, 447 432.837, 447 432.638 C 447 432.439, 445.650 429.299, 444 425.660 C 440.326 417.557, 440.156 418.684, 445.522 415.540 C 457.790 408.351, 459.397 392.989, 448.364 388.379 C 443.888 386.509, 414.141 386.399, 413.513 388.250 M 466.979 394.250 C 465.820 398.238, 462.876 408.088, 460.436 416.141 C 457.996 424.193, 456 431.280, 456 431.891 C 456 432.641, 459.480 432.966, 466.750 432.894 C 478.175 432.782, 497.202 431.473, 493 431.088 C 490.682 430.876, 490.646 430.797, 492.500 430 C 493.600 429.527, 494.107 429.109, 493.628 429.070 C 493.148 429.032, 493.315 428.325, 494 427.500 C 495.028 426.262, 494.933 426, 493.456 426 C 490.940 426, 492.012 425.218, 495.360 424.611 C 497.602 424.205, 498.055 424.415, 497.583 425.643 C 496.148 429.384, 495.993 432.473, 497.415 429 C 499.933 422.850, 500.227 423, 485.606 423 L 472.211 423 473.464 418.750 L 474.717 414.500 486.272 414.219 L 497.826 413.938 498.913 410.820 C 500.291 406.867, 500.317 407.018, 498.250 406.900 C 497.083 406.834, 497.333 406.534, 499 406 C 500.581 405.494, 497.183 405.163, 489.750 405.100 C 483.288 405.045, 478.003 404.663, 478.006 404.250 C 478.009 403.837, 478.480 401.813, 479.053 399.750 L 480.094 396 493.439 396 L 506.783 396 507.439 393.250 C 507.800 391.738, 508.329 389.712, 508.615 388.750 C 509.098 387.124, 507.713 387, 489.110 387 L 469.085 387 466.979 394.250 M 423.042 402.858 C 421.919 406.630, 421 410.005, 421 410.358 C 421 414.898, 438.989 409.082, 440.627 404.012 C 442.527 398.134, 439.829 396, 430.495 396 L 425.085 396 423.042 402.858 M 312.675 458.750 C 312.431 459.163, 304.048 486.950, 294.044 520.500 C 284.041 554.050, 274.747 585.100, 273.391 589.500 C 272.035 593.900, 270.687 598.288, 270.395 599.250 C 269.896 600.897, 272.325 601, 311.763 601 L 353.661 601 356.844 590.250 C 358.595 584.337, 361.677 573.875, 363.694 567 C 368.045 552.169, 367.904 552.382, 371.978 554.489 C 375.953 556.544, 375.151 558.102, 381.628 535.748 C 382.027 534.371, 380.568 533.270, 374.818 530.612 C 370.793 528.752, 362.146 524.703, 355.603 521.615 C 349.060 518.527, 343.402 516, 343.031 516 C 342.466 516, 341.131 520.064, 336.416 536.140 C 336.058 537.359, 337.678 538.637, 342.717 541.112 L 349.500 544.442 345.372 544.773 L 341.245 545.103 335.957 563.052 L 330.670 581 317.728 581 C 306.898 581, 304.876 580.766, 305.336 579.566 C 305.639 578.777, 310.230 563.589, 315.538 545.816 C 320.846 528.042, 327.542 505.625, 330.419 496 L 335.648 478.500 348.324 478.220 C 358.106 478.004, 360.997 478.232, 360.989 479.220 C 360.982 479.924, 359.632 484.961, 357.989 490.413 C 356.345 495.865, 355 500.702, 355 501.163 C 355 502.191, 381.053 502.259, 382.634 501.235 C 383.595 500.613, 396 461.254, 396 458.829 C 396 457.797, 313.285 457.718, 312.675 458.750 M 420.552 460.750 C 420.186 462.262, 410.888 493.650, 399.889 530.500 C 388.890 567.350, 379.660 598.288, 379.378 599.250 C 378.906 600.860, 380.028 601, 393.394 601 L 407.923 601 409.344 596.250 C 410.126 593.638, 414.697 578.225, 419.502 562 C 430.059 526.352, 427.141 529.363, 443.722 537.018 C 460.132 544.595, 460.700 545, 454.923 545 L 450.447 545 442.533 571.750 C 438.180 586.462, 434.431 599.063, 434.202 599.750 C 433.882 600.712, 437.137 601, 448.315 601 L 462.845 601 463.861 597.750 C 464.420 595.962, 467.352 586.175, 470.376 576 C 473.400 565.825, 482.428 535.560, 490.437 508.744 C 498.447 481.928, 505 459.540, 505 458.994 C 505 458.351, 490.194 458, 463.108 458 L 421.217 458 420.552 460.750 M 521.629 459.695 C 521.331 460.688, 517.211 474.550, 512.474 490.500 C 507.736 506.450, 498.491 537.416, 491.930 559.312 C 485.368 581.209, 480 599.547, 480 600.062 C 480 600.602, 486.067 601, 494.301 601 L 508.603 601 523.472 551.250 C 531.649 523.888, 538.962 499.398, 539.722 496.828 L 541.105 492.156 546.801 494.675 L 552.497 497.194 558.710 495.001 C 562.127 493.795, 565.299 492.963, 565.760 493.154 C 566.469 493.447, 552.039 543.173, 538.164 588.250 L 534.240 601 548.894 601 L 563.549 601 570.919 576.250 C 574.972 562.638, 584.529 530.618, 592.156 505.095 C 599.783 479.572, 605.906 458.586, 605.762 458.458 C 605.618 458.331, 595.150 462.016, 582.500 466.648 L 559.500 475.069 541.615 466.784 C 531.778 462.228, 523.379 458.363, 522.950 458.195 C 522.521 458.027, 521.926 458.702, 521.629 459.695 M 622.219 468.250 C 620.514 473.887, 617.941 482.438, 616.499 487.250 C 615.058 492.063, 613.659 496, 613.390 496 C 613.121 496, 611.593 495.324, 609.994 494.497 L 607.087 492.993 604.989 500.247 C 603.836 504.236, 602.466 508.805, 601.946 510.399 C 600.406 515.118, 600.715 515.595, 607.250 518.613 L 613.500 521.500 609.799 521.807 C 607.373 522.009, 605.923 522.698, 605.589 523.807 C 593.515 563.971, 583 599.511, 583 600.157 C 583 600.621, 601.800 601, 624.778 601 L 666.555 601 671.931 582.953 C 675.095 572.330, 676.935 564.553, 676.403 564.046 C 674.546 562.276, 652.585 553.019, 651.964 553.745 C 651.342 554.471, 649.100 561.533, 645.298 574.749 L 643.500 580.997 630.633 580.999 C 618.868 581, 617.807 580.850, 618.233 579.250 C 621.712 566.175, 632.677 531, 633.273 531 C 633.708 531, 639.515 533.475, 646.178 536.500 C 652.841 539.525, 658.600 542, 658.976 542 C 659.691 542, 666.356 521.019, 665.812 520.484 C 665.640 520.315, 659.763 517.466, 652.750 514.154 C 645.737 510.841, 640 507.637, 640 507.033 C 640 506.429, 641.883 499.649, 644.185 491.967 L 648.371 478 661.253 478 C 673.048 478, 674.092 478.148, 673.628 479.750 C 671.877 485.794, 667.656 499.709, 667.250 500.777 C 666.867 501.786, 669.871 501.996, 681.510 501.777 L 696.254 501.500 702.584 480.500 C 706.065 468.950, 708.933 459.163, 708.957 458.750 C 708.981 458.337, 690.171 458, 667.159 458 L 625.317 458 622.219 468.250 M 724.140 464.250 C 722.171 470.332, 701.015 541.001, 698.470 550 C 696.893 555.574, 684.126 598.034, 683.511 599.750 C 683.165 600.714, 686.484 601, 698.031 601 C 709.334 601, 713.002 600.694, 713.010 599.750 C 713.022 598.242, 732.854 531.813, 733.478 531.188 C 734.068 530.598, 739.328 532.794, 752.500 539.129 L 763.500 544.419 759.116 544.959 L 754.731 545.500 747.836 568.500 C 744.044 581.150, 740.300 593.649, 739.517 596.276 L 738.092 601.053 752.746 600.776 L 767.400 600.500 778.052 565 L 788.704 529.500 782.852 526.796 C 775.370 523.339, 775.457 523.016, 784.750 519.703 L 792.500 516.941 799.938 491.720 C 804.029 477.849, 807.945 464.587, 808.640 462.250 L 809.904 458 768.034 458 L 726.163 458 724.140 464.250 M 440.208 492.662 C 437.847 500.722, 436.272 507.649, 436.708 508.057 C 437.894 509.166, 458.085 518.250, 458.471 517.848 C 458.910 517.390, 470 479.823, 470 478.794 C 470 478.357, 464.262 478.002, 457.250 478.005 L 444.500 478.009 440.208 492.662 M 746.443 486.750 C 745.002 491.563, 742.997 498.200, 741.987 501.500 L 740.152 507.500 751.196 512.796 C 757.271 515.709, 762.443 517.890, 762.690 517.643 C 763.116 517.217, 766.202 507.320, 771.466 489.500 C 772.766 485.100, 774.141 480.712, 774.522 479.750 C 775.160 478.137, 774.188 478, 762.139 478 L 749.064 478 746.443 486.750 M 458.500 529 L 438.500 529.500 446.500 533.354 C 450.900 535.473, 455.998 537.857, 457.830 538.651 C 461.044 540.044, 461.136 540.240, 460.465 544.297 C 459.572 549.691, 459.356 550, 456.480 550 C 454.497 550, 453.879 550.743, 452.946 554.250 C 452.325 556.587, 450.480 563.144, 448.848 568.820 C 447.215 574.495, 446.096 579.670, 446.361 580.320 C 446.626 580.969, 446.885 580.375, 446.936 579 C 447.011 577.008, 447.227 576.805, 448 578 C 448.682 579.055, 448.974 579.118, 448.985 578.215 C 448.996 577.255, 449.489 577.191, 450.934 577.965 C 453.868 579.535, 456.800 579.206, 457.311 577.250 C 457.574 576.244, 457.831 576.775, 457.916 578.500 C 458.052 581.271, 458.169 581.361, 459.443 579.680 C 460.727 577.987, 460.888 577.978, 461.770 579.554 C 462.571 580.985, 462.903 580.725, 463.914 577.874 C 468.696 564.385, 479.417 528.888, 478.789 528.622 C 478.630 528.555, 469.500 528.725, 458.500 529 M 291.665 545.830 C 289.025 555.086, 286.441 564.649, 285.924 567.080 C 283.850 576.833, 283.879 576.587, 284.970 575 C 285.886 573.667, 286.109 573.667, 286.985 575 C 287.828 576.284, 287.972 576.248, 287.985 574.750 C 288.002 572.739, 289.610 572.390, 290.292 574.250 C 290.656 575.243, 291.020 575.246, 292.061 574.264 C 293.108 573.277, 293.739 573.359, 295.186 574.669 C 296.374 575.743, 297 575.891, 297 575.096 C 297 574.428, 297.450 574.160, 298 574.500 C 298.550 574.840, 299.007 574.304, 299.015 573.309 C 299.028 571.809, 299.189 571.750, 299.958 572.966 C 300.696 574.132, 301.118 573.826, 302.026 571.466 C 304.773 564.325, 315 531.620, 315 529.976 C 315 529.412, 311.091 529, 305.733 529 L 296.467 529 291.665 545.830 M 342.975 531.565 C 341.509 535.422, 341.644 535.655, 346.496 537.651 C 349.177 538.753, 350.994 540.146, 350.996 541.101 C 351.004 544.510, 348.769 549, 347.065 549 C 345.694 549, 344.636 551.495, 342.082 560.750 C 340.299 567.212, 338.602 573.344, 338.313 574.375 C 337.973 575.585, 338.179 576.008, 338.893 575.566 C 339.502 575.190, 340 574.260, 340 573.500 C 340 572.740, 340.468 571.829, 341.040 571.475 C 341.717 571.057, 341.863 571.823, 341.459 573.666 C 340.984 575.836, 341.088 576.148, 341.904 575 C 342.723 573.847, 342.973 573.811, 342.985 574.847 C 342.996 575.840, 344.309 576.102, 348.001 575.847 C 350.751 575.656, 353.170 575.950, 353.376 576.500 C 354.200 578.701, 355.826 574.965, 360.042 561.189 C 364.048 548.097, 364.595 546.932, 366.461 547.519 C 372.647 549.468, 372.523 549.538, 374.314 543.096 C 375.241 539.760, 376 536.812, 376 536.545 C 376 531.056, 344.949 526.373, 342.975 531.565 M 405 529.592 C 405 529.917, 402.572 538.579, 399.604 548.842 C 393.757 569.057, 391.957 576.624, 392.796 577.463 C 393.615 578.282, 398 578.103, 398 577.250 C 398.001 576.130, 407.401 576.119, 408.122 577.238 C 408.463 577.768, 409.511 576.019, 410.449 573.351 C 412.536 567.416, 422.426 535.555, 423.362 531.750 L 424.038 529 414.519 529 C 409.284 529, 405 529.266, 405 529.592 M 503.616 537.250 C 498.780 553.174, 493.110 573.905, 492.557 577.684 L 491.998 581.500 493.454 578.500 C 494.881 575.560, 494.911 575.550, 494.954 578 C 494.997 580.383, 495.239 580.483, 500.123 580.145 C 504.187 579.864, 505.103 580.071, 504.550 581.145 C 504.166 581.890, 504.497 581.712, 505.286 580.750 C 507.346 578.237, 508.121 578.589, 507.485 581.750 C 505.846 589.890, 516.214 558.923, 523.053 535.250 L 524.859 529 515.490 529 L 506.121 529 503.616 537.250 M 559.235 535.250 C 545.660 578.722, 545.482 580.412, 554.436 580.863 C 557.150 581, 559.738 581.338, 560.186 581.615 C 560.634 581.892, 561.007 581.529, 561.015 580.809 C 561.027 579.840, 561.271 579.881, 561.958 580.966 C 563.235 582.985, 565.440 576.971, 574.592 546.500 C 577.070 538.250, 579.286 530.938, 579.517 530.250 C 579.833 529.309, 577.619 529, 570.562 529 L 561.186 529 559.235 535.250 M 608.154 532.250 C 607.604 534.038, 605.080 542.700, 602.546 551.500 C 600.012 560.300, 597.277 569.689, 596.469 572.365 C 594.531 578.782, 596.188 588.124, 598.320 582.803 C 598.715 581.818, 598.861 581.805, 598.921 582.750 C 598.968 583.491, 600.392 584, 602.417 584 C 604.296 584, 606.060 583.438, 606.338 582.750 C 606.710 581.827, 606.863 581.859, 606.921 582.872 C 606.988 584.032, 607.254 584.034, 608.644 582.880 C 610.116 581.659, 610.208 581.777, 609.520 584.008 C 609.097 585.379, 609.007 586.263, 609.318 585.974 C 610.470 584.906, 616.152 568.354, 621.433 550.686 C 624.422 540.684, 627.171 531.712, 627.541 530.750 C 628.153 529.159, 627.350 529, 618.685 529 L 609.155 529 608.154 532.250 M 709.736 529.750 C 709.526 530.163, 708.770 532.525, 708.055 535 C 707.341 537.475, 705.705 542.875, 704.421 547 C 700.047 561.052, 694 583.654, 694.100 585.580 C 694.178 587.080, 694.375 586.953, 695 585 C 695.534 583.333, 695.834 583.083, 695.900 584.250 C 696.005 586.079, 697.138 586.530, 698.416 585.250 C 699.976 583.689, 705.999 584.188, 706.032 585.882 C 706.060 587.302, 706.228 587.283, 707.405 585.733 C 708.248 584.622, 709.443 584.192, 710.623 584.577 C 712.134 585.070, 712.213 584.986, 711.028 584.148 C 709.758 583.250, 709.792 583.017, 711.278 582.447 C 712.225 582.083, 713 580.799, 713 579.593 C 713 578.387, 713.388 576.972, 713.863 576.450 C 714.338 575.928, 716.621 569.200, 718.936 561.500 C 721.252 553.800, 724.408 543.337, 725.951 538.250 L 728.756 529 719.437 529 C 714.312 529, 709.946 529.337, 709.736 529.750 M 744.500 530.257 C 745.600 531, 750.849 533.544, 756.164 535.911 C 764.904 539.803, 765.788 540.441, 765.399 542.581 C 764.461 547.758, 763.063 550, 760.775 550 C 758.630 550.001, 751.285 571.927, 748.547 586.500 L 747.984 589.500 749.456 587 C 750.737 584.825, 750.934 584.754, 750.965 586.450 C 750.992 587.967, 751.267 588.133, 752.200 587.200 C 752.860 586.540, 754.125 586, 755.011 586 C 755.898 586, 757.567 585.120, 758.722 584.045 C 760.455 582.430, 760.918 582.343, 761.379 583.545 C 761.686 584.345, 762.428 585, 763.028 585 C 763.627 585, 763.833 584.438, 763.485 583.750 C 763.137 583.063, 763.560 583.374, 764.426 584.441 C 765.981 586.359, 766 586.358, 766 584.391 C 766 583.296, 766.391 581.972, 766.870 581.450 C 767.894 580.331, 772.568 566.170, 778.487 546.256 C 783.828 528.282, 785.159 529.587, 761.099 529.204 C 745.228 528.951, 742.793 529.105, 744.500 530.257 M 653.951 563.316 C 653.352 565.617, 652.006 570.428, 650.961 574.007 C 649.915 577.586, 649.324 581.523, 649.647 582.757 C 650.351 585.449, 653.984 585.858, 654.032 583.250 C 654.062 581.583, 654.127 581.583, 655.392 583.250 C 656.308 584.456, 658.105 585, 661.176 585 L 665.632 585 668.454 575.972 C 670.007 571.006, 671.102 566.770, 670.888 566.558 C 670.675 566.347, 667.022 564.589, 662.771 562.653 L 655.041 559.133 653.951 563.316 M 409.418 641.765 C 405.263 644.586, 396.925 659, 399.448 659 C 400.886 659, 402.322 658.325, 402.638 657.500 C 403.029 656.482, 404.625 656, 407.607 656 C 410.845 656, 412 656.394, 412 657.500 C 412 658.433, 412.944 659, 414.500 659 C 417.339 659, 417.402 658.628, 415.944 650.434 C 414.215 640.712, 413.117 639.254, 409.418 641.765 M 426.670 641.750 C 426.117 642.675, 422 657.339, 422 658.383 C 422 661.219, 426.576 658.036, 427.582 654.500 L 428.721 650.500 430.309 654.250 C 432.271 658.880, 432.785 658.895, 436.348 654.431 C 439.730 650.192, 440.166 650.329, 439.050 655.278 C 437.267 663.185, 442.444 660.267, 444.422 652.250 C 445.338 648.538, 446.323 644.710, 446.612 643.745 C 447.877 639.523, 443.851 640.785, 439.033 646.122 C 434.683 650.940, 434.101 651.292, 433.441 649.500 C 430.443 641.358, 428.342 638.953, 426.670 641.750 M 465.491 642.014 C 464.744 643.224, 461 656.538, 461 657.987 C 461 661.400, 465.865 658.757, 466.500 655 C 466.872 652.800, 467.577 651, 468.068 651 C 468.558 651, 469.878 652.800, 471 655 C 474.555 661.968, 477.210 660.738, 479.914 650.871 C 481.405 645.432, 481.810 642.410, 481.138 641.738 C 479.448 640.048, 477.226 641.689, 476.477 645.182 C 475.344 650.459, 474.909 650.500, 471.868 645.614 C 469.104 641.173, 466.811 639.878, 465.491 642.014 M 543.648 641.761 C 543.036 642.752, 539 657.051, 539 658.230 C 539 660.825, 543.791 658.717, 544.637 655.750 C 546.133 650.499, 552.560 650.201, 551.580 655.427 C 550.960 658.730, 551.094 659, 553.345 659 C 555.621 659, 560 647.888, 560 642.112 C 560 639.319, 555.567 641.500, 554.639 644.750 C 553.232 649.676, 546.857 649.709, 547.246 644.789 C 547.494 641.656, 545.006 639.563, 543.648 641.761 M 569.276 646.190 C 563.193 654.524, 561 657.761, 561 658.404 C 561 659.714, 565.824 658.900, 566.362 657.500 C 566.738 656.519, 568.296 656, 570.862 656 C 573.427 656, 574.985 656.519, 575.362 657.500 C 577.222 662.348, 580.700 659.020, 579.804 653.250 C 577.593 639.023, 575.521 637.633, 569.276 646.190 M 589.538 642.180 C 589.289 642.906, 588.382 646.298, 587.523 649.718 C 586.665 653.138, 585.697 656.625, 585.374 657.468 C 584.940 658.600, 585.459 659, 587.363 659 C 589.573 659, 590.139 658.325, 591.342 654.250 L 592.744 649.500 595.093 654.295 C 597.060 658.309, 597.844 659.042, 599.908 658.795 C 603.101 658.413, 608.117 642.366, 605.372 641.313 C 603.302 640.518, 602.202 641.864, 600.709 647.020 L 599.434 651.424 596.842 646.462 C 594.260 641.519, 590.518 639.325, 589.538 642.180 M 613.430 642.113 C 612.760 643.198, 609.051 656.758, 609.017 658.250 C 608.943 661.504, 613.897 658.572, 614.499 655.005 C 615.428 649.510, 616.203 649.434, 618.928 654.571 C 623.141 662.512, 630 654.794, 630 642.112 C 630 638.617, 625.468 641.646, 624.558 645.750 C 623.383 651.050, 623.111 651.036, 619.767 645.500 C 617.112 641.105, 614.813 639.876, 613.430 642.113" stroke="none" fill="#fffffe" fill-rule="evenodd"/><path d="M 860 242.016 C 860 242.575, 858.444 243.774, 856.543 244.681 C 854.641 245.588, 853.318 246.705, 853.602 247.165 C 853.886 247.624, 853.529 248.045, 852.809 248.100 C 852.089 248.155, 852.625 248.560, 854 249 C 856.318 249.742, 856.245 249.814, 853 249.979 C 851.075 250.078, 850.175 250.383, 851 250.658 C 855.551 252.176, 855.564 252.188, 853.500 253.037 L 851.500 253.859 853.500 254.013 C 854.600 254.098, 856.625 254.305, 858 254.473 C 859.375 254.642, 867.130 255.058, 875.233 255.398 C 898.190 256.361, 908.487 266.769, 900.880 281.326 C 898.734 285.433, 873.085 329.630, 867.990 338 C 866.484 340.475, 863.913 344.975, 862.277 348 C 860.641 351.025, 857.279 356.875, 854.806 361 C 852.332 365.125, 846.683 374.800, 842.250 382.500 C 837.818 390.200, 830.081 403.603, 825.058 412.284 C 814.052 431.301, 813.463 430, 833.078 430 L 849.038 430 848.409 432.750 C 848.064 434.262, 846.939 438.200, 845.910 441.500 C 844.881 444.800, 842.706 452, 841.076 457.500 C 836.171 474.051, 799.616 596.081, 792.316 620.277 L 789.668 629.053 774.159 636.890 L 758.649 644.727 755.459 656.114 C 753.704 662.376, 751.260 671.325, 750.028 676 C 748.795 680.675, 747.239 686.288, 746.569 688.472 L 745.352 692.445 720.888 700.472 C 707.433 704.888, 684.618 712.319, 670.188 716.987 L 643.952 725.474 631.800 746.487 C 625.117 758.044, 612.235 780.325, 603.173 796 C 594.112 811.675, 582.125 832.375, 576.537 842 C 570.948 851.625, 563.478 864.632, 559.938 870.905 C 550.680 887.306, 542.864 891.542, 532.044 886.023 C 527.097 883.499, 525.788 881.512, 504.032 843.500 C 494.791 827.353, 466.242 778.614, 464.202 775.500 C 461.670 771.636, 460.251 769.176, 456.005 761.298 C 454.908 759.262, 453.181 756.643, 452.167 755.477 C 451.154 754.312, 449.481 751.815, 448.449 749.929 C 444.797 743.251, 440.526 736.495, 439.743 736.158 C 439.307 735.970, 438.309 734.283, 437.526 732.408 C 436.743 730.534, 435.634 729, 435.062 729 C 433.362 729, 434.283 733.841, 436.072 734.309 C 439.106 735.102, 439.352 739.793, 436.535 743.141 C 432.675 747.728, 432.428 750.264, 435.411 754.654 C 436.835 756.750, 438 758.949, 438 759.542 C 438 760.135, 439.246 761.943, 440.769 763.560 C 442.292 765.177, 444.125 768.196, 444.841 770.270 C 446.070 773.826, 451.598 784.075, 465.999 809.500 C 469.426 815.550, 473.376 822.525, 474.777 825 C 476.178 827.475, 481.468 836.700, 486.533 845.500 C 491.598 854.300, 499.355 867.800, 503.770 875.500 C 529.123 919.711, 552.633 916.991, 581.557 866.500 C 594.734 843.499, 605.367 825.050, 634.148 775.250 C 641.380 762.737, 649.018 749.516, 651.123 745.868 L 654.950 739.236 669.725 734.527 C 688.330 728.597, 714.875 720.015, 739.903 711.839 L 759.306 705.500 761.521 697.500 C 763.629 689.888, 765.107 684.382, 770.246 665 L 772.500 656.500 788.180 648.530 L 803.860 640.561 805.540 634.530 C 807.092 628.963, 818.269 591.301, 824.988 569 C 830.402 551.031, 850.100 484.730, 863.016 441 C 865.859 431.375, 868.818 421.572, 869.592 419.215 C 870.367 416.858, 871 414.721, 871 414.465 C 871 414.209, 865.136 414, 857.969 414 C 841.895 414, 842.129 414.414, 850.297 400.424 C 857.189 388.618, 879.064 350.706, 882.276 345 C 888.081 334.685, 893.455 325.322, 899.383 315.192 C 903.022 308.973, 906 303.609, 906 303.271 C 906 302.934, 906.617 301.947, 907.372 301.079 C 926.178 279.435, 919.003 250.136, 892.929 242.101 C 888.346 240.688, 860 240.616, 860 242.016 M 693 344.476 C 675.112 346.251, 674.185 346.517, 674.793 349.696 C 675.150 351.563, 674.948 352.086, 674.078 351.548 C 673.317 351.078, 672.669 351.550, 672.338 352.815 C 672.042 353.947, 670.647 355.102, 669.156 355.450 C 660.280 357.519, 658.560 360, 666 360 C 668.750 360, 671 360.450, 671 361 C 671 361.550, 668.525 362, 665.500 362 C 657.789 362, 659.817 364.731, 668.814 366.464 C 691.065 370.749, 703.277 402.043, 691.043 423.426 C 689.369 426.350, 688 429.026, 688 429.372 C 688 429.717, 693.594 430, 700.432 430 C 714.459 430, 713.301 430.617, 719.225 420 C 723.874 411.671, 744.212 376.510, 744.966 375.500 C 745.376 374.950, 747.066 372.025, 748.721 369 C 750.375 365.975, 754.040 359.527, 756.865 354.671 C 759.689 349.815, 762 345.203, 762 344.421 C 762 342.573, 711.773 342.612, 693 344.476 M 315.141 634.250 C 304.831 667.303, 304.680 671.190, 313.640 672.893 C 317.413 673.609, 322.075 674.575, 324 675.039 C 335.762 677.872, 380.843 687.609, 386.500 688.538 L 390.500 689.195 387 686.761 C 385.075 685.421, 378.670 681.747, 372.766 678.594 C 366.863 675.442, 361.774 672.443, 361.457 671.931 C 361.103 671.358, 423.810 671.013, 524.691 671.033 C 679.653 671.065, 688.385 671.159, 686.372 672.783 C 685.201 673.727, 678.726 678.304, 671.981 682.953 C 655.397 694.386, 655.724 694.372, 694.500 681.963 C 701.100 679.851, 711.225 676.694, 717 674.948 C 728.774 671.389, 739 651.774, 739 632.749 C 739 631.089, 728.204 631, 527.578 631 L 316.155 631 315.141 634.250 M 383.299 642.960 C 377.004 646.798, 375.144 654.395, 379.635 657.927 C 383.740 661.156, 392.333 659.906, 393.459 655.916 C 393.757 654.862, 394.255 653.100, 394.567 652 C 395.466 648.832, 391.397 649.410, 389.805 652.676 C 388.089 656.196, 386.570 656.570, 384.086 654.086 C 380.271 650.271, 386.066 643.360, 390.908 645.951 C 393.407 647.288, 396 646.294, 396 644 C 396 640.494, 388.367 639.869, 383.299 642.960 M 409.455 641.765 C 405.773 644.353, 397.005 658.423, 398.539 659.282 C 399.703 659.933, 400.801 659.596, 402.398 658.096 C 405.032 655.621, 410.775 655.251, 411.638 657.500 C 412.347 659.346, 417 659.505, 417 657.684 C 417 656.076, 415.084 645.169, 414.377 642.750 C 413.853 640.958, 411.323 640.452, 409.455 641.765 M 426.179 642.690 C 425.198 644.548, 422 656.378, 422 658.150 C 422 660.738, 426.487 658.311, 427.361 655.250 C 428.371 651.713, 430 650.865, 430 653.878 C 430 658.001, 432.996 658.678, 435.855 655.200 C 439.207 651.122, 440.109 651.135, 438.930 655.243 C 438.419 657.027, 438 658.602, 438 658.743 C 438 663.401, 443.038 657.716, 444.886 650.974 C 448.089 639.286, 446.114 637.678, 438.968 646.153 L 434.623 651.305 433.193 647.903 C 430.784 642.174, 430.341 641.511, 428.710 641.190 C 427.844 641.019, 426.705 641.694, 426.179 642.690 M 465.177 642.750 C 462.757 647.494, 460.660 658.172, 461.988 658.993 C 463.818 660.123, 465.993 659.129, 466.035 657.143 C 466.055 656.239, 466.678 654.404, 467.420 653.064 L 468.770 650.628 470.905 654.814 C 474.548 661.954, 477.201 660.830, 480.014 650.952 C 481.661 645.166, 482 642.600, 481.220 641.820 C 479.503 640.103, 477.249 641.589, 476.517 644.921 C 475.516 649.482, 474.347 649.509, 471.523 645.037 C 468.795 640.714, 466.617 639.929, 465.177 642.750 M 543.465 642.057 C 542.616 643.431, 539.042 656.899, 539.017 658.820 C 538.979 661.740, 543.330 659.505, 544.505 656 C 546.212 650.909, 551.640 650.708, 551.246 655.750 C 550.817 661.246, 555.553 660.426, 557.025 654.750 C 557.632 652.413, 558.547 648.925, 559.058 647 C 560.458 641.734, 560.259 640.824, 557.783 641.180 C 556.264 641.399, 555.275 642.523, 554.639 644.750 C 553.232 649.676, 546.857 649.709, 547.246 644.789 C 547.510 641.451, 544.972 639.618, 543.465 642.057 M 570.254 644.750 C 564.541 652.101, 560.902 658.032, 561.505 659.008 C 562.447 660.532, 563.851 660.197, 565.732 658 C 567.980 655.375, 573.594 655.326, 575.840 657.912 C 580.161 662.889, 581.383 652.259, 577.618 642.446 C 576.624 639.857, 573.232 640.918, 570.254 644.750 M 589.530 642.250 C 585.160 655.647, 584.860 660.758, 588.524 659.352 C 589.924 658.815, 592 654.622, 592 652.331 C 592 650.009, 594.471 652.309, 596.036 656.086 C 598.602 662.283, 602.141 659.869, 604.678 650.191 C 607.550 639.235, 604.259 636.174, 600.690 646.482 L 599.328 650.416 596.569 645.708 C 593.862 641.088, 590.454 639.414, 589.530 642.250 M 613.160 642.750 C 612.314 644.375, 609 656.775, 609 658.314 C 609 659.576, 613.999 659.018, 614.045 657.750 C 614.070 657.063, 614.672 655.150, 615.383 653.500 L 616.675 650.500 618.858 654.750 C 620.524 657.993, 621.619 659, 623.482 659 C 625.516 659, 626.104 658.292, 627.010 654.750 C 627.608 652.413, 628.526 649.195, 629.049 647.601 C 630.644 642.740, 630.280 640.820, 627.834 641.180 C 626.437 641.387, 625.284 642.628, 624.584 644.678 C 622.942 649.491, 622.365 649.539, 619.560 645.094 C 616.796 640.717, 614.631 639.923, 613.160 642.750 M 636.530 642.250 C 635.602 645.097, 632.163 658.494, 632.325 658.632 C 633.019 659.225, 642.030 659.719, 644.250 659.286 C 646.975 658.755, 648.155 656.091, 645.750 655.901 C 645.063 655.847, 643.383 655.735, 642.018 655.651 C 637.336 655.366, 638.312 652.162, 643.188 651.811 C 648.924 651.397, 649.202 648.717, 643.585 648 C 640.095 647.554, 639.851 647.350, 641.337 646.125 C 642.375 645.270, 644.130 644.976, 645.983 645.347 C 648.898 645.930, 651.960 643.293, 650.298 641.631 C 649.069 640.403, 636.955 640.947, 636.530 642.250 M 519.486 693.022 C 518.907 693.959, 519.781 695.787, 525.692 706 C 541.607 733.496, 538.851 732.930, 551.255 711.254 C 556.683 701.769, 560.844 693.557, 560.503 693.004 C 559.654 691.630, 520.336 691.648, 519.486 693.022" stroke="none" fill="#02dade" fill-rule="evenodd"/><path d="M 380.750 289.750 C 468.337 289.891, 611.662 289.891, 699.250 289.750 C 786.837 289.609, 715.175 289.494, 540 289.494 C 364.825 289.494, 293.162 289.609, 380.750 289.750 M 792.500 372.135 C 791.400 373.244, 790.636 374.991, 790.803 376.018 C 790.986 377.147, 790.078 378.558, 788.503 379.590 C 787.071 380.528, 786.116 381.860, 786.381 382.549 C 786.889 383.875, 785.309 383.949, 783.300 382.694 C 782.572 382.239, 781.648 382.789, 780.950 384.093 C 780.020 385.830, 780.059 386.108, 781.150 385.547 C 781.893 385.164, 781.626 385.560, 780.559 386.426 C 779.491 387.292, 779.015 388, 779.500 388 C 779.985 388, 779.509 388.708, 778.441 389.574 C 777.374 390.440, 777.175 390.857, 778 390.500 C 779.061 390.042, 779.005 390.259, 777.812 391.241 C 776.883 392.005, 775.983 393.274, 775.812 394.062 C 775.640 394.849, 774.962 395.944, 774.305 396.496 C 773.648 397.048, 772.973 398.138, 772.805 398.917 C 772.637 399.696, 771.696 401.175, 770.714 402.203 C 769.731 403.232, 769.171 404.468, 769.470 404.951 C 769.768 405.434, 769.634 405.980, 769.170 406.165 C 768.011 406.626, 757.702 424.202, 757.682 425.750 C 757.674 426.438, 757.340 427, 756.940 427 C 756.541 427, 755.955 427.675, 755.638 428.500 C 755.147 429.780, 756.746 430, 766.511 430 L 777.959 430 780.182 425.750 C 781.404 423.413, 782.313 421.163, 782.202 420.750 C 782.091 420.337, 782.525 420, 783.167 420 C 783.808 420, 784.070 419.737, 783.749 419.415 C 783.427 419.094, 783.915 417.954, 784.832 416.883 C 785.749 415.812, 786.349 414.663, 786.165 414.329 C 785.980 413.996, 786.282 413.444, 786.834 413.102 C 787.387 412.761, 787.988 411.848, 788.170 411.074 C 788.351 410.300, 789.304 408.825, 790.286 407.797 C 791.269 406.768, 791.805 405.493, 791.477 404.964 C 791.150 404.434, 791.343 404, 791.906 404 C 792.469 404, 793.440 403.046, 794.065 401.879 C 794.979 400.170, 794.938 399.894, 793.850 400.453 C 793.107 400.836, 793.374 400.440, 794.441 399.574 C 795.509 398.708, 795.985 398, 795.500 398 C 795.015 398, 795.447 397.393, 796.462 396.652 C 797.623 395.803, 798.007 394.820, 797.498 393.997 C 797.034 393.245, 797.086 392.935, 797.622 393.267 C 798.135 393.583, 799.320 392.507, 800.257 390.874 C 801.294 389.068, 801.479 388.149, 800.730 388.527 C 800.054 388.869, 800.214 388.552, 801.088 387.824 C 801.961 387.096, 802.500 385.979, 802.285 385.342 C 802.070 384.705, 802.438 383.848, 803.102 383.437 C 803.869 382.963, 804.049 383.112, 803.595 383.845 C 803.203 384.480, 803.118 385, 803.406 385 C 803.694 385, 804.440 384.046, 805.065 382.879 C 805.979 381.170, 805.938 380.894, 804.850 381.453 C 804.107 381.836, 804.281 381.508, 805.234 380.725 C 807.022 379.259, 806.689 377.933, 804.652 378.405 C 804.019 378.552, 803.840 378.483, 804.256 378.251 C 804.672 378.019, 804.698 377.305, 804.314 376.665 C 803.930 376.024, 804.397 376.133, 805.350 376.908 C 806.774 378.063, 807.301 378.082, 808.292 377.011 C 809.238 375.989, 809.232 375.858, 808.261 376.405 C 807.456 376.859, 807.215 376.605, 807.570 375.677 C 807.961 374.660, 807.349 374.250, 805.445 374.250 C 803.975 374.250, 802.374 373.631, 801.886 372.875 C 801.188 371.792, 800.828 371.766, 800.190 372.751 C 799.575 373.702, 798.864 373.522, 797.232 372.001 C 794.684 369.627, 794.996 369.618, 792.500 372.135 M 269.498 372.003 C 268.928 372.926, 269.079 373.069, 270.015 372.490 C 270.985 371.891, 271.164 372.132, 270.681 373.388 C 270.238 374.544, 270.401 374.870, 271.181 374.388 C 271.962 373.905, 272.125 374.231, 271.681 375.388 C 271.290 376.407, 271.424 376.856, 272.011 376.493 C 272.901 375.943, 273.432 377.265, 273.118 379.250 C 273.053 379.663, 273.477 380, 274.059 380 C 274.641 380, 274.854 380.426, 274.532 380.948 C 274.210 381.469, 274.823 381.727, 275.894 381.520 C 276.965 381.314, 278.076 381.757, 278.363 382.504 C 278.722 383.440, 278.248 383.740, 276.836 383.468 C 275.033 383.121, 275.110 383.373, 277.486 385.575 C 279.077 387.049, 279.948 388.692, 279.609 389.576 C 279.290 390.408, 279.691 391.328, 280.511 391.643 C 281.324 391.954, 281.740 392.612, 281.435 393.105 C 281.131 393.597, 281.434 394, 282.108 394 C 282.782 394, 283.052 394.281, 282.709 394.624 C 282.366 394.967, 283.078 396.127, 284.293 397.200 C 285.507 398.274, 285.900 398.844, 285.167 398.466 C 284.179 397.957, 284.251 398.584, 285.443 400.890 C 286.328 402.600, 287.516 404, 288.085 404 C 288.653 404, 288.862 404.414, 288.550 404.919 C 288.237 405.425, 288.756 406.613, 289.703 407.560 C 290.649 408.507, 291.524 409.960, 291.646 410.790 C 291.767 411.621, 292.459 412.675, 293.184 413.135 C 293.908 413.594, 294.050 413.991, 293.500 414.016 C 292.950 414.042, 293.175 414.613, 294 415.285 C 294.825 415.957, 295.644 417.163, 295.821 417.965 C 295.997 418.767, 297.565 421.803, 299.304 424.712 L 302.467 430 313.773 430 L 325.078 430 321.803 424.087 C 320.001 420.835, 318.071 418.432, 317.514 418.747 C 316.956 419.063, 316.829 418.957, 317.232 418.512 C 318.046 417.612, 313.149 408, 311.876 408 C 311.433 408, 310.560 407.046, 309.935 405.879 C 309.021 404.170, 309.062 403.894, 310.150 404.453 C 310.893 404.836, 310.719 404.508, 309.766 403.725 C 308.812 402.943, 308.324 402.009, 308.682 401.651 C 309.040 401.293, 308.782 401, 308.108 401 C 307.434 401, 307.159 400.552, 307.497 400.004 C 307.836 399.457, 306.850 397.808, 305.306 396.341 C 303.763 394.873, 303.057 393.995, 303.739 394.388 C 304.584 394.877, 304.781 394.593, 304.360 393.494 C 304.020 392.609, 303.125 392.122, 302.371 392.411 C 301.578 392.715, 301 392.293, 301 391.410 C 301 390.510, 301.474 390.175, 302.155 390.595 C 302.876 391.041, 303.037 390.869, 302.585 390.138 C 302.187 389.494, 301.366 389.274, 300.761 389.648 C 300.035 390.096, 299.896 389.713, 300.353 388.523 C 300.964 386.930, 300.847 386.881, 299.359 388.109 C 297.826 389.373, 297.779 389.300, 298.839 387.311 C 299.721 385.654, 299.724 384.947, 298.848 384.406 C 298.082 383.932, 297.964 384.133, 298.500 385 C 299.051 385.892, 298.920 386.068, 298.086 385.553 C 297.414 385.138, 297.114 384.145, 297.420 383.347 C 297.776 382.421, 297.558 382.155, 296.819 382.612 C 296.038 383.095, 295.875 382.769, 296.319 381.612 C 296.732 380.534, 296.585 380.138, 295.922 380.548 C 295.303 380.931, 294.997 380.482, 295.183 379.464 C 295.592 377.221, 292.459 376.683, 290.485 378.658 C 289.668 379.475, 289 379.687, 289 379.130 C 289 378.574, 289.448 377.841, 289.995 377.503 C 290.542 377.165, 291.487 375.959, 292.094 374.824 C 292.961 373.204, 292.926 372.928, 291.930 373.543 C 291.059 374.082, 290.840 373.858, 291.235 372.831 C 291.551 372.007, 291.274 371.333, 290.619 371.333 C 289.964 371.333, 289.429 372.125, 289.429 373.093 C 289.429 374.061, 289.782 374.635, 290.214 374.368 C 290.646 374.100, 291 374.328, 291 374.874 C 291 376.680, 286.934 377.249, 285.178 375.688 C 284.106 374.734, 281.604 374.229, 278.250 374.288 C 274.231 374.360, 272.684 373.950, 271.653 372.539 C 270.601 371.101, 270.128 370.983, 269.498 372.003 M 515.446 386.902 C 517.304 387.629, 517.293 387.690, 515.196 388.238 C 513.988 388.554, 513.007 389.417, 513.015 390.156 C 513.027 391.187, 513.282 391.151, 514.110 390 C 515.007 388.752, 515.089 388.808, 514.594 390.332 C 514.267 391.339, 513.993 392.689, 513.985 393.332 C 513.976 394.002, 513.556 393.861, 513 393 C 512.172 391.718, 512.028 391.754, 512.015 393.250 C 512.007 394.212, 511.995 395.320, 511.989 395.711 C 511.982 396.103, 513.091 396.482, 514.451 396.555 C 515.812 396.628, 516.725 396.364, 516.480 395.968 C 515.924 395.068, 525.221 395.991, 526.268 396.940 C 526.691 397.323, 524.779 405.242, 522.018 414.537 C 519.258 423.832, 517 431.789, 517 432.219 C 517 432.648, 520.133 433, 523.961 433 L 530.923 433 531.960 429.250 C 532.531 427.188, 534.967 418.975, 537.374 411 L 541.750 396.500 545.625 396.331 C 547.756 396.238, 551.391 396.126, 553.703 396.081 C 557.905 396, 559.968 393.104, 559.994 387.250 C 559.999 386.284, 554.724 386.016, 536.750 386.070 C 523.962 386.109, 514.376 386.483, 515.446 386.902 M 566.426 387.500 C 566.252 388.050, 563.319 397.950, 559.908 409.500 C 556.497 421.050, 553.499 431.063, 553.246 431.750 C 552.905 432.675, 554.622 433, 559.857 433 L 566.928 433 568.764 426.750 L 570.600 420.500 575.145 420.202 C 579.686 419.903, 579.693 419.908, 581.389 424.349 C 583.798 430.658, 585.837 432.564, 589.769 432.185 C 591.567 432.012, 592.804 431.492, 592.518 431.029 C 592.232 430.566, 591.044 430.437, 589.879 430.742 C 587.801 431.285, 587.794 431.244, 589.515 428.617 C 590.481 427.143, 590.960 425.627, 590.581 425.248 C 590.202 424.868, 589.507 425.180, 589.036 425.941 C 588.314 427.110, 587.954 427.097, 586.714 425.857 C 584.962 424.104, 591.581 423.419, 593.661 425.138 C 594.412 425.758, 595.056 425.718, 595.485 425.024 C 595.850 424.433, 595.778 424.033, 595.324 424.134 C 594.871 424.235, 593.712 423.973, 592.750 423.552 C 590.870 422.729, 590.304 419, 592.059 419 C 592.641 419, 592.914 419.337, 592.664 419.750 C 592.414 420.163, 592.838 421.080, 593.605 421.789 C 595.261 423.320, 595.396 422.609, 593.960 419.925 C 593.092 418.303, 593.324 417.827, 595.363 417.052 C 596.706 416.541, 598.108 415.635, 598.477 415.037 C 598.846 414.440, 597.428 414.910, 595.324 416.083 C 593.221 417.255, 591.834 417.870, 592.241 417.449 C 592.649 417.028, 592.439 415.968, 591.774 415.092 C 591.110 414.216, 590.961 413.835, 591.443 414.244 C 591.926 414.653, 592.949 414.090, 593.717 412.994 C 594.485 411.897, 595.650 411.014, 596.307 411.032 C 596.968 411.049, 596.720 411.655, 595.750 412.392 C 593.335 414.225, 593.542 415.303, 596.012 413.761 C 597.118 413.070, 597.818 411.969, 597.567 411.315 C 597.316 410.661, 597.873 409.924, 598.805 409.679 C 600.377 409.264, 600.376 409.224, 598.781 409.116 C 597.688 409.042, 597.271 408.456, 597.636 407.506 C 597.952 406.684, 598.725 406.267, 599.355 406.580 C 599.985 406.893, 599.712 406.503, 598.750 405.714 C 597.788 404.925, 597 403.712, 597 403.017 C 597 402.002, 597.298 402.002, 598.523 403.019 C 599.810 404.087, 599.939 404.004, 599.353 402.477 C 598.839 401.138, 599.002 400.883, 599.985 401.490 C 600.829 402.012, 601.069 401.921, 600.647 401.238 C 600.283 400.650, 600.416 399.035, 600.943 397.651 C 601.623 395.861, 601.553 394.969, 600.700 394.567 C 599.782 394.133, 599.793 393.863, 600.750 393.417 C 601.438 393.096, 602 392.210, 602 391.448 C 602 389.325, 604.859 390.866, 606.490 393.869 C 607.277 395.316, 607.938 395.963, 607.960 395.306 C 608.025 393.361, 603.697 389.002, 601 388.296 C 596.474 387.112, 566.764 386.428, 566.426 387.500 M 576.040 402.605 C 573.232 411.697, 572.982 411.313, 581.250 410.607 C 591.106 409.766, 591.870 409.652, 591.772 409.036 C 591.551 407.635, 594.724 402.057, 595.373 402.706 C 595.780 403.113, 595.424 402.118, 594.582 400.495 C 592.687 396.842, 591.022 396.159, 583.790 396.070 L 578.080 396 576.040 402.605 M 458.500 529 L 438.500 529.500 446.500 533.354 C 450.900 535.473, 455.998 537.857, 457.830 538.651 C 461.044 540.044, 461.136 540.240, 460.465 544.297 C 459.572 549.691, 459.356 550, 456.480 550 C 454.497 550, 453.879 550.743, 452.946 554.250 C 452.325 556.587, 450.480 563.144, 448.848 568.820 C 447.215 574.495, 446.096 579.670, 446.361 580.320 C 446.626 580.969, 446.885 580.375, 446.936 579 C 447.011 577.008, 447.227 576.805, 448 578 C 448.682 579.055, 448.974 579.118, 448.985 578.215 C 448.996 577.255, 449.489 577.191, 450.934 577.965 C 453.868 579.535, 456.800 579.206, 457.311 577.250 C 457.574 576.244, 457.831 576.775, 457.916 578.500 C 458.052 581.271, 458.169 581.361, 459.443 579.680 C 460.727 577.987, 460.888 577.978, 461.770 579.554 C 462.571 580.985, 462.903 580.725, 463.914 577.874 C 468.696 564.385, 479.417 528.888, 478.789 528.622 C 478.630 528.555, 469.500 528.725, 458.500 529 M 291.665 545.830 C 289.025 555.086, 286.441 564.649, 285.924 567.080 C 283.850 576.833, 283.879 576.587, 284.970 575 C 285.886 573.667, 286.109 573.667, 286.985 575 C 287.828 576.284, 287.972 576.248, 287.985 574.750 C 288.002 572.739, 289.610 572.390, 290.292 574.250 C 290.656 575.243, 291.020 575.246, 292.061 574.264 C 293.108 573.277, 293.739 573.359, 295.186 574.669 C 296.374 575.743, 297 575.891, 297 575.096 C 297 574.428, 297.450 574.160, 298 574.500 C 298.550 574.840, 299.007 574.304, 299.015 573.309 C 299.028 571.809, 299.189 571.750, 299.958 572.966 C 300.696 574.132, 301.118 573.826, 302.026 571.466 C 304.773 564.325, 315 531.620, 315 529.976 C 315 529.412, 311.091 529, 305.733 529 L 296.467 529 291.665 545.830 M 342.975 531.565 C 341.509 535.422, 341.644 535.655, 346.496 537.651 C 349.177 538.753, 350.994 540.146, 350.996 541.101 C 351.004 544.510, 348.769 549, 347.065 549 C 345.694 549, 344.636 551.495, 342.082 560.750 C 340.299 567.212, 338.602 573.344, 338.313 574.375 C 337.973 575.585, 338.179 576.008, 338.893 575.566 C 339.502 575.190, 340 574.260, 340 573.500 C 340 572.740, 340.468 571.829, 341.040 571.475 C 341.717 571.057, 341.863 571.823, 341.459 573.666 C 340.984 575.836, 341.088 576.148, 341.904 575 C 342.723 573.847, 342.973 573.811, 342.985 574.847 C 342.996 575.840, 344.309 576.102, 348.001 575.847 C 350.751 575.656, 353.170 575.950, 353.376 576.500 C 354.200 578.701, 355.826 574.965, 360.042 561.189 C 364.048 548.097, 364.595 546.932, 366.461 547.519 C 372.647 549.468, 372.523 549.538, 374.314 543.096 C 375.241 539.760, 376 536.812, 376 536.545 C 376 531.056, 344.949 526.373, 342.975 531.565 M 405 529.592 C 405 529.917, 402.572 538.579, 399.604 548.842 C 393.757 569.057, 391.957 576.624, 392.796 577.463 C 393.615 578.282, 398 578.103, 398 577.250 C 398.001 576.130, 407.401 576.119, 408.122 577.238 C 408.463 577.768, 409.511 576.019, 410.449 573.351 C 412.536 567.416, 422.426 535.555, 423.362 531.750 L 424.038 529 414.519 529 C 409.284 529, 405 529.266, 405 529.592 M 503.616 537.250 C 498.780 553.174, 493.110 573.905, 492.557 577.684 L 491.998 581.500 493.454 578.500 C 494.881 575.560, 494.911 575.550, 494.954 578 C 494.997 580.383, 495.239 580.483, 500.123 580.145 C 504.187 579.864, 505.103 580.071, 504.550 581.145 C 504.166 581.890, 504.497 581.712, 505.286 580.750 C 507.346 578.237, 508.121 578.589, 507.485 581.750 C 505.846 589.890, 516.214 558.923, 523.053 535.250 L 524.859 529 515.490 529 L 506.121 529 503.616 537.250 M 559.235 535.250 C 545.660 578.722, 545.482 580.412, 554.436 580.863 C 557.150 581, 559.738 581.338, 560.186 581.615 C 560.634 581.892, 561.007 581.529, 561.015 580.809 C 561.027 579.840, 561.271 579.881, 561.958 580.966 C 563.235 582.985, 565.440 576.971, 574.592 546.500 C 577.070 538.250, 579.286 530.938, 579.517 530.250 C 579.833 529.309, 577.619 529, 570.562 529 L 561.186 529 559.235 535.250 M 608.154 532.250 C 607.604 534.038, 605.080 542.700, 602.546 551.500 C 600.012 560.300, 597.277 569.689, 596.469 572.365 C 594.531 578.782, 596.188 588.124, 598.320 582.803 C 598.715 581.818, 598.861 581.805, 598.921 582.750 C 598.968 583.491, 600.392 584, 602.417 584 C 604.296 584, 606.060 583.438, 606.338 582.750 C 606.710 581.827, 606.863 581.859, 606.921 582.872 C 606.988 584.032, 607.254 584.034, 608.644 582.880 C 610.116 581.659, 610.208 581.777, 609.520 584.008 C 609.097 585.379, 609.007 586.263, 609.318 585.974 C 610.470 584.906, 616.152 568.354, 621.433 550.686 C 624.422 540.684, 627.171 531.712, 627.541 530.750 C 628.153 529.159, 627.350 529, 618.685 529 L 609.155 529 608.154 532.250 M 709.736 529.750 C 709.526 530.163, 708.770 532.525, 708.055 535 C 707.341 537.475, 705.705 542.875, 704.421 547 C 700.047 561.052, 694 583.654, 694.100 585.580 C 694.178 587.080, 694.375 586.953, 695 585 C 695.534 583.333, 695.834 583.083, 695.900 584.250 C 696.005 586.079, 697.138 586.530, 698.416 585.250 C 699.976 583.689, 705.999 584.188, 706.032 585.882 C 706.060 587.302, 706.228 587.283, 707.405 585.733 C 708.248 584.622, 709.443 584.192, 710.623 584.577 C 712.134 585.070, 712.213 584.986, 711.028 584.148 C 709.758 583.250, 709.792 583.017, 711.278 582.447 C 712.225 582.083, 713 580.799, 713 579.593 C 713 578.387, 713.388 576.972, 713.863 576.450 C 714.338 575.928, 716.621 569.200, 718.936 561.500 C 721.252 553.800, 724.408 543.337, 725.951 538.250 L 728.756 529 719.437 529 C 714.312 529, 709.946 529.337, 709.736 529.750 M 744.500 530.257 C 745.600 531, 750.849 533.544, 756.164 535.911 C 764.904 539.803, 765.788 540.441, 765.399 542.581 C 764.461 547.758, 763.063 550, 760.775 550 C 758.630 550.001, 751.285 571.927, 748.547 586.500 L 747.984 589.500 749.456 587 C 750.737 584.825, 750.934 584.754, 750.965 586.450 C 750.992 587.967, 751.267 588.133, 752.200 587.200 C 752.860 586.540, 754.125 586, 755.011 586 C 755.898 586, 757.567 585.120, 758.722 584.045 C 760.455 582.430, 760.918 582.343, 761.379 583.545 C 761.686 584.345, 762.428 585, 763.028 585 C 763.627 585, 763.833 584.438, 763.485 583.750 C 763.137 583.063, 763.560 583.374, 764.426 584.441 C 765.981 586.359, 766 586.358, 766 584.391 C 766 583.296, 766.391 581.972, 766.870 581.450 C 767.894 580.331, 772.568 566.170, 778.487 546.256 C 783.828 528.282, 785.159 529.587, 761.099 529.204 C 745.228 528.951, 742.793 529.105, 744.500 530.257 M 653.951 563.316 C 653.352 565.617, 652.006 570.428, 650.961 574.007 C 649.915 577.586, 649.324 581.523, 649.647 582.757 C 650.351 585.449, 653.984 585.858, 654.032 583.250 C 654.062 581.583, 654.127 581.583, 655.392 583.250 C 656.308 584.456, 658.105 585, 661.176 585 L 665.632 585 668.454 575.972 C 670.007 571.006, 671.102 566.770, 670.888 566.558 C 670.675 566.347, 667.022 564.589, 662.771 562.653 L 655.041 559.133 653.951 563.316" stroke="none" fill="#e7b8f4" fill-rule="evenodd"/><path d="M 192.500 239.014 C 174.472 240.555, 162.196 252.263, 160.379 269.649 C 159.159 281.316, 162.320 288.356, 189.041 333.500 C 193.598 341.200, 200.937 353.800, 205.349 361.500 C 209.762 369.200, 217.087 381.821, 221.629 389.547 C 226.171 397.272, 233.434 409.872, 237.769 417.547 C 242.105 425.221, 249.120 437.350, 253.358 444.500 C 263.197 461.097, 262.957 459.180, 257.490 477.479 C 254.917 486.095, 253.001 493.334, 253.233 493.566 C 253.464 493.798, 255.920 486.453, 258.690 477.244 L 263.725 460.500 260.666 455 C 258.983 451.975, 253.870 443.267, 249.303 435.648 C 244.736 428.030, 241 421.573, 241 421.299 C 241 421.026, 238.579 416.684, 235.620 411.651 C 232.660 406.618, 226.869 396.650, 222.749 389.500 C 218.630 382.350, 210.197 367.725, 204.009 357 C 197.821 346.275, 191.612 335.475, 190.210 333 C 188.808 330.525, 182.940 320.400, 177.170 310.500 C 157.043 275.969, 156.054 263.891, 172.119 248.799 C 182.246 239.285, 171.595 239.987, 305.718 239.992 C 370.404 239.994, 423.142 239.832, 422.914 239.633 C 422.114 238.934, 200.407 238.338, 192.500 239.014 M 533.750 239.750 C 588.337 239.893, 677.662 239.893, 732.250 239.750 C 786.837 239.607, 742.175 239.490, 633 239.490 C 523.825 239.490, 479.162 239.607, 533.750 239.750 M 915.027 258.641 C 921.965 272.215, 920.427 279.947, 905.705 305.500 C 886.222 339.318, 857.249 389.485, 850.620 400.880 C 846.979 407.138, 844 412.426, 844 412.630 C 844 412.833, 849.962 412.903, 857.250 412.784 L 870.500 412.568 858.250 412.253 C 851.513 412.080, 846 411.715, 846 411.442 C 846 410.941, 861.904 383.136, 877.997 355.500 C 888.800 336.948, 908.152 303.533, 912.711 295.559 C 921.544 280.108, 921.864 260.942, 913.407 253.923 C 912.651 253.295, 913.380 255.419, 915.027 258.641 M 188.021 258.114 C 180.204 261.239, 175.828 271.997, 179.238 279.703 C 179.918 281.241, 182.318 285.650, 184.569 289.500 C 186.821 293.350, 189.805 298.525, 191.200 301 C 192.595 303.475, 198.810 314.275, 205.012 325 C 211.213 335.725, 224.605 358.900, 234.772 376.500 C 244.938 394.100, 258.204 417.050, 264.252 427.500 C 270.299 437.950, 276.737 449.200, 278.559 452.500 L 281.873 458.500 266.884 508.500 C 239.288 600.553, 231.101 628.434, 231.535 628.868 C 231.772 629.105, 244.834 633.017, 260.560 637.560 C 276.287 642.104, 289.301 645.974, 289.481 646.161 C 289.660 646.347, 287.151 656.155, 283.904 667.955 C 280.657 679.755, 278 690.151, 278 691.058 C 278 692.392, 281.381 693.390, 295.750 696.295 C 320.768 701.353, 366.980 710.928, 404.347 718.795 L 436.195 725.500 446.930 744 C 457.616 762.416, 481.853 804.404, 503.788 842.500 C 526.286 881.573, 527.414 883.327, 531.608 885.734 C 536.715 888.664, 543.016 888.681, 548.181 885.778 C 552.868 883.144, 551.801 884.867, 591.998 815 C 598.168 804.275, 605.185 792.125, 607.591 788 C 609.997 783.875, 619.110 768.125, 627.843 753 L 643.721 725.500 694.610 708.934 L 745.500 692.367 751.661 669.231 C 759.094 641.322, 755.998 645.784, 774.287 636.622 L 789.655 628.924 807.475 569.212 C 837.754 467.752, 847.667 434.587, 848.415 432.250 L 849.135 430 831.960 430 C 817.271 430, 814.868 429.788, 815.349 428.532 C 815.844 427.243, 852.009 364.468, 888.821 301 C 904.664 273.685, 905.520 267.636, 894.677 259.594 L 891.853 257.500 541.177 257.311 C 311.284 257.187, 189.646 257.464, 188.021 258.114 M 221 289.456 C 221 289.707, 232.777 310.295, 247.171 335.206 C 261.566 360.118, 279.703 391.525, 287.477 405 L 301.612 429.500 313.426 429.783 C 322.983 430.012, 325.141 429.809, 324.724 428.723 C 324.441 427.985, 309.087 401.197, 290.604 369.196 C 272.122 337.194, 257 310.783, 257 310.505 C 257 310.227, 384.350 310, 540 310 C 695.650 310, 823 310.200, 823 310.445 C 823 310.855, 794.834 359.853, 767.406 407.156 C 761.138 417.967, 755.728 427.544, 755.385 428.439 C 754.827 429.894, 756.009 430.036, 766.590 429.783 L 778.418 429.500 781.530 424 C 783.241 420.975, 801.372 389.550, 821.820 354.166 C 842.269 318.783, 859 289.645, 859 289.416 C 859 289.187, 715.450 289, 540 289 C 364.550 289, 221 289.205, 221 289.456 M 318.631 343 L 315.917 343.500 319.554 349.500 C 323.129 355.396, 332.337 371.121, 336.244 378 C 337.338 379.925, 343.051 389.825, 348.940 400 C 354.830 410.175, 361.124 421.110, 362.927 424.301 L 366.205 430.101 370.834 429.801 L 375.463 429.500 384.609 398.500 L 393.755 367.500 499.128 367.500 L 604.500 367.500 611 370.392 C 619.043 373.971, 620.381 373.950, 631.244 370.065 C 673.486 354.960, 709.597 386.192, 691.299 422.006 L 687.215 430 700.502 430 L 713.789 430 720.795 417.750 C 724.649 411.012, 731.060 399.875, 735.042 393 C 739.024 386.125, 747.150 372.063, 753.100 361.750 L 763.919 343 548.709 342.940 C 430.344 342.907, 330.765 342.795, 327.423 342.690 C 324.080 342.586, 320.124 342.725, 318.631 343 M 638.500 386.346 C 623.516 390.248, 612.590 401.482, 611.340 414.272 C 609.199 436.184, 644.268 441.405, 662.573 421.900 C 681.418 401.820, 666.078 379.165, 638.500 386.346 M 406.675 408.750 C 402.968 421.262, 399.949 431.837, 399.967 432.250 C 399.985 432.663, 403.352 433, 407.448 433 L 414.897 433 416.580 427 L 418.264 421 422.117 421 C 425.824 421, 426.087 421.229, 429 427 L 432.029 433 440.028 433 L 448.027 433 446.643 429.750 C 445.882 427.962, 444.414 424.750, 443.380 422.610 C 441.524 418.769, 441.525 418.706, 443.500 417.610 C 451.657 413.083, 457.924 402.720, 456.394 396.287 C 454.475 388.215, 448.688 386.050, 428.958 386.022 L 413.417 386 406.675 408.750 M 468.480 387.250 C 467.606 389.637, 455 431.911, 455 432.454 C 455 432.754, 464.461 433, 476.025 433 C 499.505 433, 497.465 433.633, 499.373 425.750 L 500.038 423 486.500 423 L 472.962 423 473.619 420.250 C 475.114 413.995, 475.104 414, 487.377 414 L 498.683 414 499.842 410.134 C 501.727 403.840, 501.986 404, 489.883 404 C 478.843 404, 478.771 403.985, 479.370 401.750 C 479.701 400.512, 479.979 398.938, 479.986 398.250 C 479.997 397.313, 483.366 397, 493.461 397 L 506.923 397 508.461 391.818 C 509.308 388.969, 510 386.494, 510 386.318 C 510 385.213, 468.888 386.135, 468.480 387.250 M 512.539 391.182 C 511.692 394.031, 511 396.488, 511 396.641 C 511 396.794, 514.523 397.050, 518.829 397.210 L 526.658 397.500 521.358 415 C 518.443 424.625, 516.045 432.631, 516.029 432.792 C 516.013 432.953, 519.466 432.953, 523.702 432.792 L 531.404 432.500 534.128 423.500 C 535.627 418.550, 538.038 410.563, 539.487 405.750 L 542.121 397 549.967 397 L 557.812 397 559.406 392.322 C 560.283 389.749, 561 387.274, 561 386.822 C 561 386.370, 550.442 386, 537.539 386 L 514.077 386 512.539 391.182 M 559.683 408.367 C 551.529 435.658, 551.459 433, 560.336 433 L 567.672 433 569.340 427 L 571.008 421 575.060 421 C 579.041 421, 579.157 421.103, 581.805 426.967 L 584.500 432.934 592.711 432.967 L 600.922 433 597.458 425.773 L 593.995 418.546 597.347 416.826 C 607.887 411.419, 612.648 397.494, 606.171 391.017 C 602.107 386.953, 597.367 386.012, 580.933 386.006 L 566.365 386 559.683 408.367 M 637.348 398.365 C 630.641 401.557, 627 406.727, 627 413.058 C 627 427.437, 648.288 425.527, 654.528 410.588 C 659.122 399.591, 649.362 392.647, 637.348 398.365 M 423.664 402.985 C 422.749 406.277, 422 409.202, 422 409.485 C 422 413.079, 438.512 408.413, 440.043 404.387 C 442.125 398.910, 439.941 397, 431.593 397 L 425.328 397 423.664 402.985 M 576.571 402.404 C 574.345 410.061, 574.313 410, 580.550 410 C 587.326 410, 591.307 408.087, 592.991 404.022 C 595.017 399.131, 592.415 397, 584.416 397 L 578.142 397 576.571 402.404 M 302.038 491.250 C 296.403 510.087, 286.871 542.047, 280.856 562.272 C 274.841 582.497, 269.663 599.714, 269.349 600.533 C 268.848 601.839, 274.014 601.990, 311.567 601.761 L 354.356 601.500 355.069 599 C 368.547 551.686, 367.791 553.597, 372.305 555.483 L 375.917 556.992 379.024 546.746 C 380.734 541.111, 382.316 535.825, 382.541 535 C 382.928 533.581, 343.346 514.320, 342.266 515.401 C 342.046 515.621, 340.355 520.830, 338.507 526.977 L 335.147 538.155 341.324 541.076 C 346.971 543.748, 347.225 543.998, 344.293 543.999 C 340.753 544, 341.539 542.128, 332.745 571.500 L 330.350 579.500 318.056 579.782 C 307.558 580.022, 305.844 579.848, 306.327 578.589 C 306.738 577.520, 329.525 501.406, 335.619 480.750 C 336.074 479.206, 337.584 479, 348.444 479 L 360.753 479 357.376 490.121 C 355.519 496.238, 354 501.424, 354 501.647 C 354 501.870, 360.798 501.928, 369.106 501.776 L 384.212 501.500 390.606 480.037 C 394.123 468.233, 397 458.220, 397 457.787 C 397 457.354, 377.939 457, 354.643 457 L 312.285 457 302.038 491.250 M 420.166 460.250 C 419.656 462.038, 413.310 483.300, 406.064 507.500 C 395.638 542.323, 382.714 585.626, 378.375 600.276 C 377.884 601.932, 378.889 602.034, 393.152 601.776 L 408.456 601.500 418.016 569.500 C 423.273 551.900, 428.008 536.068, 428.538 534.318 L 429.500 531.137 442.500 537.154 C 457.095 543.909, 458.448 544.767, 453.609 544.202 C 450.512 543.841, 450.126 544.096, 449.150 547.153 C 447.185 553.306, 433 601.119, 433 601.589 C 433 601.843, 439.835 601.928, 448.189 601.776 L 463.379 601.500 484.655 530.500 C 496.357 491.450, 505.946 458.938, 505.965 458.250 C 505.993 457.269, 496.861 457, 463.547 457 L 421.094 457 420.166 460.250 M 521.483 458.259 C 520.425 461.201, 479.665 597.716, 479.239 599.750 L 478.767 602 493.840 602 L 508.914 602 511.886 592.250 C 514.854 582.513, 523.315 554.157, 535.086 514.500 C 538.514 502.950, 541.428 493.357, 541.560 493.183 C 541.693 493.008, 544.147 494.054, 547.013 495.507 L 552.226 498.148 559.228 495.553 C 564.802 493.487, 566.110 493.272, 565.639 494.499 C 565.313 495.347, 562.070 506.044, 558.430 518.270 C 554.791 530.497, 547.805 553.865, 542.907 570.199 C 538.008 586.534, 534 600.372, 534 600.949 C 534 601.637, 539.162 602, 548.922 602 L 563.845 602 564.877 598.750 C 565.815 595.798, 579.621 549.592, 599.437 483.088 C 608.451 452.834, 611.089 455.571, 582.742 465.763 L 558.985 474.306 548.242 469.207 C 525.677 458.498, 521.947 456.971, 521.483 458.259 M 624.698 457.750 C 624.467 458.163, 621.910 466.600, 619.016 476.500 C 612.858 497.560, 613.915 495.524, 610.150 493.577 C 608.480 492.714, 606.922 492.343, 606.687 492.754 C 605.617 494.629, 599.920 515.253, 600.353 515.687 C 600.621 515.955, 603.464 517.451, 606.670 519.010 L 612.500 521.847 608.925 521.923 L 605.350 522 593.672 561.250 C 587.249 582.837, 581.995 600.837, 581.997 601.250 C 581.999 601.663, 601.111 602, 624.468 602 L 666.936 602 669.553 593.250 C 670.993 588.438, 673.483 580.175, 675.086 574.889 C 676.688 569.603, 678 564.964, 678 564.580 C 678 563.900, 657.402 553.897, 653.357 552.613 C 651.635 552.067, 651.138 552.617, 650.088 556.234 C 649.408 558.580, 647.515 564.888, 645.882 570.250 L 642.914 580 630.957 580 C 624.381 580, 619 579.721, 619 579.380 C 619 578.604, 632.984 531.662, 633.282 531.439 C 633.402 531.349, 639.125 533.894, 646 537.094 C 652.875 540.294, 658.896 542.800, 659.381 542.662 C 660.588 542.320, 667.073 520.653, 666.200 519.882 C 665.815 519.542, 659.803 516.674, 652.841 513.508 L 640.181 507.753 641.564 503.126 C 642.324 500.582, 644.223 494.225, 645.782 489 L 648.617 479.500 660.809 479.219 C 667.514 479.065, 673 479.119, 673 479.339 C 673 479.560, 671.650 484.284, 670 489.838 C 668.350 495.392, 667 500.401, 667 500.968 C 667 503.003, 696.778 502.299, 697.377 500.250 C 697.659 499.288, 700.614 489.421, 703.945 478.324 C 707.275 467.228, 710 457.890, 710 457.574 C 710 456.709, 625.183 456.884, 624.698 457.750 M 720.306 474.250 C 714.801 492.850, 686.008 589.433, 683.637 597.250 L 682.196 602 697.435 602 L 712.674 602 722.879 567.750 C 728.491 548.913, 733.264 532.966, 733.486 532.314 C 733.747 531.544, 738.679 533.364, 747.554 537.507 C 762.702 544.579, 764.179 545.492, 758.865 544.499 C 754.244 543.636, 755.276 541.384, 745.932 572.723 C 741.540 587.450, 737.748 600.063, 737.505 600.750 C 737.164 601.715, 740.555 602, 752.370 602 L 767.678 602 770.980 590.750 C 772.796 584.563, 775.072 577.025, 776.037 574 C 778.649 565.818, 789 530.427, 789 529.679 C 789 529.323, 786.413 527.715, 783.250 526.105 C 776.792 522.816, 776.351 523.480, 787.640 519.497 L 792.780 517.684 795.822 507.592 C 797.495 502.041, 801.429 488.950, 804.565 478.500 C 807.700 468.050, 810.479 458.938, 810.740 458.250 C 811.115 457.262, 802.220 457, 768.312 457 L 725.410 457 720.306 474.250 M 442.510 487.750 C 441.074 492.563, 439.247 498.493, 438.450 500.928 C 437.652 503.364, 437 505.883, 437 506.527 C 437 508.006, 457.098 517.342, 458.004 516.283 C 458.679 515.495, 469.025 481.148, 469.009 479.750 C 469.004 479.337, 463.627 479, 457.061 479 L 445.121 479 442.510 487.750 M 745.500 492.250 C 743.394 499.538, 741.517 505.950, 741.327 506.500 C 740.993 507.468, 761.699 517.687, 762.388 516.894 C 762.661 516.579, 768.828 496.270, 773.059 481.750 L 773.860 479 761.594 479 L 749.328 479 745.500 492.250 M 315.510 632.250 C 313.731 637.458, 305.242 670.575, 305.596 670.929 C 306.222 671.555, 391.416 689.918, 391.819 689.514 C 392.001 689.333, 385.928 685.789, 378.324 681.639 C 370.721 677.489, 363.600 673.411, 362.500 672.578 C 360.711 671.223, 377.775 671.060, 524.309 671.032 C 614.404 671.014, 687.907 671.337, 687.648 671.750 C 687.390 672.163, 680.198 677.222, 671.666 682.994 C 663.135 688.765, 656.272 693.606, 656.417 693.750 C 656.562 693.895, 660.239 692.880, 664.590 691.495 C 668.940 690.109, 684.875 685.098, 700 680.358 C 732.632 670.131, 728.615 673.491, 734.497 651.500 C 737.145 641.600, 739.515 632.938, 739.763 632.250 C 740.123 631.253, 697.360 631, 528.076 631 C 359.259 631, 315.850 631.255, 315.510 632.250 M 763.488 690.612 C 759.828 704.607, 759.527 705.298, 756.580 706.489 C 754.886 707.174, 731.350 714.852, 704.278 723.551 L 655.057 739.367 650.689 746.933 C 648.287 751.095, 636.717 771.150, 624.978 791.500 C 555.515 911.917, 561.147 904.430, 540 904.480 C 519.854 904.528, 520.897 905.815, 471.073 819.373 C 448.288 779.843, 428.642 745.888, 427.415 743.917 C 425.377 740.642, 400.349 733.375, 393.500 734.070 C 391.751 734.248, 398.178 735.940, 408.500 738.019 C 425.025 741.349, 424.141 740.776, 431.343 752.821 C 436.612 761.633, 451.975 788.120, 458.999 800.500 C 462.454 806.590, 477.496 832.807, 483.097 842.500 C 486.275 848, 493.516 860.776, 499.188 870.890 C 523.714 914.629, 553.898 919.537, 573.654 883 C 575.290 879.975, 582.640 867.150, 589.989 854.500 C 597.337 841.850, 606.911 825.200, 611.265 817.500 C 615.618 809.800, 622.931 797.200, 627.515 789.500 C 632.100 781.800, 640.313 767.649, 645.768 758.053 L 655.685 740.605 665.592 737.384 C 732.721 715.561, 758.979 706.730, 759.849 705.682 C 761.043 704.243, 768.369 677.036, 767.734 676.400 C 767.503 676.170, 765.592 682.565, 763.488 690.612 M 454.311 693.369 C 454.614 694.157, 465.751 713.635, 479.061 736.651 C 492.370 759.668, 508.198 787.050, 514.233 797.500 C 544.124 849.256, 537.697 845.980, 553.958 817.750 C 561.325 804.962, 573.499 783.925, 581.013 771 C 608.162 724.299, 626 693.203, 626 692.576 C 626 692.224, 620.794 692.063, 614.432 692.218 L 602.864 692.500 585.838 722 C 576.473 738.225, 562.512 762.413, 554.812 775.750 C 547.112 789.087, 540.453 800, 540.014 800 C 539.049 800, 535.883 794.619, 492.657 719.500 L 477.120 692.500 465.440 692.217 C 455.630 691.980, 453.849 692.164, 454.311 693.369 M 518 692.506 C 518 693.448, 539.458 730, 540.011 730 C 540.470 730, 560.823 695.331, 561.833 692.826 C 562.017 692.372, 552.229 692, 540.083 692 C 527.938 692, 518 692.228, 518 692.506" stroke="none" fill="#271940" fill-rule="evenodd"/></svg>